<svg
    xmlns="http://www.w3.org/2000/svg"
    xml:space="preserve"
    width="512"
    height="512"
    viewBox="0 0 16.933 16.933"
><defs><linearGradient
            id="a"
            x1="7"
            x2="11"
            y1="15.5"
            y2="12"
            gradientUnits="userSpaceOnUse"
        ><stop
                offset="0"
                stop-color="#08b962"
                style="stop-color:#a3be8c;stop-opacity:1"
            /><stop
                offset="1"
                stop-color="#08b962"
                stop-opacity="0"
            /></linearGradient><linearGradient
            id="b"
            x1="8"
            x2="11.5"
            y1="5.5"
            y2="11"
            gradientUnits="userSpaceOnUse"
        ><stop
                offset="0"
                stop-color="#f94543"
                style="stop-color:#bf616a;stop-opacity:1"
            /><stop
                offset="1"
                stop-color="#f94543"
                stop-opacity="0"
            /></linearGradient><linearGradient
            id="c"
            x1="3.5"
            x2="17.5"
            y1="13.5"
            y2="12"
            gradientUnits="userSpaceOnUse"
        ><stop
                offset="0"
                stop-color="#fabc12"
                style="stop-color:#ebcb8b;stop-opacity:1"
            /><stop
                offset=".46"
                stop-color="#fabc12"
                stop-opacity="0"
            /></linearGradient></defs><path
        fill="none"
        d="M0-.001h16.924v16.927H0z"
        opacity=".15"
    /><g
        style="line-height:1;opacity:1;mix-blend-mode:normal;fill:#d8dee9;fill-opacity:1"
    ><path
            fill="#3186ff"
            d="M20.616 10.835a14.2 14.2 0 0 1-4.45-3.001 14.1 14.1 0 0 1-3.678-6.452.503.503 0 0 0-.975 0 14.13 14.13 0 0 1-3.679 6.452 14.2 14.2 0 0 1-4.45 3.001q-.976.42-2.002.678a.502.502 0 0 0 0 .975q1.025.258 2.002.677a14.2 14.2 0 0 1 4.45 3.001 14.1 14.1 0 0 1 3.679 6.453.502.502 0 0 0 .975 0q.258-1.026.677-2.003a14.15 14.15 0 0 1 3.001-4.45 14.1 14.1 0 0 1 6.453-3.678.503.503 0 0 0 0-.975 13 13 0 0 1-2.003-.678"
            style="fill:#d8dee9;fill-opacity:1"
            transform="translate(7.28 -.406)scale(.40433)"
        /><path
            fill="url(#a)"
            d="M20.616 10.835a14.2 14.2 0 0 1-4.45-3.001 14.1 14.1 0 0 1-3.678-6.452.503.503 0 0 0-.975 0 14.13 14.13 0 0 1-3.679 6.452 14.2 14.2 0 0 1-4.45 3.001q-.976.42-2.002.678a.502.502 0 0 0 0 .975q1.025.258 2.002.677a14.2 14.2 0 0 1 4.45 3.001 14.1 14.1 0 0 1 3.679 6.453.502.502 0 0 0 .975 0q.258-1.026.677-2.003a14.15 14.15 0 0 1 3.001-4.45 14.1 14.1 0 0 1 6.453-3.678.503.503 0 0 0 0-.975 13 13 0 0 1-2.003-.678"
            style="fill:#d8dee9;fill-opacity:1"
            transform="translate(7.28 -.406)scale(.40433)"
        /><path
            fill="url(#b)"
            d="M20.616 10.835a14.2 14.2 0 0 1-4.45-3.001 14.1 14.1 0 0 1-3.678-6.452.503.503 0 0 0-.975 0 14.13 14.13 0 0 1-3.679 6.452 14.2 14.2 0 0 1-4.45 3.001q-.976.42-2.002.678a.502.502 0 0 0 0 .975q1.025.258 2.002.677a14.2 14.2 0 0 1 4.45 3.001 14.1 14.1 0 0 1 3.679 6.453.502.502 0 0 0 .975 0q.258-1.026.677-2.003a14.15 14.15 0 0 1 3.001-4.45 14.1 14.1 0 0 1 6.453-3.678.503.503 0 0 0 0-.975 13 13 0 0 1-2.003-.678"
            style="fill:#d8dee9;fill-opacity:1"
            transform="translate(7.28 -.406)scale(.40433)"
        /><path
            fill="url(#c)"
            d="M20.616 10.835a14.2 14.2 0 0 1-4.45-3.001 14.1 14.1 0 0 1-3.678-6.452.503.503 0 0 0-.975 0 14.13 14.13 0 0 1-3.679 6.452 14.2 14.2 0 0 1-4.45 3.001q-.976.42-2.002.678a.502.502 0 0 0 0 .975q1.025.258 2.002.677a14.2 14.2 0 0 1 4.45 3.001 14.1 14.1 0 0 1 3.679 6.453.502.502 0 0 0 .975 0q.258-1.026.677-2.003a14.15 14.15 0 0 1 3.001-4.45 14.1 14.1 0 0 1 6.453-3.678.503.503 0 0 0 0-.975 13 13 0 0 1-2.003-.678"
            style="fill:#d8dee9;fill-opacity:1"
            transform="translate(7.28 -.406)scale(.40433)"
        /></g><path
        d="M4.384 3.722a3.107 3.107 0 0 0-3.107 3.107v8.157a3.11 3.11 0 0 0 3.107 3.106h8.157a3.11 3.11 0 0 0 3.107-3.106v-4.214l-1.165.799v3.414c0 1.072-.87 1.942-1.942 1.942H4.384a1.94 1.94 0 0 1-1.942-1.942V6.829c0-1.073.87-1.941 1.942-1.941h2.58l.682-1.166Z"
        style="fill:#d8dee9;fill-opacity:1;stroke-width:.0316736"
        transform="translate(-.974 -1.894)scale(1.04062)"
    /></svg>
