<svg xmlns="http://www.w3.org/2000/svg" xmlns:xlink="http://www.w3.org/1999/xlink" xml:space="preserve" width="128" height="119.723" viewBox="0 0 33.867 31.677"><defs><linearGradient id="a" x1="2.098" x2="16.936" y1="15.052" y2=".006" gradientTransform="translate(-2338.543 -8949.12)scale(2.24566)" gradientUnits="userSpaceOnUse"><stop offset="0" stop-color="#b48ead"/><stop offset=".375" stop-color="#b48ead"/><stop offset="1" stop-color="#88c0d0"/></linearGradient><linearGradient xlink:href="#a" id="b" x1="2.098" x2="16.936" y1="15.052" y2=".006" gradientTransform="translate(-2668.316 -8863.976)scale(3.593)" gradientUnits="userSpaceOnUse"/></defs><path d="M-2648.944-8849.387h-1.698c-1.83 0-2.181.047-2.735.373-.395.231-.835.715-1.065 1.17-.33.65-.383 1.108-.384 3.345v2.05h33.8l-.022-2.192-.022-2.193-.24-.488c-.461-.94-1.508-1.737-2.581-1.964-.335-.072-.97-.102-2.17-.102h-1.695l-.021 1.735c-.021 1.662-.03 1.746-.181 1.99-.398.64-1.388.64-1.785 0-.152-.244-.16-.328-.182-1.99l-.022-1.735h-16.817v1.56c0 .858-.03 1.684-.065 1.834-.037.16-.167.378-.308.518-.46.46-1.26.366-1.604-.187-.152-.244-.16-.328-.182-1.99zm-5.884 9.184.02 10.081.018 10.079.16.42c.24.63.606 1.117 1.085 1.436.23.155.44.284.464.285.024 0 .202.045.395.1.296.084 2.596.1 14.582.084l14.232-.016.46-.157c.93-.316 1.797-1.044 2.19-1.84l.224-.453.018-10.01.02-10.009h-16.934zm18.15 3.925.215.18c.33.278.37.533.345 2.145-.022 1.342-.034 1.465-.17 1.648a.96.96 0 0 1-.385.281c-.286.101-2.859.114-3.195.016a1 1 0 0 1-.404-.279l-.18-.216v-1.575c0-2.298-.1-2.2 2.199-2.2zm-9.922 0c1.506 0 1.58 0 1.764.153.344.27.387.489.386 1.966 0 1.5-.07 1.808-.463 2.065-.17.112-.373.126-1.636.142-.792 0-1.536-.015-1.654-.05a1.04 1.04 0 0 1-.386-.248c-.17-.18-.171-.195-.192-1.786-.03-2.338-.127-2.24 2.18-2.24zm16.71 0h.001c2.292 0 2.195-.097 2.195 2.187 0 1.425-.016 1.584-.136 1.788a.65.65 0 0 1-.403.298v-.001c-.263.074-2.867.093-3.139.024a.87.87 0 0 1-.573-.487c-.07-.167-.094-.606-.094-1.635 0-1.535.042-1.75.387-2.021.185-.152.258-.152 1.763-.152zm-8.25 9.476c1.368.022 1.45.032 1.663.185.322.229.37.494.37 2.012 0 1.53-.05 1.805-.371 2-.205.135-.36.136-1.801.135-2.278 0-2.174.102-2.174-2.196v-1.576l.18-.214c.278-.33.534-.371 2.134-.346zm8.13 0c1.561-.025 1.836.017 2.11.308l.172.182v3.421l-.194.195-.195.194-1.629.018c-1.76.019-1.843 0-2.112-.356-.136-.184-.147-.303-.168-1.694-.032-2.287-.08-2.234 2.016-2.268zm-16.611.022c1.516 0 1.612 0 1.8.146.316.235.368.494.368 1.987 0 1.22-.016 1.393-.134 1.65-.077.156-.23.34-.344.407-.178.102-.41.12-1.737.118-2.219 0-2.128.088-2.126-2.15 0-2.246-.086-2.158 2.173-2.158z" style="fill:url(#b);stroke-width:1.59998;stroke-linecap:round;stroke-linejoin:round" transform="translate(2654.827 8849.388)"/></svg>