<svg xmlns="http://www.w3.org/2000/svg" xmlns:xlink="http://www.w3.org/1999/xlink" xml:space="preserve" width="128" height="128" viewBox="0 0 33.867 33.867"><defs><linearGradient id="b"><stop offset="0" style="stop-color:#b48ead;stop-opacity:1"/><stop offset="1" style="stop-color:#b48ead;stop-opacity:0"/></linearGradient><linearGradient id="a" x1="2.098" x2="16.936" y1="15.052" y2=".006" gradientTransform="translate(-2338.543 -8949.12)scale(2.24566)" gradientUnits="userSpaceOnUse"><stop offset="0" stop-color="#b48ead"/><stop offset=".375" stop-color="#b48ead"/><stop offset="1" stop-color="#88c0d0"/></linearGradient><linearGradient xlink:href="#a" id="c" x1="2.098" x2="16.936" y1="15.052" y2=".006" gradientTransform="translate(-2369.648 -8838.22)scale(2.24566)" gradientUnits="userSpaceOnUse"/><filter id="d" width="1.052" height="1.056" x="-.026" y="-.028" style="color-interpolation-filters:sRGB"><feGaussianBlur stdDeviation=".23"/></filter><filter id="f" width="1.052" height="1.056" x="-.026" y="-.028" style="color-interpolation-filters:sRGB"><feGaussianBlur stdDeviation=".23"/></filter><radialGradient xlink:href="#b" id="e" cx="-2387.044" cy="-8829.98" r="11.137" fx="-2387.044" fy="-8829.98" gradientTransform="matrix(1 0 0 .93855 36.41 -531.812)" gradientUnits="userSpaceOnUse"/></defs><g transform="translate(2367.568 8836.138)"><rect width="33.867" height="33.867" x="-2367.568" y="-8836.138" fill="url(#linearGradient1340)" rx="6.737" ry="6.737" style="fill:url(#c);stroke-linecap:round;stroke-linejoin:round"/><path d="M-2357.54-8829.102h-1.062c-1.144 0-1.363.03-1.71.233-.246.144-.521.447-.665.731-.206.407-.24.693-.24 2.091v1.282h21.125l-.014-1.37-.014-1.371-.15-.306c-.288-.587-.942-1.085-1.613-1.227-.21-.045-.606-.064-1.356-.064h-1.06l-.013 1.084c-.013 1.038-.018 1.091-.113 1.244-.248.4-.867.4-1.116 0-.095-.153-.1-.206-.113-1.244l-.014-1.085h-10.51v.976c0 .536-.02 1.052-.041 1.146a.8.8 0 0 1-.193.324.653.653 0 0 1-1.003-.117c-.095-.153-.1-.206-.113-1.244zm-3.678 5.74.012 6.3.012 6.3.1.263c.15.394.379.698.678.897.144.097.275.178.29.178s.126.028.247.062c.185.053 1.622.063 9.114.053l8.895-.01.288-.098c.58-.197 1.122-.652 1.368-1.15l.14-.283.011-6.256.012-6.256h-10.583zm11.344 2.453.134.112c.206.174.232.333.216 1.341-.014.839-.021.916-.107 1.03a.6.6 0 0 1-.24.176c-.18.063-1.787.071-1.997.01a.6.6 0 0 1-.253-.175l-.113-.134v-.985c0-1.437-.062-1.374 1.375-1.374zm-6.202 0c.941 0 .987 0 1.103.095.215.17.242.306.24 1.23 0 .937-.043 1.13-.288 1.29-.107.07-.233.08-1.023.09-.495 0-.96-.01-1.034-.033a.65.65 0 0 1-.24-.154c-.107-.113-.108-.122-.121-1.117-.019-1.461-.079-1.4 1.363-1.4zm10.444 0h.001c1.432 0 1.372-.06 1.372 1.367 0 .89-.01.99-.085 1.117a.4.4 0 0 1-.252.186c-.165.046-1.792.058-1.962.015a.54.54 0 0 1-.358-.304c-.043-.105-.06-.379-.06-1.022 0-.96.027-1.094.242-1.264.116-.094.162-.094 1.103-.094zm-5.156 5.922c.855.014.906.02 1.04.116.2.143.23.309.23 1.258 0 .956-.031 1.128-.232 1.25-.127.084-.224.085-1.125.084-1.424 0-1.359.064-1.359-1.372v-.985l.113-.134c.173-.206.334-.232 1.333-.216zm5.081 0zc.976-.016 1.147.01 1.32.192l.106.114v2.138l-.121.122-.121.121-1.019.011c-1.1.012-1.151 0-1.32-.223-.085-.114-.092-.189-.105-1.058-.02-1.43-.05-1.396 1.26-1.417zm-10.382.014zc.948 0 1.008 0 1.125.091.197.147.23.309.23 1.242 0 .762-.01.87-.084 1.03a.7.7 0 0 1-.215.255c-.111.064-.256.075-1.085.074-1.387 0-1.33.055-1.33-1.343.002-1.404-.053-1.35 1.359-1.35z" style="opacity:.4;fill:#2e3440;fill-opacity:1;stroke-linecap:round;stroke-linejoin:round;filter:url(#d)"/><path d="M-2357.54-8829.102h-1.062c-1.144 0-1.363.03-1.71.233-.246.144-.521.447-.665.731-.206.407-.24.693-.24 2.091v1.282h21.125l-.014-1.37-.014-1.371-.15-.306c-.288-.587-.942-1.085-1.613-1.227-.21-.045-.606-.064-1.356-.064h-1.06l-.013 1.084c-.013 1.038-.018 1.091-.113 1.244-.248.4-.867.4-1.116 0-.095-.153-.1-.206-.113-1.244l-.014-1.085h-10.51v.976c0 .536-.02 1.052-.041 1.146a.8.8 0 0 1-.193.324.653.653 0 0 1-1.003-.117c-.095-.153-.1-.206-.113-1.244zm-3.678 5.74.012 6.3.012 6.3.1.263c.15.394.379.698.678.897.144.097.275.178.29.178s.126.028.247.062c.185.053 1.622.063 9.114.053l8.895-.01.288-.098c.58-.197 1.122-.652 1.368-1.15l.14-.283.011-6.256.012-6.256h-10.583zm11.344 2.453.134.112c.206.174.232.333.216 1.341-.014.839-.021.916-.107 1.03a.6.6 0 0 1-.24.176c-.18.063-1.787.071-1.997.01a.6.6 0 0 1-.253-.175l-.113-.134v-.985c0-1.437-.062-1.374 1.375-1.374zm-6.202 0c.941 0 .987 0 1.103.095.215.17.242.306.24 1.23 0 .937-.043 1.13-.288 1.29-.107.07-.233.08-1.023.09-.495 0-.96-.01-1.034-.033a.65.65 0 0 1-.24-.154c-.107-.113-.108-.122-.121-1.117-.019-1.461-.079-1.4 1.363-1.4zm10.444 0h.001c1.432 0 1.372-.06 1.372 1.367 0 .89-.01.99-.085 1.117a.4.4 0 0 1-.252.186c-.165.046-1.792.058-1.962.015a.54.54 0 0 1-.358-.304c-.043-.105-.06-.379-.06-1.022 0-.96.027-1.094.242-1.264.116-.094.162-.094 1.103-.094zm-5.156 5.922c.855.014.906.02 1.04.116.2.143.23.309.23 1.258 0 .956-.031 1.128-.232 1.25-.127.084-.224.085-1.125.084-1.424 0-1.359.064-1.359-1.372v-.985l.113-.134c.173-.206.334-.232 1.333-.216zm5.081 0zc.976-.016 1.147.01 1.32.192l.106.114v2.138l-.121.122-.121.121-1.019.011c-1.1.012-1.151 0-1.32-.223-.085-.114-.092-.189-.105-1.058-.02-1.43-.05-1.396 1.26-1.417zm-10.382.014zc.948 0 1.008 0 1.125.091.197.147.23.309.23 1.242 0 .762-.01.87-.084 1.03a.7.7 0 0 1-.215.255c-.111.064-.256.075-1.085.074-1.387 0-1.33.055-1.33-1.343.002-1.404-.053-1.35 1.359-1.35z" style="fill:#eceff4;fill-opacity:1;stroke-linecap:round;stroke-linejoin:round"/><path d="M-2357.54-8829.102h-1.062c-1.144 0-1.363.03-1.71.233-.246.144-.521.447-.665.731-.206.407-.24.693-.24 2.091v1.282h21.125l-.014-1.37-.014-1.371-.15-.306c-.288-.587-.942-1.085-1.613-1.227-.21-.045-.606-.064-1.356-.064h-1.06l-.013 1.084c-.013 1.038-.018 1.091-.113 1.244-.248.4-.867.4-1.116 0-.095-.153-.1-.206-.113-1.244l-.014-1.085h-10.51v.976c0 .536-.02 1.052-.041 1.146a.8.8 0 0 1-.193.324.653.653 0 0 1-1.003-.117c-.095-.153-.1-.206-.113-1.244zm-3.678 5.74.012 6.3.012 6.3.1.263c.15.394.379.698.678.897.144.097.275.178.29.178s.126.028.247.062c.185.053 1.622.063 9.114.053l8.895-.01.288-.098c.58-.197 1.122-.652 1.368-1.15l.14-.283.011-6.256.012-6.256h-10.583zm11.344 2.453.134.112c.206.174.232.333.216 1.341-.014.839-.021.916-.107 1.03a.6.6 0 0 1-.24.176c-.18.063-1.787.071-1.997.01a.6.6 0 0 1-.253-.175l-.113-.134v-.985c0-1.437-.062-1.374 1.375-1.374zm-6.202 0c.941 0 .987 0 1.103.095.215.17.242.306.24 1.23 0 .937-.043 1.13-.288 1.29-.107.07-.233.08-1.023.09-.495 0-.96-.01-1.034-.033a.65.65 0 0 1-.24-.154c-.107-.113-.108-.122-.121-1.117-.019-1.461-.079-1.4 1.363-1.4zm10.444 0h.001c1.432 0 1.372-.06 1.372 1.367 0 .89-.01.99-.085 1.117a.4.4 0 0 1-.252.186c-.165.046-1.792.058-1.962.015a.54.54 0 0 1-.358-.304c-.043-.105-.06-.379-.06-1.022 0-.96.027-1.094.242-1.264.116-.094.162-.094 1.103-.094zm-5.156 5.922c.855.014.906.02 1.04.116.2.143.23.309.23 1.258 0 .956-.031 1.128-.232 1.25-.127.084-.224.085-1.125.084-1.424 0-1.359.064-1.359-1.372v-.985l.113-.134c.173-.206.334-.232 1.333-.216zm5.081 0zc.976-.016 1.147.01 1.32.192l.106.114v2.138l-.121.122-.121.121-1.019.011c-1.1.012-1.151 0-1.32-.223-.085-.114-.092-.189-.105-1.058-.02-1.43-.05-1.396 1.26-1.417zm-10.382.014zc.948 0 1.008 0 1.125.091.197.147.23.309.23 1.242 0 .762-.01.87-.084 1.03a.7.7 0 0 1-.215.255c-.111.064-.256.075-1.085.074-1.387 0-1.33.055-1.33-1.343.002-1.404-.053-1.35 1.359-1.35z" style="opacity:.15;fill:url(#e);stroke-linecap:round;stroke-linejoin:round;filter:url(#f)"/></g></svg>