<svg xmlns="http://www.w3.org/2000/svg" xmlns:xlink="http://www.w3.org/1999/xlink" xml:space="preserve" width="128" height="128" viewBox="0 0 33.867 33.867"><defs><linearGradient id="b" x1="2.098" x2="16.936" y1="15.052" y2=".006" gradientTransform="translate(-2338.543 -8949.12)scale(2.24566)" gradientUnits="userSpaceOnUse"><stop offset="0" stop-color="#b48ead"/><stop offset=".375" stop-color="#b48ead"/><stop offset="1" stop-color="#88c0d0"/></linearGradient><linearGradient xlink:href="#b" id="d" x1="2.098" x2="16.936" y1="15.052" y2=".006" gradientTransform="translate(-2413.775 -8868.897)scale(2.24566)" gradientUnits="userSpaceOnUse"/><filter id="c" width="1.052" height="1.056" x="-.026" y="-.028" style="color-interpolation-filters:sRGB"><feGaussianBlur stdDeviation=".23"/></filter></defs><path fill="url(#a)" d="M-2396.787-8836.138a7.845 7.845 0 0 0-7.863 7.863v18.14a7.845 7.845 0 0 0 7.863 7.864h18.14a7.845 7.845 0 0 0 7.864-7.863v-18.141a7.845 7.845 0 0 0-7.863-7.863z" style="fill:#d8dee9;fill-opacity:1" transform="translate(2404.65 8836.138)"/><path d="M-2401.667-8859.779h-1.062c-1.143.001-1.363.03-1.709.234-.246.144-.521.447-.666.731-.205.407-.239.693-.24 2.091v1.282h21.126l-.014-1.37-.014-1.371-.15-.306c-.288-.588-.942-1.085-1.613-1.227-.21-.045-.606-.064-1.356-.064h-1.06l-.013 1.084c-.013 1.038-.018 1.091-.113 1.244-.249.4-.868.4-1.116 0-.095-.153-.1-.206-.113-1.244l-.014-1.085h-10.511v.975c0 .537-.019 1.053-.04 1.147a.8.8 0 0 1-.193.324.653.653 0 0 1-1.003-.117c-.095-.153-.1-.206-.113-1.244zm-3.677 5.74.012 6.302.012 6.299.1.262c.15.395.378.699.677.898.145.097.276.177.29.178.016 0 .127.028.247.062.185.053 1.623.063 9.114.053l8.895-.01.288-.098c.581-.197 1.123-.652 1.369-1.15l.14-.283.01-6.256.013-6.256h-10.584zm11.344 2.454.133.112c.206.174.232.333.216 1.341-.014.839-.02.916-.106 1.03a.6.6 0 0 1-.24.176c-.18.063-1.787.071-1.998.01a.6.6 0 0 1-.252-.175l-.113-.135v-.984c0-1.437-.062-1.375 1.375-1.375zm-6.202 0c.941 0 .987 0 1.103.095.215.17.241.306.24 1.23 0 .937-.043 1.13-.288 1.29-.107.07-.234.08-1.023.09-.495 0-.96-.01-1.034-.033a.65.65 0 0 1-.24-.154c-.107-.113-.108-.122-.121-1.117-.02-1.462-.08-1.4 1.363-1.4zm10.444 0c1.433 0 1.372-.06 1.372 1.367 0 .89-.01.99-.085 1.117a.4.4 0 0 1-.251.186h-.001c-.164.046-1.791.058-1.961.015a.54.54 0 0 1-.359-.304c-.043-.105-.059-.379-.059-1.022 0-.96.026-1.094.242-1.264.116-.095.162-.095 1.102-.095zm-5.156 5.922c.855.014.905.02 1.04.116.2.143.23.309.23 1.258 0 .956-.032 1.128-.232 1.25-.128.084-.224.085-1.125.084-1.424 0-1.359.064-1.359-1.373v-.985l.113-.133c.173-.206.333-.232 1.333-.216zm5.08 0c.977-.015 1.148.01 1.32.193l.107.114v2.139l-.121.12-.122.122-1.018.011c-1.1.012-1.152 0-1.32-.223-.085-.115-.092-.189-.105-1.058-.02-1.43-.05-1.396 1.26-1.417zm-10.381.014c.947 0 1.008 0 1.125.092.197.147.23.309.23 1.242 0 .762-.01.87-.084 1.03a.7.7 0 0 1-.215.255c-.111.064-.256.075-1.085.074-1.387 0-1.33.055-1.33-1.343.002-1.405-.053-1.35 1.359-1.35z" style="opacity:.4;fill:#2e3440;fill-opacity:1;stroke-linecap:round;stroke-linejoin:round;filter:url(#c)" transform="translate(2411.694 8866.814)"/><path d="M-2401.667-8859.779h-1.062c-1.143.001-1.363.03-1.71.234-.245.144-.52.447-.665.731-.205.407-.239.693-.24 2.091v1.282h21.126l-.014-1.37-.014-1.371-.15-.306c-.289-.588-.943-1.085-1.613-1.227-.21-.045-.606-.064-1.356-.064h-1.06l-.013 1.084c-.013 1.038-.018 1.091-.113 1.244-.249.4-.868.4-1.116 0-.095-.153-.1-.206-.113-1.244l-.014-1.085h-10.511v.975c0 .537-.019 1.053-.04 1.147a.8.8 0 0 1-.193.324.653.653 0 0 1-1.003-.117c-.095-.153-.1-.206-.113-1.244zm-3.677 5.74.012 6.302.012 6.299.1.262c.149.395.378.699.677.898.145.097.276.177.29.178.016 0 .127.028.247.062.185.053 1.623.063 9.114.053l8.895-.01.288-.098c.581-.197 1.123-.652 1.369-1.15l.14-.283.01-6.256.013-6.256h-10.584zm11.344 2.454.133.112c.206.174.232.333.216 1.341-.014.839-.02.916-.106 1.03a.6.6 0 0 1-.24.176c-.18.063-1.788.071-1.998.01a.6.6 0 0 1-.252-.175l-.113-.135v-.984c0-1.437-.062-1.375 1.375-1.375zm-6.202 0c.941 0 .987 0 1.103.095.214.17.241.306.24 1.23 0 .937-.044 1.13-.288 1.29-.107.07-.234.08-1.023.09-.495 0-.96-.01-1.034-.033a.65.65 0 0 1-.241-.154c-.106-.113-.107-.122-.12-1.117-.02-1.462-.08-1.4 1.363-1.4zm10.444 0c1.433 0 1.372-.06 1.372 1.367 0 .89-.01.99-.085 1.117a.4.4 0 0 1-.252.186c-.164.046-1.792.058-1.961.015a.54.54 0 0 1-.359-.304c-.043-.105-.059-.379-.059-1.022 0-.96.026-1.094.242-1.264.116-.095.162-.095 1.102-.095zm-5.156 5.922c.854.014.905.02 1.04.116.2.143.23.309.23 1.258 0 .956-.032 1.128-.232 1.25-.128.084-.224.085-1.125.084-1.424 0-1.36.064-1.36-1.373v-.985l.114-.133c.173-.206.333-.232 1.333-.216zm5.08 0c.977-.015 1.148.01 1.32.193l.107.114v2.139l-.121.12-.122.122-1.018.011c-1.1.012-1.152 0-1.32-.223-.085-.115-.092-.189-.105-1.058-.02-1.43-.05-1.396 1.26-1.417zm-10.382.014c.948 0 1.008 0 1.125.092.198.147.23.309.23 1.242 0 .762-.01.87-.083 1.03a.7.7 0 0 1-.215.255c-.111.064-.256.075-1.085.074-1.387 0-1.33.055-1.33-1.343.001-1.405-.053-1.35 1.359-1.35z" style="fill:url(#d);stroke-linecap:round;stroke-linejoin:round" transform="translate(2411.694 8866.814)"/></svg>