<svg xmlns="http://www.w3.org/2000/svg" xml:space="preserve" width="127.999" height="119.719" viewBox="0 0 33.866 31.676"><path d="M-2708.858-8850.88h-1.698c-1.83.002-2.18.049-2.735.374-.394.231-.835.715-1.065 1.17-.33.65-.383 1.109-.384 3.345v2.051h33.8l-.022-2.193-.022-2.192-.24-.49c-.461-.94-1.508-1.735-2.581-1.963-.335-.072-.97-.102-2.17-.102h-1.695l-.021 1.735c-.021 1.662-.03 1.746-.181 1.99-.398.64-1.388.64-1.785 0-.152-.244-.16-.328-.181-1.99l-.022-1.735h-16.817v1.56c0 .858-.03 1.684-.066 1.834-.037.16-.167.378-.307.519-.46.459-1.262.365-1.605-.187-.152-.245-.16-.33-.181-1.99zm-5.883 9.185.018 10.081.02 10.079.16.42c.239.631.606 1.117 1.084 1.436.23.155.44.284.464.285.024 0 .202.045.395.1.296.084 2.596.1 14.582.084l14.232-.016.46-.156c.93-.317 1.797-1.045 2.19-1.84l.224-.454.018-10.01.019-10.009h-16.933zm18.15 3.925.214.18c.33.278.37.533.345 2.146-.022 1.341-.034 1.464-.17 1.647a.96.96 0 0 1-.385.282c-.286.1-2.859.113-3.195.015a1 1 0 0 1-.404-.279l-.18-.216v-1.575c0-2.298-.1-2.199 2.199-2.199zm-9.923 0c1.506 0 1.58 0 1.765.153.343.27.386.489.385 1.966 0 1.5-.07 1.808-.462 2.065-.172.112-.374.127-1.637.143-.792 0-1.536-.016-1.654-.051a1.04 1.04 0 0 1-.385-.248c-.17-.18-.172-.195-.193-1.785-.03-2.34-.126-2.242 2.181-2.242zm16.71 0h.001c2.292 0 2.195-.097 2.195 2.187 0 1.425-.016 1.584-.136 1.788a.65.65 0 0 1-.403.298v-.001c-.263.074-2.867.093-3.139.024a.87.87 0 0 1-.573-.487c-.07-.167-.094-.606-.094-1.635 0-1.535.042-1.75.387-2.021.185-.152.258-.152 1.763-.152zm-8.25 9.476c1.368.022 1.45.032 1.664.185.321.229.37.494.37 2.012 0 1.53-.052 1.805-.372 2-.205.135-.36.137-1.801.135-2.278 0-2.174.102-2.174-2.196v-1.576l.18-.214c.278-.33.534-.371 2.134-.346zm8.13 0c1.561-.025 1.836.017 2.11.308l.172.182v3.421l-.194.195-.195.194-1.629.018c-1.76.019-1.843 0-2.112-.356-.136-.184-.147-.303-.168-1.694-.032-2.287-.08-2.234 2.016-2.268zm-16.611.022c1.516 0 1.612 0 1.8.146.316.235.368.494.368 1.987 0 1.22-.016 1.393-.134 1.65-.077.156-.23.34-.344.407-.178.103-.41.12-1.736.119-2.22 0-2.128.087-2.127-2.15 0-2.247-.086-2.159 2.173-2.159z" style="fill:#eceff4;fill-opacity:1;stroke-width:1.59997;stroke-linecap:round;stroke-linejoin:round" transform="translate(2714.742 8850.88)"/></svg>