<svg xmlns="http://www.w3.org/2000/svg" xmlns:xlink="http://www.w3.org/1999/xlink" xml:space="preserve" width="128" height="128" viewBox="0 0 33.867 33.867"><defs><linearGradient id="a" x1="8.501" x2="8.489" y1="16.007" y2=".794" gradientTransform="translate(-2432.889 -9112.37)scale(2.24565)" gradientUnits="userSpaceOnUse"><stop offset="0" stop-color="#2e3440"/><stop offset="1" stop-color="#4c566a"/></linearGradient><linearGradient xlink:href="#a" id="b" x1="8.501" x2="8.489" y1="16.007" y2=".794" gradientTransform="translate(-2332.827 -8838.219)scale(2.24565)" gradientUnits="userSpaceOnUse"/><filter id="c" width="1.052" height="1.056" x="-.026" y="-.028" style="color-interpolation-filters:sRGB"><feGaussianBlur stdDeviation=".23"/></filter></defs><g transform="translate(2330.746 8836.138)"><rect width="33.867" height="33.867" x="-2330.746" y="-8836.138" fill="url(#linearGradient1340)" rx="6.737" ry="6.737" style="fill:url(#b);stroke-linecap:round;stroke-linejoin:round"/><path d="M-2328.336-8856.638h-1.062c-1.143.001-1.363.03-1.71.234-.245.144-.52.447-.665.731-.206.407-.24.693-.24 2.091v1.282h21.126l-.014-1.37-.014-1.371-.15-.306c-.289-.588-.943-1.085-1.613-1.227-.21-.045-.607-.064-1.357-.064h-1.06l-.012 1.084c-.013 1.038-.018 1.091-.113 1.244-.249.4-.868.4-1.116 0-.095-.153-.1-.206-.113-1.244l-.014-1.085h-10.511v.975c0 .537-.019 1.053-.04 1.147a.8.8 0 0 1-.193.324.653.653 0 0 1-1.003-.117c-.095-.153-.1-.206-.113-1.244zm-3.678 5.74.012 6.302.012 6.299.1.262c.15.395.38.699.678.898.145.097.276.177.29.178.016 0 .127.028.247.062.185.053 1.623.063 9.114.053l8.895-.01.288-.098c.581-.197 1.123-.652 1.369-1.15l.14-.283.01-6.256.012-6.256h-10.583zm11.344 2.454.134.112c.206.174.232.333.216 1.341-.014.839-.02.916-.106 1.03a.6.6 0 0 1-.241.176c-.179.063-1.787.071-1.997.01a.6.6 0 0 1-.252-.175l-.113-.135v-.984c0-1.437-.062-1.375 1.374-1.375zm-6.201 0c.94 0 .987 0 1.103.095.214.17.241.306.24 1.23 0 .937-.044 1.13-.289 1.29-.107.07-.233.08-1.022.09-.495 0-.96-.01-1.034-.033a.65.65 0 0 1-.241-.154c-.107-.113-.107-.122-.12-1.117-.02-1.462-.08-1.4 1.363-1.4zm10.444 0c1.433 0 1.372-.06 1.372 1.367 0 .89-.01.99-.085 1.117a.4.4 0 0 1-.252.186c-.164.046-1.792.058-1.961.015a.54.54 0 0 1-.359-.304c-.043-.105-.059-.379-.059-1.022 0-.96.026-1.094.242-1.264.116-.095.162-.095 1.102-.095zm-5.156 5.922c.854.014.905.02 1.039.116.201.143.231.309.231 1.258 0 .956-.032 1.128-.232 1.25-.128.084-.225.085-1.126.084-1.423 0-1.358.064-1.358-1.373v-.985l.113-.133c.173-.206.333-.232 1.333-.216zm5.08 0c.977-.015 1.148.01 1.32.193l.107.114v2.139l-.122.12-.121.122-1.018.011c-1.1.012-1.152 0-1.32-.223-.085-.115-.092-.189-.105-1.058-.02-1.43-.05-1.396 1.26-1.417zm-10.382.014c.948 0 1.008 0 1.125.092.198.147.23.309.23 1.242 0 .762-.01.87-.083 1.03a.7.7 0 0 1-.215.255c-.111.064-.256.075-1.085.074-1.388 0-1.33.055-1.33-1.343.001-1.405-.054-1.35 1.359-1.35z" style="opacity:.4;fill:#eceff4;fill-opacity:1;stroke-linecap:round;stroke-linejoin:round;filter:url(#c)" transform="translate(7.617 27.535)"/><path d="M-2328.336-8856.638h-1.062c-1.143.001-1.363.03-1.71.234-.245.144-.52.447-.665.731-.206.407-.24.693-.24 2.091v1.282h21.126l-.014-1.37-.014-1.371-.15-.306c-.289-.588-.943-1.085-1.613-1.227-.21-.045-.607-.064-1.357-.064h-1.06l-.012 1.084c-.013 1.038-.018 1.091-.113 1.244-.249.4-.868.4-1.116 0-.095-.153-.1-.206-.113-1.244l-.014-1.085h-10.511v.975c0 .537-.019 1.053-.04 1.147a.8.8 0 0 1-.193.324.653.653 0 0 1-1.003-.117c-.095-.153-.1-.206-.113-1.244zm-3.678 5.74.012 6.302.012 6.299.1.262c.15.395.38.699.678.898.145.097.276.177.29.178.016 0 .127.028.247.062.185.053 1.623.063 9.114.053l8.895-.01.288-.098c.581-.197 1.123-.652 1.369-1.15l.14-.283.01-6.256.012-6.256h-10.583zm11.344 2.454.134.112c.206.174.232.333.216 1.341-.014.839-.02.916-.106 1.03a.6.6 0 0 1-.241.176c-.179.063-1.787.071-1.997.01a.6.6 0 0 1-.252-.175l-.113-.135v-.984c0-1.437-.062-1.375 1.374-1.375zm-6.201 0c.94 0 .987 0 1.103.095.214.17.241.306.24 1.23 0 .937-.044 1.13-.289 1.29-.107.07-.233.08-1.022.09-.495 0-.96-.01-1.034-.033a.65.65 0 0 1-.241-.154c-.107-.113-.107-.122-.12-1.117-.02-1.462-.08-1.4 1.363-1.4zm10.444 0c1.433 0 1.372-.06 1.372 1.367 0 .89-.01.99-.085 1.117a.4.4 0 0 1-.252.186c-.164.046-1.792.058-1.961.015a.54.54 0 0 1-.359-.304c-.043-.105-.059-.379-.059-1.022 0-.96.026-1.094.242-1.264.116-.095.162-.095 1.102-.095zm-5.156 5.922c.854.014.905.02 1.039.116.201.143.231.309.231 1.258 0 .956-.032 1.128-.232 1.25-.128.084-.225.085-1.126.084-1.423 0-1.358.064-1.358-1.373v-.985l.113-.133c.173-.206.333-.232 1.333-.216zm5.08 0c.977-.015 1.148.01 1.32.193l.107.114v2.139l-.122.12-.121.122-1.018.011c-1.1.012-1.152 0-1.32-.223-.085-.115-.092-.189-.105-1.058-.02-1.43-.05-1.396 1.26-1.417zm-10.382.014c.948 0 1.008 0 1.125.092.198.147.23.309.23 1.242 0 .762-.01.87-.083 1.03a.7.7 0 0 1-.215.255c-.111.064-.256.075-1.085.074-1.388 0-1.33.055-1.33-1.343.001-1.405-.054-1.35 1.359-1.35z" style="fill:#eceff4;fill-opacity:1;stroke-linecap:round;stroke-linejoin:round" transform="translate(7.617 27.535)"/></g></svg>