<svg xmlns="http://www.w3.org/2000/svg" xml:space="preserve" width="128" height="119.719" viewBox="0 0 33.867 31.676"><path d="M-2772.084-8848.634h-1.699c-1.83 0-2.18.047-2.735.373-.394.231-.834.715-1.065 1.17-.329.65-.383 1.108-.383 3.345v2.05h33.8l-.023-2.192-.022-2.192-.24-.49c-.461-.94-1.507-1.736-2.58-1.963-.336-.072-.97-.102-2.17-.102h-1.696l-.02 1.735c-.022 1.662-.03 1.746-.182 1.99-.397.64-1.388.64-1.785 0-.152-.244-.16-.328-.181-1.99l-.022-1.735h-16.817v1.56c0 .858-.03 1.684-.066 1.834-.037.16-.166.378-.307.518-.46.46-1.261.366-1.605-.187-.152-.244-.16-.328-.18-1.99zm-5.884 9.184.019 10.081.019 10.079.16.42c.24.63.606 1.117 1.084 1.436.231.155.44.284.465.285.024 0 .202.045.394.1h.001c.296.084 2.595.1 14.582.084l14.231-.016.461-.157c.93-.316 1.796-1.044 2.19-1.84l.223-.453.018-10.01.02-10.009h-16.934zm18.15 3.925.214.18c.33.277.371.532.346 2.145-.022 1.342-.034 1.465-.17 1.648a.96.96 0 0 1-.386.281c-.286.101-2.858.114-3.195.016a1 1 0 0 1-.403-.28l-.181-.215v-1.575c0-2.299-.1-2.2 2.2-2.2zm-9.922 0c1.505 0 1.579 0 1.764.152.344.27.387.49.385 1.967 0 1.5-.07 1.808-.462 2.065-.171.112-.373.126-1.636.142-.793 0-1.536-.016-1.655-.05a1.04 1.04 0 0 1-.385-.248c-.17-.18-.172-.195-.193-1.786-.03-2.339-.126-2.241 2.181-2.241zm16.71 0c2.292 0 2.195-.098 2.195 2.187 0 1.425-.016 1.584-.136 1.788a.65.65 0 0 1-.403.297c-.263.074-2.867.093-3.138.024a.87.87 0 0 1-.574-.487c-.069-.168-.094-.606-.094-1.635 0-1.535.042-1.75.387-2.021.185-.152.259-.152 1.764-.152zm-8.25 9.476c1.368.022 1.449.032 1.663.185.322.229.37.494.37 2.012 0 1.53-.051 1.805-.372 2-.204.135-.359.136-1.8.135-2.278 0-2.174.102-2.174-2.196v-1.576l.18-.214c.277-.33.534-.371 2.133-.346zm8.13 0c1.56-.026 1.835.016 2.11.308l.171.182v3.421l-.194.195-.194.194-1.63.018c-1.76.019-1.842 0-2.112-.357-.136-.183-.147-.302-.167-1.693-.032-2.287-.08-2.234 2.015-2.268zm-16.612.022c1.516 0 1.613 0 1.8.146.316.235.369.494.369 1.987 0 1.219-.016 1.393-.135 1.65-.077.156-.23.34-.344.407-.178.102-.409.12-1.736.118-2.22 0-2.128.088-2.126-2.15 0-2.246-.086-2.158 2.172-2.158z" style="opacity:.4;fill:#d8dee9;fill-opacity:1;stroke-width:1.59997;stroke-linecap:round;stroke-linejoin:round" transform="translate(2777.968 8848.635)"/></svg>