<svg xmlns="http://www.w3.org/2000/svg" xmlns:xlink="http://www.w3.org/1999/xlink" xml:space="preserve" width="128" height="128" viewBox="0 0 33.867 33.867"><defs><linearGradient id="a"><stop offset="0" style="stop-color:#4c566a;stop-opacity:1"/><stop offset="1" style="stop-color:#4c566a;stop-opacity:0"/></linearGradient><linearGradient xlink:href="#a" id="e" x1="-2366.37" x2="-2354.596" y1="-9096.211" y2="-9075.818" gradientTransform="translate(-4.378 -9.989)" gradientUnits="userSpaceOnUse"/><linearGradient id="b" x1="8.501" x2="8.489" y1="16.007" y2=".794" gradientTransform="translate(-2432.889 -9112.37)scale(2.24565)" gradientUnits="userSpaceOnUse"><stop offset="0" stop-color="#2e3440"/><stop offset="1" stop-color="#4c566a"/></linearGradient><linearGradient xlink:href="#b" id="c" x1="8.501" x2="8.489" y1="16.007" y2=".794" gradientTransform="translate(-2495.883 -9151.313)scale(2.24565)" gradientUnits="userSpaceOnUse"/><filter id="d" width="1.047" height="1.064" x="-.023" y="-.032" style="color-interpolation-filters:sRGB"><feGaussianBlur stdDeviation=".219"/></filter><filter id="f" width="1.047" height="1.064" x="-.023" y="-.032" style="color-interpolation-filters:sRGB"><feGaussianBlur stdDeviation=".219"/></filter></defs><g transform="translate(2493.803 9149.234)"><rect width="33.867" height="33.867" x="-2493.803" y="-9149.233" fill="url(#linearGradient1340)" rx="6.737" ry="6.737" style="fill:url(#c);stroke-linecap:round;stroke-linejoin:round"/><path d="M-2355.865-9104.25q-.796 0-1.593.656l-10.401 10.401-4.404-4.404q-1.594-1.312-3.187 0-1.311 1.593 0 3.186l5.998 5.997q1.593 1.313 3.186 0l11.994-11.994q1.313-1.593 0-3.186-.796-.656-1.593-.656" style="opacity:.4;mix-blend-mode:normal;fill:#eceff4;fill-opacity:1;stroke-width:.0661457;filter:url(#d)" transform="translate(-112.009 -36.296)"/><path d="M-2355.865-9104.25q-.796 0-1.593.656l-10.401 10.401-4.404-4.404q-1.594-1.312-3.187 0-1.311 1.593 0 3.186l5.998 5.997q1.593 1.313 3.186 0l11.994-11.994q1.313-1.593 0-3.186-.796-.656-1.593-.656" style="fill:#eceff4;fill-opacity:1;stroke-width:.0661457" transform="translate(-112.009 -36.296)"/><path d="M-2355.865-9104.25q-.796 0-1.593.656l-10.401 10.401-4.404-4.404q-1.594-1.312-3.187 0-1.311 1.593 0 3.186l5.998 5.997q1.593 1.313 3.186 0l11.994-11.994q1.313-1.593 0-3.186-.796-.656-1.593-.656" style="opacity:.15;mix-blend-mode:normal;fill:url(#e);stroke-width:.0661457;filter:url(#f)" transform="translate(-112.009 -36.296)"/></g></svg>