<svg xmlns="http://www.w3.org/2000/svg" xmlns:xlink="http://www.w3.org/1999/xlink" xml:space="preserve" width="127.999" height="128" viewBox="0 0 33.866 33.867"><defs><linearGradient id="a" x1="30.79" x2="30.79" y1="-6.397" y2="211.48" gradientTransform="translate(-2426.836 -9154.044)scale(.14514)" gradientUnits="userSpaceOnUse"><stop offset="0" stop-color="#a3be8c"/><stop offset="1" stop-color="#8fbcbb"/></linearGradient><linearGradient xlink:href="#a" id="b" x1="30.79" x2="30.79" y1="-6.397" y2="211.48" gradientTransform="translate(-2426.836 -9154.044)scale(.14514)" gradientUnits="userSpaceOnUse"/><filter id="c" width="1.071" height="1.096" x="-.035" y="-.048" style="color-interpolation-filters:sRGB"><feGaussianBlur stdDeviation=".331"/></filter></defs><path fill="url(#a)" d="M-2421.392-9156.445a7.845 7.845 0 0 0-7.863 7.863v18.141a7.845 7.845 0 0 0 7.863 7.863h18.14a7.845 7.845 0 0 0 7.864-7.863v-18.14a7.845 7.845 0 0 0-7.863-7.864z" style="fill:url(#b)" transform="translate(2429.255 9156.445)"/><path d="M-2368.906-9116.102q-.796 0-1.593.655l-10.402 10.402-4.403-4.405q-1.594-1.311-3.187 0-1.311 1.594 0 3.187l5.998 5.997q1.593 1.313 3.186 0l11.994-11.995q1.313-1.593 0-3.186-.796-.655-1.593-.655" style="opacity:.210046;mix-blend-mode:normal;fill:#2e3440;fill-opacity:1;stroke-width:.0661457;filter:url(#c)" transform="translate(2394.835 9124.79)"/><path d="M-2368.906-9116.102q-.796 0-1.593.655l-10.402 10.402-4.403-4.405q-1.594-1.311-3.187 0-1.311 1.594 0 3.187l5.998 5.997q1.593 1.313 3.186 0l11.994-11.995q1.313-1.593 0-3.186-.796-.655-1.593-.655" style="fill:#eceff4;fill-opacity:1;stroke-width:.0661457" transform="translate(2394.835 9124.79)"/></svg>