<svg xmlns="http://www.w3.org/2000/svg" viewBox="0 0 24 24"><path fill="#d8dee9" d="M20 17.12q0 1.224-.902 2.052-.904.827-2.242.827a3.85 3.85 0 0 1-2.686-1.046l-8.881-8.129Q4 9.621 4 7.988q0-1.664 1.257-2.829 1.257-1.16 3.073-1.16c1.207 0 2.245.394 3.123 1.182l6.915 6.346c.075.072.115.147.115.233q0 .165-.351.487-.348.318-.53.319a.38.38 0 0 1-.261-.104l-6.929-6.356q-.902-.807-2.066-.809-1.212.002-2.048.788-.833.783-.834 1.894 0 1.1.87 1.894l8.87 8.14q.72.657 1.654.659c.491 0 .892-.147 1.214-.44q.48-.44.48-1.11 0-.859-.72-1.518L11.189 9.52a1.02 1.02 0 0 0-.684-.251.77.77 0 0 0-.548.197.65.65 0 0 0-.218.505c0 .222.097.43.286.616l4.684 4.294q.117.106.115.233 0 .168-.355.491-.354.324-.537.326a.36.36 0 0 1-.251-.107L8.997 11.53q-.72-.637-.72-1.558 0-.86.648-1.457.656-.595 1.59-.594 1.005-.001 1.705.659l6.639 6.084q1.143 1.026 1.142 2.46"/></svg>