<svg xmlns="http://www.w3.org/2000/svg" viewBox="0 0 24 24"><rect width="11.771" height="5.329" x="5" y="14.671" fill="#d8dee9" rx="3.382" ry="2.665"/><path fill="#d8dee9" d="M5 10.04h11.771v7.334H5z"/><path fill="#d8dee9" d="M16.174 11.802q.97 0 1.534.66.56.654.56 1.797 0 1.175-.54 1.817-.543.64-1.546.64-.617 0-1.406-.226v.61q.613.233 1.51.233 1.302 0 2.01-.802.705-.803.705-2.28 0-.927-.338-1.622a2.5 2.5 0 0 0-.983-1.073q-.644-.376-1.515-.376-.926 0-1.619.344l.29.598q.67-.32 1.337-.32"/><g fill="#d8dee9"><path d="M7.536 4.006c.018-.046-.634.178-1.014.375-.188.098-.61.422-.72.546a1.7 1.7 0 0 0-.278.422c-.067.15-.118.311-.127.47s.01.331.071.482c.063.155.181.3.299.432.12.135.283.248.417.375.132.124.282.238.382.379s.179.304.215.465c.033.146.021.306-.008.453-.03.146-.088.295-.167.428-.084.14-.194.278-.322.392-.14.125-.5.282-.486.329.014.043.56-.123.74-.188.156-.056.566-.253.696-.352.125-.094.255-.189.354-.301.095-.109.189-.234.227-.362a1 1 0 0 0 .012-.449 1.6 1.6 0 0 0-.187-.472 3 3 0 0 0-.306-.422c-.114-.137-.244-.264-.37-.392-.123-.125-.276-.233-.378-.369-.105-.14-.219-.297-.247-.456-.026-.149.026-.318.084-.465.06-.153.167-.297.274-.432.1-.127.233-.236.346-.355.167-.176.449-.414.493-.533zM11.216 4.006c.017-.046-.635.178-1.015.375-.188.098-.61.422-.72.546a1.7 1.7 0 0 0-.278.422c-.067.15-.118.311-.127.47s.01.331.072.482c.062.155.18.3.298.432.12.135.283.248.417.375.132.124.283.238.382.379s.179.304.215.465c.033.146.021.306-.008.453-.03.146-.087.295-.167.428-.084.14-.194.278-.322.392-.14.125-.5.282-.485.329.013.043.56-.123.74-.188.155-.056.565-.253.695-.352.125-.094.255-.189.354-.301.095-.109.189-.234.227-.362a1 1 0 0 0 .012-.449 1.6 1.6 0 0 0-.187-.472 3 3 0 0 0-.306-.422c-.114-.137-.244-.264-.37-.392-.123-.125-.276-.233-.378-.369-.105-.14-.219-.297-.247-.456-.026-.149.026-.318.084-.465.06-.153.167-.297.274-.432.1-.127.233-.236.346-.355.167-.176.449-.414.493-.533zM14.893 4.006c.018-.046-.634.178-1.014.375-.188.098-.61.422-.72.546a1.7 1.7 0 0 0-.278.422c-.068.15-.118.311-.127.47s.01.331.071.482c.063.155.181.3.299.432.12.135.283.248.417.375.132.124.282.238.382.379s.178.304.215.465c.033.146.021.306-.008.453-.03.146-.088.295-.167.428-.084.14-.194.278-.322.392-.14.125-.5.282-.486.329.014.043.56-.123.74-.188.155-.056.566-.253.696-.352.125-.094.255-.189.354-.301.095-.109.189-.234.227-.362a1 1 0 0 0 .012-.449 1.6 1.6 0 0 0-.187-.472 3 3 0 0 0-.307-.422c-.113-.137-.243-.264-.37-.392-.123-.125-.275-.233-.377-.369-.105-.14-.219-.297-.247-.456-.026-.149.026-.318.084-.465.06-.153.167-.297.274-.432.1-.127.233-.236.346-.355.166-.176.449-.414.493-.533z"/></g></svg>