<svg xmlns="http://www.w3.org/2000/svg" xmlns:xlink="http://www.w3.org/1999/xlink" xml:space="preserve" width="127.999" height="128" viewBox="0 0 33.866 33.867"><defs><linearGradient id="c"><stop offset="0" style="stop-color:#bf616a;stop-opacity:1"/><stop offset="1" style="stop-color:#bf616a;stop-opacity:0"/></linearGradient><linearGradient id="b" x1="30.79" x2="30.79" y1="-6.397" y2="568.59" gradientTransform="translate(-2334.043 -9046.236)scale(.14514)" gradientUnits="userSpaceOnUse"><stop offset="0" stop-color="#a3be8c" style="stop-color:#bf616a;stop-opacity:1"/><stop offset="1" stop-color="#8fbcbb" style="stop-color:#4c566a;stop-opacity:1"/></linearGradient><linearGradient xlink:href="#b" id="d" x1="30.79" x2="30.79" y1="-6.397" y2="568.59" gradientTransform="translate(-2351.43 -8956.504)scale(.14514)" gradientUnits="userSpaceOnUse"/><linearGradient xlink:href="#c" id="f" x1="-2353.159" x2="-2335.269" y1="-8982.671" y2="-8967.12" gradientTransform="translate(7.298 32.925)" gradientUnits="userSpaceOnUse"/><filter id="e" width="1.054" height="1.054" x="-.027" y="-.027" style="color-interpolation-filters:sRGB"><feGaussianBlur stdDeviation=".253"/></filter><filter id="g" width="1.054" height="1.054" x="-.027" y="-.027" style="color-interpolation-filters:sRGB"><feGaussianBlur stdDeviation=".253"/></filter></defs><path fill="url(#a)" d="M-2345.987-8958.904a7.845 7.845 0 0 0-7.863 7.863v18.14a7.845 7.845 0 0 0 7.863 7.863h18.14a7.845 7.845 0 0 0 7.864-7.862v-18.141a7.845 7.845 0 0 0-7.863-7.863z" style="fill:url(#d)" transform="translate(2353.85 8958.904)"/><path d="M-2345.094-8953.216q-1.087 0-2.173.895-1.79 2.172 0 4.344l6.006 6.006-6.006 6.006q-1.79 2.172 0 4.344 2.172 1.79 4.344 0l6.006-6.005 6.006 6.005q2.172 1.79 4.345 0 1.788-2.172 0-4.344l-6.006-6.006 6.006-6.006q1.788-2.172 0-4.344-2.173-1.79-4.345 0l-6.006 6.006-6.006-6.006q-1.085-.895-2.171-.895" style="opacity:.4;fill:#2e3440;fill-opacity:1;filter:url(#e)" transform="translate(2353.85 8958.904)"/><path d="M-2345.094-8953.216q-1.087 0-2.173.895-1.79 2.172 0 4.344l6.006 6.006-6.006 6.006q-1.79 2.172 0 4.344 2.172 1.79 4.344 0l6.006-6.005 6.006 6.005q2.172 1.79 4.345 0 1.788-2.172 0-4.344l-6.006-6.006 6.006-6.006q1.788-2.172 0-4.344-2.173-1.79-4.345 0l-6.006 6.006-6.006-6.006q-1.085-.895-2.171-.895" style="fill:#eceff4;fill-opacity:1" transform="translate(2353.85 8958.904)"/><path d="M-2345.094-8953.216q-1.087 0-2.173.895-1.788 2.172 0 4.344l6.006 6.006-6.006 6.006q-1.788 2.172 0 4.344 2.172 1.79 4.344 0l6.006-6.005 6.006 6.005q2.172 1.79 4.345 0 1.788-2.172 0-4.344l-6.006-6.006 6.006-6.006q1.788-2.172 0-4.344-2.173-1.79-4.345 0l-6.006 6.006-6.006-6.006q-1.085-.895-2.171-.895" style="opacity:.15;fill:url(#f);filter:url(#g)" transform="translate(2353.85 8958.904)"/></svg>