<svg xmlns="http://www.w3.org/2000/svg" xmlns:xlink="http://www.w3.org/1999/xlink" xml:space="preserve" width="128" height="128" viewBox="0 0 33.867 33.867"><defs><linearGradient id="b" x1="30.79" x2="30.79" y1="-6.397" y2="568.59" gradientTransform="translate(-2334.043 -9046.236)scale(.14514)" gradientUnits="userSpaceOnUse"><stop offset="0" stop-color="#a3be8c" style="stop-color:#bf616a;stop-opacity:1"/><stop offset="1" stop-color="#8fbcbb" style="stop-color:#4c566a;stop-opacity:1"/></linearGradient><linearGradient xlink:href="#b" id="d" x1="30.79" x2="30.79" y1="-6.397" y2="568.59" gradientTransform="translate(-2387.414 -8956.958)scale(.14514)" gradientUnits="userSpaceOnUse"/><filter id="c" width="1.054" height="1.054" x="-.027" y="-.027" style="color-interpolation-filters:sRGB"><feGaussianBlur stdDeviation=".253"/></filter></defs><path fill="url(#a)" d="M-2381.97-8959.359a7.845 7.845 0 0 0-7.863 7.863v18.141a7.845 7.845 0 0 0 7.863 7.863h18.14a7.845 7.845 0 0 0 7.863-7.863v-18.14a7.845 7.845 0 0 0-7.862-7.864z" style="fill:#d8dee9;fill-opacity:1" transform="translate(2389.833 8959.359)"/><path d="M-2381.078-8953.67q-1.086 0-2.172.894-1.79 2.173 0 4.345l6.005 6.006-6.005 6.005q-1.79 2.173 0 4.345 2.172 1.79 4.344 0l6.006-6.006 6.006 6.006q2.172 1.79 4.344 0 1.79-2.172 0-4.344l-6.006-6.006 6.006-6.006q1.79-2.172 0-4.345-2.172-1.788-4.344 0l-6.006 6.006-6.006-6.006q-1.086-.894-2.172-.894" style="opacity:.4;fill:#2e3440;fill-opacity:1;filter:url(#c)" transform="translate(2389.833 8959.359)"/><path d="M-2381.078-8953.67q-1.086 0-2.172.894-1.79 2.173 0 4.345l6.005 6.006-6.005 6.005q-1.79 2.173 0 4.345 2.172 1.79 4.344 0l6.006-6.006 6.006 6.006q2.172 1.79 4.344 0 1.79-2.172 0-4.344l-6.006-6.006 6.006-6.006q1.79-2.172 0-4.345-2.172-1.788-4.344 0l-6.006 6.006-6.006-6.006q-1.086-.894-2.172-.894" style="fill:url(#d)" transform="translate(2389.833 8959.359)"/></svg>