<svg xmlns="http://www.w3.org/2000/svg" xmlns:xlink="http://www.w3.org/1999/xlink" xml:space="preserve" width="128" height="128" viewBox="0 0 33.867 33.867"><defs><linearGradient id="a" x1="30.79" x2="30.79" y1="-6.397" y2="568.59" gradientTransform="translate(-2334.043 -9046.236)scale(.14514)" gradientUnits="userSpaceOnUse"><stop offset="0" stop-color="#a3be8c" style="stop-color:#bf616a;stop-opacity:1"/><stop offset="1" stop-color="#8fbcbb" style="stop-color:#4c566a;stop-opacity:1"/></linearGradient><linearGradient xlink:href="#a" id="b" x1="30.79" x2="30.79" y1="-6.397" y2="568.59" gradientTransform="translate(-2660.686 -9035.342)scale(.21856)" gradientUnits="userSpaceOnUse"/></defs><path d="M-2651.145-9030.39q-1.635 0-3.272 1.347-2.694 3.27 0 6.542l9.044 9.044-9.044 9.044q-2.694 3.271 0 6.543 3.272 2.694 6.543 0l9.044-9.044 9.044 9.044q3.27 2.694 6.542 0 2.694-3.271 0-6.543l-9.044-9.044 9.044-9.044q2.694-3.27 0-6.542-3.27-2.694-6.542 0l-9.044 9.044-9.044-9.044q-1.635-1.347-3.271-1.347" style="fill:url(#b);stroke-width:1.50589" transform="translate(2655.763 9030.39)"/></svg>