<svg xmlns="http://www.w3.org/2000/svg" xmlns:xlink="http://www.w3.org/1999/xlink" xml:space="preserve" width="128" height="128" viewBox="0 0 33.867 33.867"><defs><linearGradient id="a" x1="8.501" x2="8.489" y1="16.007" y2=".794" gradientTransform="translate(-2432.889 -9112.37)scale(2.24565)" gradientUnits="userSpaceOnUse"><stop offset="0" stop-color="#2e3440"/><stop offset="1" stop-color="#4c566a"/></linearGradient><linearGradient xlink:href="#a" id="b" x1="8.501" x2="8.489" y1="16.007" y2=".794" gradientTransform="translate(-2322.064 -8960.985)scale(2.24565)" gradientUnits="userSpaceOnUse"/><filter id="c" width="1.054" height="1.054" x="-.027" y="-.027" style="color-interpolation-filters:sRGB"><feGaussianBlur stdDeviation=".253"/></filter></defs><g transform="translate(2319.983 8958.904)"><rect width="33.867" height="33.867" x="-2319.983" y="-8958.904" fill="url(#linearGradient1340)" rx="6.737" ry="6.737" style="fill:url(#b);stroke-linecap:round;stroke-linejoin:round"/><path d="M-2311.228-8953.216q-1.086 0-2.172.895-1.79 2.172 0 4.344l6.005 6.006-6.005 6.006q-1.79 2.172 0 4.344 2.172 1.79 4.344 0l6.006-6.006 6.006 6.006q2.172 1.79 4.344 0 1.79-2.172 0-4.344l-6.006-6.006 6.006-6.006q1.79-2.172 0-4.344-2.172-1.79-4.344 0l-6.006 6.006-6.006-6.006q-1.086-.895-2.172-.895" style="opacity:.4;fill:#eceff4;fill-opacity:1;filter:url(#c)"/><path d="M-2311.228-8953.216q-1.086 0-2.172.895-1.79 2.172 0 4.344l6.005 6.006-6.005 6.006q-1.79 2.172 0 4.344 2.172 1.79 4.344 0l6.006-6.006 6.006 6.006q2.172 1.79 4.344 0 1.79-2.172 0-4.344l-6.006-6.006 6.006-6.006q1.79-2.172 0-4.344-2.172-1.79-4.344 0l-6.006 6.006-6.006-6.006q-1.086-.895-2.172-.895" style="fill:#eceff4;fill-opacity:1"/></g></svg>