<svg xmlns="http://www.w3.org/2000/svg" viewBox="0 0 135.467 135.467"><path d="M55.034 0a8.45 8.45 0 0 0-8.467 8.466v8.467H8.47a4.224 4.224 0 0 0-4.233 4.233 4.224 4.224 0 0 0 4.233 4.233h4.216l4.63 93.647c.519 8.598 7.672 16.42 16.916 16.42h67.004c9.245 0 16.398-7.822 16.916-16.42l4.63-93.647h4.217a4.224 4.224 0 0 0 4.233-4.233 4.224 4.224 0 0 0-4.233-4.233h-38.1V8.466A8.45 8.45 0 0 0 80.433 0zm0 8.466h25.4v8.467h-25.4ZM21.168 25.4h93.13l-4.596 93.13c-.282 4.682-3.776 8.467-8.467 8.467H34.231c-4.69 0-8.184-3.785-8.466-8.466zm21.166 16.933a4.224 4.224 0 0 0-4.233 4.233v59.265a4.224 4.224 0 0 0 4.233 4.233 4.224 4.224 0 0 0 4.233-4.233V46.565a4.224 4.224 0 0 0-4.233-4.233m25.4 0a4.224 4.224 0 0 0-4.234 4.233v59.265a4.224 4.224 0 0 0 4.234 4.233 4.224 4.224 0 0 0 4.233-4.233V46.565a4.224 4.224 0 0 0-4.233-4.233m25.399 0a4.224 4.224 0 0 0-4.234 4.233v59.265a4.224 4.224 0 0 0 4.234 4.233 4.224 4.224 0 0 0 4.233-4.233V46.565a4.224 4.224 0 0 0-4.233-4.233"/>/&gt;</svg>