<svg xmlns="http://www.w3.org/2000/svg" width="64" height="64" viewBox="0 0 16.933 16.933"><path fill="#5865f2" d="M13.758 3.175a14 14 0 0 0-3.387-1.058.05.05 0 0 0-.042.024c-.148.277-.31.64-.423.926a12.6 12.6 0 0 0-3.805 0 9 9 0 0 0-.429-.926.07.07 0 0 0-.042-.024 14 14 0 0 0-3.387 1.058.1.1 0 0 0-.02.024C.052 6.437-.544 9.596-.253 12.717a.08.08 0 0 0 .027.048A13.9 13.9 0 0 0 3.95 14.87q.026.006.042-.01.35-.478.625-1c.01-.02.002-.043-.016-.048a9 9 0 0 1-1.302-.622c-.021-.013-.024-.045-.005-.061a7 7 0 0 0 .256-.204.04.04 0 0 1 .037-.005c2.73 1.243 5.689 1.243 8.388 0q.02-.01.037.003.125.102.256.206c.019.013.016.048-.002.06q-.619.366-1.305.62c-.018.005-.023.032-.013.048q.279.523.622 1 .016.02.042.013a13.8 13.8 0 0 0 4.18-2.108.07.07 0 0 0 .024-.045c.35-3.614-.584-6.752-2.476-9.534a.1.1 0 0 0-.021-.024zm-8.572 7.647c-.823 0-1.5-.755-1.5-1.683 0-.929.661-1.683 1.5-1.683.846 0 1.516.762 1.5 1.683 0 .928-.662 1.683-1.5 1.683m5.556 0c-.823 0-1.5-.755-1.5-1.683 0-.929.661-1.683 1.5-1.683.846 0 1.516.762 1.5 1.683 0 .928-.654 1.683-1.5 1.683"/></svg>