<svg xmlns="http://www.w3.org/2000/svg" xml:space="preserve" id="svg1" width="128" height="126.906" viewBox="0 0 33.867 33.577"><defs id="defs1"><linearGradient id="swatch59"><stop id="stop59" offset="0" style="stop-color:#92bcba;stop-opacity:1"/></linearGradient><style id="style1-6">.st0{fill:#f05133}</style></defs><g id="layer1" transform="translate(2274.337 9393.685)"><g id="g68" transform="translate(1117.15 4751.567)scale(1.51176)"><path id="path1-3-4-6" d="M-2233.31-9342.685c.292.293.698.461 1.113.461.414 0 .82-.168 1.114-.461l5.118-5.118a1.574 1.574 0 1 0-2.228-2.227l-2.429 2.429v-7.616a1.575 1.575 0 0 0-3.15 0v7.615l-2.428-2.428a1.575 1.575 0 1 0-2.228 2.228z" class="st0" style="fill:#eceff4;fill-opacity:1;stroke:none;stroke-width:.0875083;stroke-linecap:round;stroke-linejoin:round;stroke-miterlimit:10"/><path id="path2-6-7-1" d="M-2222.682-9340.123h-6.128a3.716 3.716 0 0 1-6.773 0h-6.128c-.932 0-1.687.755-1.687 1.686v2.169c0 .932.756 1.687 1.687 1.687h19.028c.932 0 1.687-.755 1.687-1.687v-2.169c0-.931-.755-1.686-1.686-1.686" class="st0" style="fill:#eceff4;fill-opacity:1;stroke:none;stroke-width:.0875083;stroke-linecap:round;stroke-linejoin:round;stroke-miterlimit:10"/></g></g></svg>