<?xml version="1.0" encoding="UTF-8" standalone="no"?>
<svg
   width="64"
   height="64"
   version="1.1"
   viewBox="0 0 16.933 16.933"
   id="svg22"
   sodipodi:docname="lutris (Copy).svg"
   xml:space="preserve"
   inkscape:version="1.4.2 (ebf0e940d0, 2025-05-08)"
   xmlns:inkscape="http://www.inkscape.org/namespaces/inkscape"
   xmlns:sodipodi="http://sodipodi.sourceforge.net/DTD/sodipodi-0.dtd"
   xmlns:xlink="http://www.w3.org/1999/xlink"
   xmlns="http://www.w3.org/2000/svg"
   xmlns:svg="http://www.w3.org/2000/svg"><sodipodi:namedview
     id="namedview22"
     pagecolor="#505050"
     bordercolor="#eeeeee"
     borderopacity="1"
     inkscape:showpageshadow="0"
     inkscape:pageopacity="0"
     inkscape:pagecheckerboard="0"
     inkscape:deskcolor="#505050"
     inkscape:zoom="6.5296892"
     inkscape:cx="35.300302"
     inkscape:cy="37.520928"
     inkscape:window-width="1615"
     inkscape:window-height="1368"
     inkscape:window-x="0"
     inkscape:window-y="0"
     inkscape:window-maximized="1"
     inkscape:current-layer="svg22" /><defs
     id="defs8"><linearGradient
       id="linearGradient29"
       inkscape:collect="always"><stop
         style="stop-color:#d08770;stop-opacity:1;"
         offset="0"
         id="stop29" /><stop
         style="stop-color:#d08770;stop-opacity:0;"
         offset="1"
         id="stop30" /></linearGradient><filter
       id="filter1178"
       x="-0.047999482"
       y="-0.047999482"
       width="1.095999"
       height="1.095999"
       color-interpolation-filters="sRGB"><feGaussianBlur
         stdDeviation="0.30691668"
         id="feGaussianBlur1" /></filter><radialGradient
       id="radialGradient4544-0"
       cx="365.9"
       cy="-121.31"
       r="77.057"
       gradientTransform="matrix(0.077665,8.8297e-4,-9.7274e-4,0.08728,-2.8425014,28.439844)"
       gradientUnits="userSpaceOnUse"><stop
         stop-color="#ebcb8b"
         offset="0"
         id="stop1" /><stop
         stop-color="#d08770"
         offset="1"
         id="stop2" /></radialGradient><linearGradient
       id="linearGradient4550-5"
       x1="369.24"
       x2="369.24"
       y1="-117.55"
       y2="-183.12"
       gradientTransform="matrix(0.061261,0,0,0.061888,4.9946,17.908)"
       gradientUnits="userSpaceOnUse"><stop
         stop-color="#d8dee9"
         offset="0"
         id="stop3" /><stop
         stop-color="#eceff4"
         offset="1"
         id="stop4" /></linearGradient><linearGradient
       id="linearGradient1586"
       x1="32.784"
       x2="32.784"
       y1="5.832"
       y2="7.8753"
       gradientUnits="userSpaceOnUse"><stop
         stop-color="#4c566a"
         offset="0"
         id="stop5" /><stop
         stop-color="#2e3440"
         offset="1"
         id="stop6" /></linearGradient><filter
       id="filter3411"
       x="-0.027880582"
       y="-0.027887651"
       width="1.0557612"
       height="1.0557753"
       color-interpolation-filters="sRGB"><feGaussianBlur
         stdDeviation="0.14926252"
         id="feGaussianBlur6" /></filter><linearGradient
       id="linearGradient5403"
       x1="-3.1372"
       x2="16.007"
       y1="8.4095"
       y2="8.4095"
       gradientUnits="userSpaceOnUse"><stop
         stop-color="#d08770"
         offset="0"
         id="stop7" /><stop
         stop-color="#ebcb8b"
         offset="1"
         id="stop8" /></linearGradient><filter
       id="filter1178-7"
       x="-0.047999482"
       y="-0.047999482"
       width="1.095999"
       height="1.095999"
       color-interpolation-filters="sRGB"><feGaussianBlur
         stdDeviation="0.30691668"
         id="feGaussianBlur3" /></filter><linearGradient
       id="linearGradient1340"
       x1="8.3549995"
       x2="8.3996"
       y1="16.007"
       y2="0.79374999"
       gradientUnits="userSpaceOnUse"><stop
         stop-color="#d8dee9"
         offset="0"
         id="stop4-5" /><stop
         stop-color="#eceff4"
         offset="1"
         id="stop5-3" /></linearGradient><linearGradient
       gradientUnits="userSpaceOnUse"
       id="lobe-icons-gemini-fill-0"
       x1="7"
       x2="11"
       y1="15.5"
       y2="12"><stop
         stop-color="#08B962"
         id="stop4-2"
         offset="0"
         style="stop-color:#a3be8c;stop-opacity:1;" /><stop
         offset="1"
         stop-color="#08B962"
         stop-opacity="0"
         id="stop5-7" /></linearGradient><linearGradient
       gradientUnits="userSpaceOnUse"
       id="lobe-icons-gemini-fill-1"
       x1="8"
       x2="11.5"
       y1="5.5"
       y2="11"><stop
         stop-color="#F94543"
         id="stop6-0"
         offset="0"
         style="stop-color:#bf616a;stop-opacity:1;" /><stop
         offset="1"
         stop-color="#F94543"
         stop-opacity="0"
         id="stop7-9" /></linearGradient><linearGradient
       gradientUnits="userSpaceOnUse"
       id="lobe-icons-gemini-fill-2"
       x1="3.5"
       x2="17.5"
       y1="13.5"
       y2="12"><stop
         stop-color="#FABC12"
         id="stop8-3"
         offset="0"
         style="stop-color:#ebcb8b;stop-opacity:1;" /><stop
         offset=".46"
         stop-color="#FABC12"
         stop-opacity="0"
         id="stop9-6" /></linearGradient><filter
       inkscape:collect="always"
       style="color-interpolation-filters:sRGB"
       id="filter28"
       x="-0.028791164"
       y="-0.025418648"
       width="1.0575823"
       height="1.0508373"><feGaussianBlur
         inkscape:collect="always"
         stdDeviation="0.11208697"
         id="feGaussianBlur28" /></filter><linearGradient
       inkscape:collect="always"
       xlink:href="#linearGradient29"
       id="linearGradient30"
       x1="3.0519996"
       y1="39.10862"
       x2="9.9955397"
       y2="32.856628"
       gradientUnits="userSpaceOnUse"
       gradientTransform="translate(1.9427297,-27.516124)" /><filter
       inkscape:collect="always"
       style="color-interpolation-filters:sRGB"
       id="filter30"
       x="-0.035045359"
       y="-0.030940244"
       width="1.0700907"
       height="1.0618805"><feGaussianBlur
         inkscape:collect="always"
         stdDeviation="0.13643519"
         id="feGaussianBlur30" /></filter></defs><g
     stroke-linecap="round"
     stroke-linejoin="round"
     id="g10"><rect
       transform="matrix(.99138 0 0 1 .072989 .0019055)"
       x=".79375"
       y=".90545"
       width="15.346"
       height="15.346"
       rx="3.0526"
       ry="3.0526"
       fill="#000000"
       filter="url(#filter1178)"
       opacity=".15"
       stroke-width="1.2489"
       style="mix-blend-mode:normal"
       id="rect8" /><rect
       x=".92604"
       y=".86898"
       width="15.081"
       height="15.081"
       rx="3"
       ry="3"
       fill="url(#linearGradient5403)"
       stroke-width="1.2274"
       id="rect9" /><rect
       x=".01215"
       y=".0060174"
       width="16.924"
       height="16.927"
       fill="none"
       opacity=".15"
       stroke-width="1.052"
       id="rect10" /></g><path
     d="m 7.6299177,3.1751653 c 0.806911,-0.01067 1.224257,0.355173 1.683273,0.81617 0.19048,-0.123013 0.7037323,-0.378322 0.676615,-0.18584 -0.03968,0.284402 0.1276533,0.538381 -0.324752,0.845932 0.299619,1.030468 0.126987,1.548345 -0.103173,1.883678 -0.230159,0.33533 -0.619732,0.566821 -0.912735,0.822786 -0.293002,0.255973 -0.412055,0.4815 0.185867,0.399484 0.597908,-0.08203 1.4947713,0.246054 1.9908213,0.605848 0.49473,0.359802 0.661405,-0.08597 0.816834,-0.3016 0.154773,-0.215626 0.657434,-0.990121 1.073457,-0.582698 0.416021,0.407424 0.47621,1.358521 0.385597,2.3499647 -0.08995,0.991444 -1.20706,3.904923 -4.2958133,3.928734 -3.08941,0.02373 -4.636432,-0.916705 -4.797154,-2.555661 -0.16072,-1.638958 0.675295,-2.171386 1.080073,-2.7719397 0.404778,-0.600554 0.978876,-1.158778 0.436525,-1.668057 -0.360464,-0.459677 -1.511305,0.134933 -1.652846,-0.490101 -0.0992,-0.386258 1.36646,-0.04232 0.39089,-0.64553 -0.345253,-0.220906 -0.736143,-1.234177 -0.216933,-1.105865 0.653466,0.169307 1.303625,0.441157 1.506676,-0.221573 0.203039,-0.661402 1.270553,-1.112479 2.078125,-1.12306 z"
     fill="#d8dee9"
     id="path1-7-9-6"
     style="opacity:0.38;fill:#2e3440;fill-opacity:1;stroke-width:0.661402;filter:url(#filter28)" /><path
     d="m 7.6299174,3.175165 c 0.806911,-0.01067 1.224257,0.355173 1.683273,0.81617 0.19048,-0.123013 0.7037316,-0.378322 0.676615,-0.18584 -0.03968,0.284402 0.1276526,0.538381 -0.324752,0.845932 0.299619,1.030468 0.126987,1.548345 -0.103173,1.883678 -0.230159,0.33533 -0.619732,0.566821 -0.912735,0.822786 -0.293002,0.255973 -0.412055,0.4815 0.185867,0.399484 0.597908,-0.08203 1.4947706,0.246054 1.9908206,0.605848 0.49473,0.359802 0.661405,-0.08597 0.816834,-0.3016 0.154773,-0.215626 0.657434,-0.990121 1.073457,-0.582698 0.416021,0.407424 0.47621,1.358521 0.385597,2.349965 -0.08995,0.991444 -1.20706,3.904923 -4.2958126,3.928734 -3.08941,0.02373 -4.6364321,-0.916705 -4.7971541,-2.555661 C 3.8480343,9.563005 4.6840493,9.030577 5.0888274,8.430023 5.4936054,7.829469 6.0677034,7.271245 5.5253524,6.761966 5.1648884,6.302289 4.0140473,6.896899 3.8725063,6.271865 3.7733063,5.885607 5.2389664,6.229545 4.2633963,5.626335 3.9181433,5.405429 3.5272533,4.392158 4.0464633,4.52047 4.6999294,4.689777 5.3500884,4.961627 5.5531394,4.298897 5.7561784,3.637495 6.8236924,3.186418 7.6312644,3.175837 Z"
     fill="#d8dee9"
     id="path1-7-9"
     style="fill:#e4e8f0;fill-opacity:1;stroke-width:0.661402" /><path
     d="m 7.6299174,3.1751651 c 0.806911,-0.01067 1.224257,0.355173 1.683273,0.81617 0.19048,-0.123013 0.7037326,-0.378322 0.676615,-0.18584 -0.03968,0.284402 0.1276536,0.538381 -0.324752,0.845932 0.299619,1.030468 0.126987,1.548345 -0.103173,1.883678 -0.230159,0.33533 -0.619732,0.566821 -0.912735,0.822786 -0.293002,0.255973 -0.412055,0.4815 0.185867,0.399484 0.597908,-0.08203 1.4947716,0.246054 1.9908216,0.605848 0.49473,0.359802 0.661405,-0.08597 0.816834,-0.3016 0.154773,-0.215626 0.657434,-0.990121 1.073457,-0.582698 0.416021,0.407424 0.47621,1.358521 0.385597,2.349965 -0.08995,0.9914439 -1.20706,3.9049229 -4.2958136,3.9287339 -3.08941,0.02373 -4.636432,-0.916705 -4.797154,-2.555661 -0.16072,-1.6389579 0.675295,-2.1713859 1.080073,-2.7719399 0.404778,-0.600554 0.978876,-1.158778 0.436525,-1.668057 -0.360464,-0.459677 -1.511305,0.134933 -1.652846,-0.490101 -0.0992,-0.386258 1.36646,-0.04232 0.39089,-0.64553 -0.345253,-0.220906 -0.736143,-1.234177 -0.216933,-1.105865 0.653466,0.169307 1.303625,0.441157 1.506676,-0.221573 0.203039,-0.661402 1.270553,-1.112479 2.078125,-1.12306 z"
     fill="#d8dee9"
     id="path1-7-9-9"
     style="opacity:0.153327;mix-blend-mode:normal;fill:url(#linearGradient30);fill-opacity:1;stroke-width:0.661402;filter:url(#filter30)" /></svg>
