<?xml version="1.0" encoding="UTF-8" standalone="no"?>
<svg
   width="64"
   height="64"
   version="1.1"
   viewBox="0 0 16.933 16.933"
   id="svg22"
   sodipodi:docname="duckduckgo-white.svg"
   xml:space="preserve"
   inkscape:version="1.4.2 (ebf0e940d0, 2025-05-08)"
   xmlns:inkscape="http://www.inkscape.org/namespaces/inkscape"
   xmlns:sodipodi="http://sodipodi.sourceforge.net/DTD/sodipodi-0.dtd"
   xmlns="http://www.w3.org/2000/svg"
   xmlns:svg="http://www.w3.org/2000/svg"><sodipodi:namedview
     id="namedview22"
     pagecolor="#505050"
     bordercolor="#eeeeee"
     borderopacity="1"
     inkscape:showpageshadow="0"
     inkscape:pageopacity="0"
     inkscape:pagecheckerboard="0"
     inkscape:deskcolor="#505050"
     inkscape:zoom="4.6171875"
     inkscape:cx="49.597293"
     inkscape:cy="58.477157"
     inkscape:window-width="1703"
     inkscape:window-height="1368"
     inkscape:window-x="0"
     inkscape:window-y="0"
     inkscape:window-maximized="1"
     inkscape:current-layer="svg22" /><defs
     id="defs8"><filter
       id="filter1178"
       x="-0.047999482"
       y="-0.047999482"
       width="1.095999"
       height="1.095999"
       color-interpolation-filters="sRGB"><feGaussianBlur
         stdDeviation="0.30691668"
         id="feGaussianBlur1" /></filter><radialGradient
       id="radialGradient4544-0"
       cx="365.9"
       cy="-121.31"
       r="77.057"
       gradientTransform="matrix(0.077665,8.8297e-4,-9.7274e-4,0.08728,-2.8425014,28.439844)"
       gradientUnits="userSpaceOnUse"><stop
         stop-color="#ebcb8b"
         offset="0"
         id="stop1" /><stop
         stop-color="#d08770"
         offset="1"
         id="stop2" /></radialGradient><linearGradient
       id="linearGradient4550-5"
       x1="369.24"
       x2="369.24"
       y1="-117.55"
       y2="-183.12"
       gradientTransform="matrix(0.061261,0,0,0.061888,4.9946,17.908)"
       gradientUnits="userSpaceOnUse"><stop
         stop-color="#d8dee9"
         offset="0"
         id="stop3" /><stop
         stop-color="#eceff4"
         offset="1"
         id="stop4" /></linearGradient><linearGradient
       id="linearGradient1586"
       x1="32.784"
       x2="32.784"
       y1="5.832"
       y2="7.8753"
       gradientUnits="userSpaceOnUse"><stop
         stop-color="#4c566a"
         offset="0"
         id="stop5" /><stop
         stop-color="#2e3440"
         offset="1"
         id="stop6" /></linearGradient><filter
       id="filter3411"
       x="-0.027880582"
       y="-0.027887651"
       width="1.0557612"
       height="1.0557753"
       color-interpolation-filters="sRGB"><feGaussianBlur
         stdDeviation="0.14926252"
         id="feGaussianBlur6" /></filter><linearGradient
       id="linearGradient5403"
       x1="-3.1372"
       x2="16.007"
       y1="8.4095"
       y2="8.4095"
       gradientUnits="userSpaceOnUse"
       gradientTransform="translate(7.6070739,15.384375)"><stop
         stop-color="#d08770"
         offset="0"
         id="stop7" /><stop
         stop-color="#ebcb8b"
         offset="1"
         id="stop8" /></linearGradient><filter
       id="filter1178-7"
       x="-0.047999482"
       y="-0.047999482"
       width="1.095999"
       height="1.095999"
       color-interpolation-filters="sRGB"><feGaussianBlur
         stdDeviation="0.30691668"
         id="feGaussianBlur3" /></filter><linearGradient
       id="linearGradient1340"
       x1="8.3549995"
       x2="8.3996"
       y1="16.007"
       y2="0.79374999"
       gradientUnits="userSpaceOnUse"><stop
         stop-color="#d8dee9"
         offset="0"
         id="stop4-5" /><stop
         stop-color="#eceff4"
         offset="1"
         id="stop5-3" /></linearGradient><linearGradient
       gradientUnits="userSpaceOnUse"
       id="lobe-icons-gemini-fill-0"
       x1="7"
       x2="11"
       y1="15.5"
       y2="12"><stop
         stop-color="#08B962"
         id="stop4-2"
         offset="0"
         style="stop-color:#a3be8c;stop-opacity:1;" /><stop
         offset="1"
         stop-color="#08B962"
         stop-opacity="0"
         id="stop5-7" /></linearGradient><linearGradient
       gradientUnits="userSpaceOnUse"
       id="lobe-icons-gemini-fill-1"
       x1="8"
       x2="11.5"
       y1="5.5"
       y2="11"><stop
         stop-color="#F94543"
         id="stop6-0"
         offset="0"
         style="stop-color:#bf616a;stop-opacity:1;" /><stop
         offset="1"
         stop-color="#F94543"
         stop-opacity="0"
         id="stop7-9" /></linearGradient><linearGradient
       gradientUnits="userSpaceOnUse"
       id="lobe-icons-gemini-fill-2"
       x1="3.5"
       x2="17.5"
       y1="13.5"
       y2="12"><stop
         stop-color="#FABC12"
         id="stop8-3"
         offset="0"
         style="stop-color:#ebcb8b;stop-opacity:1;" /><stop
         offset=".46"
         stop-color="#FABC12"
         stop-opacity="0"
         id="stop9-6" /></linearGradient></defs><rect
     x="0.01215"
     y="0.0060174"
     width="16.924"
     height="16.927"
     fill="none"
     opacity="0.15"
     stroke-width="1.052"
     id="rect10"
     style="stroke-linecap:round;stroke-linejoin:round" /><path
     d="M 7.1279673,3.6417209e-4 C 8.4190253,-0.01670583 9.0867793,0.56864017 9.8212043,1.3062362 10.125972,1.1094152 10.947175,0.70092017 10.903788,1.0088922 c -0.06349,0.455043 0.204246,0.861409 -0.519603,1.353491 0.47939,1.648749 0.203179,2.477352 -0.165077,3.013884 -0.3682537,0.536528 -0.9915707,0.906914 -1.4603757,1.316458 -0.468803,0.409557 -0.659288,0.7704 0.297387,0.639174 0.9566527,-0.131248 2.3916347,0.393687 3.1853147,0.969357 0.791568,0.575683 1.058248,-0.137552 1.306934,-0.48256 0.247637,-0.345001 1.051895,-1.584193 1.717532,-0.932317 0.665633,0.651879 0.761935,2.173634 0.616955,3.7599438 -0.14392,1.586311 -1.931296,6.247877 -6.8733017,6.285975 -4.943056,0.03797 -7.4182909,-1.466728 -7.6754459,-4.089058 -0.257152,-2.622333 1.0804719,-3.4742168 1.7281159,-4.4351038 0.647645,-0.960886 1.566202,-1.854045 0.69844,-2.668891 -0.576742,-0.735483 -2.4180879,0.215893 -2.6445529,-0.784162 -0.15872004,-0.618012 2.1863359,-0.06771 0.625424,-1.032847 -0.552405,-0.35345 -1.17782904,-1.974684 -0.347093,-1.769384 1.0455459,0.270891 2.0857999,0.705851 2.4106819,-0.354517 0.324862,-1.05824303 2.032884,-1.77996703 3.325,-1.79689603 z"
     fill="#d8dee9"
     id="path1-7-9"
     style="fill:#e4e8f0;fill-opacity:1;stroke-width:1.05824" /></svg>
