<svg xmlns="http://www.w3.org/2000/svg" width="16" height="16"><path fill="#d8dee9" d="M15.424 5.366A4.4 4.4 0 0 0 13.817 3.4a7.9 7.9 0 0 1 .811 2.353v.017c-.9-2.185-2.441-3.066-3.7-4.984l-.189-.3a3 3 0 0 1-.088-.161 1.3 1.3 0 0 1-.119-.306.02.02 0 0 0-.013-.019.03.03 0 0 0-.019 0h-.006a5.63 5.63 0 0 0-2.755 4.308c.094-.006.187-.014.282-.014a4.07 4.07 0 0 1 3.51 1.983A2.84 2.84 0 0 0 9.6 5.824a3.2 3.2 0 0 1-1.885 6.013 3.7 3.7 0 0 1-1.042-.2 4 4 0 0 1-.37-.155A3.28 3.28 0 0 1 4.415 8.95s.369-1.334 2.647-1.334a1.9 1.9 0 0 0 .964-.857 13 13 0 0 1-1.941-1.118c-.29-.277-.428-.411-.551-.511a2 2 0 0 0-.207-.152 3.5 3.5 0 0 1-.022-1.894 5.9 5.9 0 0 0-1.929 1.442A4.1 4.1 0 0 1 3.1 2.584a1.6 1.6 0 0 0-.267.138 6 6 0 0 0-.783.649 7 7 0 0 0-.748.868 6.45 6.45 0 0 0-1.08 2.348c0 .009-.076.325-.131.715l-.025.182a5 5 0 0 0-.048.444v.023q-.008.112-.016.258v.04A7.884 7.884 0 0 0 8.011 16a7.94 7.94 0 0 0 7.9-6.44l.036-.3a7.7 7.7 0 0 0-.523-3.894"/></svg>