<svg xmlns="http://www.w3.org/2000/svg" xmlns:xlink="http://www.w3.org/1999/xlink" xml:space="preserve" width="108.65" height="128" viewBox="0 0 28.747 33.867"><defs><linearGradient id="a" x1="30.79" x2="30.79" y1="-6.397" y2="211.48" gradientTransform="translate(-2426.836 -9154.044)scale(.14514)" gradientUnits="userSpaceOnUse"><stop offset="0" stop-color="#a3be8c"/><stop offset="1" stop-color="#8fbcbb"/></linearGradient><linearGradient xlink:href="#a" id="b" x1="30.79" x2="30.79" y1="-6.397" y2="211.48" gradientTransform="translate(-2371.157 -9216.744)scale(.14514)" gradientUnits="userSpaceOnUse"/><linearGradient xlink:href="#a" id="c" x1="30.79" x2="30.79" y1="-6.397" y2="211.48" gradientTransform="translate(-2371.157 -9216.744)scale(.14514)" gradientUnits="userSpaceOnUse"/></defs><path d="M-2353.251-9217.353c.179-.023 1.17 1.16 1.456 1.595.84 1.273 1.126 3.42.889 4.91-1.115-.466-3.108-1.264-3.696-2.378-.448-.849 1.198-4.09 1.347-4.126v-.001z" style="fill:url(#b)" transform="translate(2371.018 9219.145)"/><path d="m-2364.113-9219.145.144 4.4-.08 2.186-4.806 3.913 2.879-.677v.169c-3.977 1.54-4.964 6.978-4.968 10.668 0 1.22-.327 3.006.396 4.064l1.185-3.726h.169l.169-.508v.508h-.169c-.068 3.315-.522 6.79.677 9.991h.17c0-3.505-.076-7.13 1.567-10.329.932-1.815 2.59-3.124 3.512-4.91l-4.233 1.523c2.127-3.019 5.319-3.726 8.466-5.08l-3.217-.677v-.17c2.244-.096 4.302-.757 6.435.363 2.048 1.074 3.368 3.188 5.08 4.686 1.86 1.63 4.333 2.401 6.773 2.403v.169c-2.196.094-4.425.415-6.604-.072-1.741-.39-4.034-1.594-5.755-.567-1.76 1.05-2.536 3.624-2.542 5.55-.016 4.683 4.005 8.93 8.467 9.99-1.192-1.558-3.097-2.604-3.725-4.572 3.205.741 6.23.781 9.482.168v-.168c-4.492-.568-13.81-2.68-11.176-9.144h.169v1.354c1.326-.44 2.266-1.505 3.726-1.664 3.257-.354 7.334 1.709 9.651-1.553-1.71-1.056-3.59-2.237-4.777-3.894-1.021-1.427-1.398-3.305-2.69-4.541-1.827-1.75-4.552-2.22-6.418-3.942-2.472-2.28-4.484-5.085-7.958-5.91zm-1.695 9.652-.168.169z" style="fill:url(#c)" transform="translate(2371.018 9219.145)"/></svg>