<svg xmlns="http://www.w3.org/2000/svg" xml:space="preserve" width="128" height="127.996" viewBox="0 0 33.867 33.866"><path d="M-1940.042-9586.496a1 1 0 0 1-.413-.389c-.136-.243-.144-.336-.144-1.844v-1.589l-1.14-.024c-1.068-.022-1.165-.035-1.506-.196-.538-.256-.89-.595-1.138-1.1-.217-.44-.218-.447-.24-1.585l-.024-1.143h-1.56c-1.425 0-1.583-.012-1.833-.132-.314-.152-.562-.531-.562-.86 0-.304.239-.689.53-.852.234-.132.341-.14 1.843-.14h1.595v-1.985h-1.566c-1.432 0-1.59-.01-1.84-.132-.315-.152-.562-.53-.562-.86 0-.304.238-.688.53-.852.234-.132.341-.14 1.843-.14h1.595v-1.984h-1.566c-1.432 0-1.59-.012-1.84-.133-.315-.152-.562-.53-.562-.86 0-.304.238-.688.53-.852.234-.131.341-.14 1.843-.14h1.595v-1.984h-1.566c-1.432 0-1.59-.012-1.84-.132-.315-.152-.562-.531-.562-.86 0-.305.238-.689.53-.852.234-.132.341-.14 1.843-.14h1.595v-1.985h-1.566c-1.432 0-1.59-.012-1.84-.132-.315-.152-.562-.531-.562-.86 0-.304.238-.689.53-.852.234-.132.341-.14 1.837-.14h1.588l.024-1.141c.023-1.066.035-1.166.198-1.513a2.27 2.27 0 0 1 1.103-1.132c.435-.215.445-.216 1.58-.239l1.143-.023v-1.588c0-1.496.01-1.604.14-1.838.164-.29.548-.53.853-.53.328 0 .707.248.86.563.12.25.132.408.132 1.84v1.566h1.984v-1.595c0-1.502.01-1.61.14-1.844.163-.29.548-.53.852-.53.329 0 .708.248.86.563.121.25.132.408.132 1.84v1.566h1.985v-1.595c0-1.502.01-1.61.14-1.844.163-.29.548-.53.852-.53.329 0 .708.248.86.563.12.25.132.408.132 1.84v1.566h1.985v-1.595c0-1.502.01-1.61.14-1.844.163-.29.547-.53.852-.53.328 0 .707.248.86.563.12.25.132.408.132 1.84v1.566h1.984v-1.595c0-1.502.01-1.61.14-1.844.164-.29.548-.53.852-.53.33 0 .708.248.86.563.121.25.133.408.133 1.833v1.56l1.142.023c1.136.023 1.146.025 1.58.239.51.251.86.61 1.104 1.132.162.348.175.447.198 1.513l.024 1.14h1.588c1.51 0 1.601.01 1.846.145.27.153.521.56.521.848 0 .316-.256.712-.554.856-.26.126-.401.136-1.848.136h-1.566v1.985h1.595c1.517 0 1.607.01 1.852.144.27.152.521.56.521.848 0 .315-.256.712-.554.856-.26.126-.401.136-1.848.136h-1.566v1.984h1.595c1.517 0 1.607.01 1.852.145.27.152.521.56.521.848 0 .315-.256.712-.554.856-.26.125-.401.136-1.848.136h-1.566v1.984h1.595c1.517 0 1.607.01 1.852.145.27.152.521.56.521.847 0 .316-.256.712-.554.856-.26.126-.401.137-1.848.137h-1.566v1.984h1.595c1.517 0 1.607.01 1.852.144.27.153.521.56.521.848 0 .315-.256.712-.554.856-.26.126-.401.136-1.841.136h-1.56l-.024 1.141c-.023 1.067-.035 1.165-.197 1.505-.256.539-.595.89-1.1 1.138-.44.217-.447.218-1.585.241l-1.142.023v1.56c0 1.44-.01 1.582-.137 1.842-.144.297-.54.554-.856.554-.287 0-.695-.251-.847-.522-.138-.244-.145-.335-.145-1.852v-1.595h-1.984v1.567c0 1.446-.01 1.588-.136 1.848-.144.297-.54.554-.856.554-.288 0-.696-.251-.848-.522-.137-.244-.144-.335-.144-1.852v-1.595h-1.985v1.567c0 1.446-.01 1.588-.136 1.848-.144.297-.54.554-.856.554-.288 0-.696-.251-.848-.522-.137-.244-.144-.335-.144-1.852v-1.595h-1.985v1.567c0 1.446-.01 1.588-.136 1.848-.144.297-.54.554-.856.554-.288 0-.695-.251-.847-.522-.138-.244-.145-.335-.145-1.852v-1.595h-1.984v1.567c0 1.446-.01 1.588-.137 1.848a.8.8 0 0 1-.417.418c-.353.17-.533.17-.873 0zm16.84-7.926c.127-.067.298-.239.379-.38l.148-.258v-8.225c0-9.103.03-8.504-.421-8.826l-.207-.147-8.29-.017c-9.184-.02-8.57-.047-8.892.406l-.148.206v16.735l.147.206c.32.449-.293.42 8.817.421 7.895 0 8.246 0 8.467-.121zm-15.478-8.873v-7.012h14.022v14.023h-14.022z" style="fill:#eceff4;fill-opacity:1;stroke-width:.249999" transform="translate(1948.602 9620.228)"/></svg>