<svg xmlns="http://www.w3.org/2000/svg" viewBox="0 0 24 24"><path fill="#d8dee9" d="M5 4c-1.203 0-2 .797-2 2v12c0 1.202.795 2 2 2h11v-2H8v-2H7v-2H5V8c0-1.797 0-2 1-2h12c1 0 1 .2 1 2v5h2V6c0-1.203-.797-2-2-2z" color="#bebebe" style="fill:#a3be8c;fill-opacity:1"/><path fill="#d8dee9" d="M20 14c-1.108 0-2 .911-2 2.031V17c-.554 0-1 .446-1 1v3c0 .554.446 1 1 1h4c.554 0 1-.446 1-1v-3c0-.554-.446-1-1-1v-.969c0-1.12-.892-2.031-2-2.031m0 1c.554 0 1 .442 1 1v1h-2v-1c0-.558.446-1 1-1" style="fill:#a3be8c;fill-opacity:1"/></svg>