<svg xmlns="http://www.w3.org/2000/svg" xml:space="preserve" width="128" height="48.379" viewBox="0 0 33.867 12.8"><path d="M-2709.695-8902.58c-1.576.031-2.955.355-4.229.96-1.461.694-2.898 2.22-3.496 3.716-.38.949-.438 1.419-.438 3.732 0 2.722.128 3.683.502 3.683.118 0 1.011-.515 1.984-1.145 4.47-2.895 5.666-2.933 12.829-.4 3.455 1.22 4.885 1.636 6.977 2.023a14.8 14.8 0 0 0 3.73.186c1.407-.107 2.724-.41 3.712-.888 3.355-1.622 5.001-6.376 3.672-10.604l-.344-1.098-1.04.89c-2.62 2.244-4.297 2.961-6.896 2.946-2.038-.016-3.618-.396-6.997-1.697-4.162-1.603-7.339-2.357-9.966-2.304" style="fill:#eceff4;fill-opacity:1;stroke-width:1.57318;stroke-linecap:round;stroke-linejoin:round" transform="translate(2717.858 8902.581)"/></svg>