<svg xmlns="http://www.w3.org/2000/svg" xml:space="preserve" width="128" height="48.379" viewBox="0 0 33.867 12.8"><path d="M-2770.216-8900.883c-1.576.03-2.955.355-4.23.96-1.46.694-2.897 2.22-3.495 3.715-.38.95-.438 1.42-.438 3.732 0 2.722.127 3.684.501 3.684.118 0 1.012-.515 1.985-1.146 4.469-2.894 5.665-2.933 12.829-.4 3.455 1.221 4.885 1.637 6.976 2.024a14.8 14.8 0 0 0 3.731.185c1.406-.107 2.724-.41 3.712-.887 3.355-1.622 5.001-6.376 3.672-10.605l-.344-1.097-1.04.89c-2.62 2.243-4.297 2.96-6.897 2.945-2.037-.016-3.618-.395-6.996-1.696-4.162-1.603-7.34-2.358-9.966-2.304" style="opacity:.4;fill:#d8dee9;fill-opacity:1;stroke-width:1.57318;stroke-linecap:round;stroke-linejoin:round" transform="translate(2778.38 8900.886)"/></svg>