<svg xmlns="http://www.w3.org/2000/svg" xmlns:xlink="http://www.w3.org/1999/xlink" xml:space="preserve" width="128" height="48.379" viewBox="0 0 33.867 12.8"><defs><linearGradient id="a" x1="-3.137" x2="16.007" y1="8.41" y2="8.41" gradientTransform="translate(-2397.801 -9085.004)scale(1.00002)" gradientUnits="userSpaceOnUse"><stop offset="0" stop-color="#d08770"/><stop offset="1" stop-color="#ebcb8b"/></linearGradient><linearGradient xlink:href="#a" id="b" x1="-3.137" x2="16.007" y1="8.41" y2="8.41" gradientTransform="translate(-2672.955 -8928.609)scale(3.53282)" gradientUnits="userSpaceOnUse"/></defs><path d="M-2651.817-8905.101c-1.576.03-2.955.354-4.23.96-1.46.693-2.897 2.22-3.495 3.715-.38.95-.438 1.42-.438 3.732 0 2.722.127 3.684.501 3.684.118 0 1.012-.515 1.985-1.146 4.469-2.895 5.665-2.933 12.829-.4 3.455 1.221 4.885 1.637 6.976 2.024a14.8 14.8 0 0 0 3.731.185c1.406-.107 2.724-.41 3.712-.888 3.355-1.621 5.001-6.375 3.672-10.604l-.344-1.098-1.04.89c-2.62 2.244-4.297 2.962-6.897 2.946-2.037-.016-3.618-.395-6.996-1.696-4.162-1.604-7.34-2.358-9.966-2.305" style="fill:url(#b);stroke-width:1.57318;stroke-linecap:round;stroke-linejoin:round" transform="translate(2659.98 8905.104)"/></svg>