<svg xmlns="http://www.w3.org/2000/svg" xmlns:xlink="http://www.w3.org/1999/xlink" xml:space="preserve" width="128" height="128" viewBox="0 0 33.867 33.867"><defs><linearGradient id="a" x1="8.501" x2="8.489" y1="16.007" y2=".794" gradientTransform="translate(-2432.889 -9112.37)scale(2.24565)" gradientUnits="userSpaceOnUse"><stop offset="0" stop-color="#2e3440"/><stop offset="1" stop-color="#4c566a"/></linearGradient><linearGradient xlink:href="#a" id="b" x1="8.501" x2="8.489" y1="16.007" y2=".794" gradientTransform="translate(-2342.878 -8922.222)scale(2.24565)" gradientUnits="userSpaceOnUse"/><filter id="c" width="1.037" height="1.098" x="-.019" y="-.049" style="color-interpolation-filters:sRGB"><feGaussianBlur stdDeviation=".167"/></filter></defs><g transform="translate(2340.798 8920.14)"><rect width="33.867" height="33.867" x="-2340.798" y="-8920.141" fill="url(#linearGradient1340)" rx="6.737" ry="6.737" style="fill:url(#b);stroke-linecap:round;stroke-linejoin:round"/><path d="M-2324.73-8948.858c-1.001.02-1.878.225-2.688.61-.929.441-1.842 1.412-2.222 2.362-.241.603-.278.902-.278 2.372 0 1.73.08 2.342.319 2.342.075 0 .643-.328 1.261-.728 2.84-1.84 3.601-1.865 8.155-.255 2.196.776 3.105 1.04 4.434 1.286.766.142 1.59.177 2.372.118.894-.068 1.731-.26 2.36-.564 2.132-1.03 3.178-4.053 2.334-6.74l-.22-.698-.66.565c-1.666 1.426-2.731 1.883-4.384 1.873-1.295-.01-2.3-.251-4.447-1.079-2.646-1.019-4.665-1.498-6.335-1.464" style="opacity:.4;fill:#eceff4;fill-opacity:1;stroke-linecap:round;stroke-linejoin:round;filter:url(#c)" transform="translate(-4.71 41.584)"/><path d="M-2324.73-8948.858c-1.001.02-1.878.225-2.688.61-.929.441-1.842 1.412-2.222 2.362-.241.603-.278.902-.278 2.372 0 1.73.08 2.342.319 2.342.075 0 .643-.328 1.261-.728 2.84-1.84 3.601-1.865 8.155-.255 2.196.776 3.105 1.04 4.434 1.286.766.142 1.59.177 2.372.118.894-.068 1.731-.26 2.36-.564 2.132-1.03 3.178-4.053 2.334-6.74l-.22-.698-.66.565c-1.666 1.426-2.731 1.883-4.384 1.873-1.295-.01-2.3-.251-4.447-1.079-2.646-1.019-4.665-1.498-6.335-1.464" style="fill:#eceff4;fill-opacity:1;stroke-linecap:round;stroke-linejoin:round" transform="translate(-4.71 41.584)"/></g></svg>