<svg xmlns="http://www.w3.org/2000/svg" xmlns:xlink="http://www.w3.org/1999/xlink" xml:space="preserve" width="128" height="128" viewBox="0 0 33.867 33.867"><defs><linearGradient id="b" x1="-3.137" x2="16.007" y1="8.41" y2="8.41" gradientTransform="translate(-2397.801 -9085.004)scale(1.00002)" gradientUnits="userSpaceOnUse"><stop offset="0" stop-color="#d08770"/><stop offset="1" stop-color="#ebcb8b"/></linearGradient><linearGradient xlink:href="#b" id="d" x1="-3.137" x2="16.007" y1="8.41" y2="8.41" gradientTransform="translate(-2407.816 -8944.665)scale(2.24565)" gradientUnits="userSpaceOnUse"/><filter id="c" width="1.037" height="1.098" x="-.019" y="-.049" style="color-interpolation-filters:sRGB"><feGaussianBlur stdDeviation=".167"/></filter></defs><path fill="url(#a)" d="M-2396.787-8912.754a7.845 7.845 0 0 0-7.863 7.863v18.14a7.845 7.845 0 0 0 7.863 7.864h18.14a7.845 7.845 0 0 0 7.864-7.863v-18.141a7.845 7.845 0 0 0-7.863-7.863z" style="fill:#d8dee9;fill-opacity:1" transform="translate(2404.65 8912.753)"/><path d="M-2394.38-8929.723c-1.001.02-1.877.225-2.687.61-.93.441-1.843 1.412-2.223 2.362-.241.603-.278.902-.278 2.372 0 1.73.08 2.342.319 2.342.075 0 .643-.328 1.261-.728 2.84-1.84 3.601-1.865 8.155-.255 2.196.776 3.105 1.04 4.435 1.286.765.142 1.59.177 2.371.118.894-.068 1.732-.26 2.36-.564 2.132-1.03 3.178-4.053 2.334-6.74l-.22-.698-.66.565c-1.666 1.426-2.731 1.883-4.384 1.873-1.295-.01-2.3-.251-4.447-1.079-2.646-1.019-4.665-1.498-6.335-1.464" style="opacity:.4;fill:#2e3440;fill-opacity:1;stroke-linecap:round;stroke-linejoin:round;filter:url(#c)" transform="translate(2405.738 8942.59)"/><path d="M-2394.38-8929.723c-1.001.02-1.877.225-2.687.61-.93.441-1.843 1.412-2.223 2.362-.241.603-.278.902-.278 2.372 0 1.73.08 2.342.319 2.342.075 0 .643-.328 1.261-.728 2.84-1.84 3.601-1.865 8.155-.255 2.196.776 3.105 1.04 4.435 1.286.765.142 1.59.177 2.371.118.894-.068 1.732-.26 2.36-.564 2.132-1.03 3.178-4.053 2.334-6.74l-.22-.698-.66.565c-1.666 1.426-2.731 1.883-4.384 1.873-1.295-.01-2.3-.251-4.447-1.079-2.646-1.019-4.665-1.498-6.335-1.464" style="fill:url(#d);stroke-linecap:round;stroke-linejoin:round" transform="translate(2405.738 8942.59)"/></svg>