<svg xmlns="http://www.w3.org/2000/svg" xmlns:xlink="http://www.w3.org/1999/xlink" xml:space="preserve" width="128" height="128" viewBox="0 0 33.867 33.867"><defs><linearGradient id="b"><stop offset="0" style="stop-color:#d08770;stop-opacity:1"/><stop offset="1" style="stop-color:#d08770;stop-opacity:0"/></linearGradient><linearGradient id="a" x1="-3.137" x2="16.007" y1="8.41" y2="8.41" gradientTransform="translate(-2397.801 -9085.004)scale(1.00002)" gradientUnits="userSpaceOnUse"><stop offset="0" stop-color="#d08770"/><stop offset="1" stop-color="#ebcb8b"/></linearGradient><linearGradient xlink:href="#a" id="c" x1="-3.137" x2="16.007" y1="8.41" y2="8.41" gradientTransform="translate(-2408.847 -8979.906)scale(2.24565)" gradientUnits="userSpaceOnUse"/><linearGradient xlink:href="#b" id="e" x1="-2370.361" x2="-2371.14" y1="-8937.746" y2="-8915.43" gradientTransform="translate(30.428 -21.72)" gradientUnits="userSpaceOnUse"/><filter id="d" width="1.037" height="1.098" x="-.019" y="-.049" style="color-interpolation-filters:sRGB"><feGaussianBlur stdDeviation=".167"/></filter><filter id="f" width="1.037" height="1.098" x="-.019" y="-.049" style="color-interpolation-filters:sRGB"><feGaussianBlur stdDeviation=".167"/></filter></defs><g transform="translate(2406.766 8977.953)"><rect width="33.867" height="33.867" x="-2406.767" y="-8977.954" fill="url(#a)" rx="6.737" ry="6.737" style="fill:url(#c);stroke-linecap:round;stroke-linejoin:round"/><path d="M-2345.897-8952.375c-1.002.02-1.879.226-2.689.61-.929.441-1.842 1.412-2.222 2.362-.241.603-.278.902-.278 2.372 0 1.73.08 2.342.318 2.342.076 0 .644-.328 1.262-.728 2.84-1.84 3.601-1.865 8.154-.255 2.197.777 3.106 1.04 4.435 1.287.766.14 1.59.177 2.372.118.894-.069 1.731-.261 2.36-.565 2.132-1.03 3.178-4.053 2.334-6.74l-.22-.698-.66.565c-1.666 1.427-2.732 1.883-4.384 1.873-1.296-.01-2.3-.251-4.447-1.079-2.646-1.019-4.666-1.498-6.335-1.464" style="opacity:.4;fill:#2e3440;fill-opacity:1;stroke-linecap:round;stroke-linejoin:round;filter:url(#d)" transform="translate(-49.51 -12.712)"/><path d="M-2345.897-8952.375c-1.002.02-1.879.226-2.689.61-.929.441-1.842 1.412-2.222 2.362-.241.603-.278.902-.278 2.372 0 1.73.08 2.342.318 2.342.076 0 .644-.328 1.262-.728 2.84-1.84 3.601-1.865 8.154-.255 2.197.777 3.106 1.04 4.435 1.287.766.14 1.59.177 2.372.118.894-.069 1.731-.261 2.36-.565 2.132-1.03 3.178-4.053 2.334-6.74l-.22-.698-.66.565c-1.666 1.427-2.732 1.883-4.384 1.873-1.296-.01-2.3-.251-4.447-1.079-2.646-1.019-4.666-1.498-6.335-1.464" style="fill:#eceff4;fill-opacity:1;stroke-linecap:round;stroke-linejoin:round" transform="translate(-49.51 -12.712)"/><path d="M-2345.897-8952.375c-1.002.02-1.879.226-2.689.61-.929.441-1.842 1.412-2.222 2.362-.241.603-.278.902-.278 2.372 0 1.73.08 2.342.318 2.342.076 0 .644-.328 1.262-.728 2.84-1.84 3.601-1.865 8.154-.255 2.197.777 3.106 1.04 4.435 1.287.766.14 1.59.177 2.372.118.894-.069 1.731-.261 2.36-.565 2.132-1.03 3.178-4.053 2.334-6.74l-.22-.698-.66.565c-1.666 1.427-2.732 1.883-4.384 1.873-1.296-.01-2.3-.251-4.447-1.079-2.646-1.019-4.666-1.498-6.335-1.464" style="opacity:.15;fill:url(#e);fill-opacity:1;stroke-linecap:round;stroke-linejoin:round;filter:url(#f)" transform="translate(-49.51 -12.712)"/></g></svg>