<svg xmlns="http://www.w3.org/2000/svg" xml:space="preserve" width="128" height="84.027" viewBox="0 0 33.867 22.232"><path d="M-2078.222-9604.355c-.8 0-1.45.649-1.45 1.45v19.332a1.45 1.45 0 0 0 2.9 0v-19.332c0-.8-.65-1.45-1.45-1.45m-10.442 3.753a1.43 1.43 0 0 0-1.033.402v.071a1.42 1.42 0 0 0-.073 2.05l3.34 3.462h-7.294a1.45 1.45 0 0 0 0 2.9h7.294l-3.34 3.461a1.486 1.486 0 0 0 .073 2.05 1.485 1.485 0 0 0 2.05-.072l5.71-5.918c.54-.562.54-1.45 0-2.013l-5.71-5.919a1.42 1.42 0 0 0-1.017-.475zm20.225 0a1.43 1.43 0 0 0-1.033.402v.07a1.42 1.42 0 0 0-.073 2.051l3.34 3.462h-7.294a1.451 1.451 0 0 0 0 2.9h7.294l-3.34 3.461a1.486 1.486 0 0 0 .073 2.05 1.485 1.485 0 0 0 2.05-.072l5.71-5.918c.54-.562.54-1.45 0-2.013l-5.71-5.919a1.42 1.42 0 0 0-1.017-.475z" style="fill:#eceff4;fill-opacity:1;stroke-width:1.93328" transform="translate(2095.174 9604.355)"/></svg>