<svg xmlns="http://www.w3.org/2000/svg" viewBox="0 0 24 24"><path fill="#d8dee9" fill-rule="evenodd" d="M3 5a.5.5 0 0 0-.5.5v13a.5.5 0 0 0 .5.5h12a.5.5 0 0 0 .5-.5v-3.191l5.277 2.639a.5.5 0 0 0 .723-.447v-11a.5.5 0 0 0-.723-.447L15.5 8.693V5.502a.5.5 0 0 0-.5-.5H3m6 2c.411 0 .75.339.75.75s-.339.75-.75.75-.75-.339-.75-.75.339-.75.75-.75M5.99 8.248a.75.75 0 0 1 .531.219c.29.29.29.77 0 1.061s-.77.29-1.061 0a.756.756 0 0 1 0-1.061.75.75 0 0 1 .529-.219zm6.01 0c.193 0 .384.074.529.219.29.29.29.77 0 1.061s-.77.29-1.061 0a.756.756 0 0 1 0-1.061.75.75 0 0 1 .531-.219zm-7.256 3c.411 0 .75.339.75.75s-.339.75-.75.75-.75-.339-.75-.75.339-.75.75-.75m8.5 0c.411 0 .75.339.75.75s-.339.75-.75.75-.75-.339-.75-.75.339-.75.75-.75m-7.256 3.01c.193 0 .386.072.531.217.29.29.29.77 0 1.061s-.77.29-1.061 0a.756.756 0 0 1 0-1.061.75.75 0 0 1 .529-.217zm6.01 0c.193 0 .384.072.529.217.29.29.29.77 0 1.061s-.77.29-1.061 0a.756.756 0 0 1 0-1.061.75.75 0 0 1 .531-.217zM8.988 15.5c.411 0 .75.339.75.75s-.339.75-.75.75-.75-.339-.75-.75.339-.75.75-.75"/></svg>