<svg xmlns="http://www.w3.org/2000/svg" xml:space="preserve" viewBox="0 0 24 24"><path fill="#d8dee9" d="m12.992 8.5-.999 1a3.2 3.2 0 0 1 0 4.5l.999 1c1.952-2.02 1.952-4.479 0-6.5"/><path fill="#d8dee9" d="M14.491 8c2.025 2.027 2.025 5.973 0 8l1.499 1.5c2.902-2.905 2.902-8.095 0-11z" style="fill:#d7dee8;fill-opacity:.40000001"/><path fill="#d8dee9" d="M16.988 6c3.561 3.372 3.508 8.628 0 12l1.499 1.5c4.658-4.5 4.71-10.5 0-15z" style="fill:#d7dee8;fill-opacity:.40000001"/><g fill="#d8dee9"><path d="M9 6 6 9v6l3 3v-4l2-2-2-2z"/><path d="M3 9c-.523 0-.999.498-.999 1v4c0 .58.433 1 .999 1h3.996V9z"/></g></svg>