<svg xmlns="http://www.w3.org/2000/svg" viewBox="0 0 24 24"><path fill="#d8dee9" d="M8.667 3c-1.84 0-3.333 1.511-3.333 3.374v5.637c0 1.862 1.493 3.374 3.333 3.374S12 13.874 12 12.011V6.374C12 4.512 10.507 3 8.667 3"/><path fill="#d8dee9" d="M2 12c0 3.349 2.399 6.113 5.557 6.647v1.228H6.444V21h4.447v-1.125H9.778v-1.228c3.158-.534 5.557-3.298 5.557-6.647h-2.223c0 2.485-1.987 4.502-4.443 4.502-2.453 0-4.443-2.02-4.443-4.502z"/><g fill="#d8dee9" opacity=".4"><path d="M22 5.25c0 1.242-.995 2.248-2.224 2.248s-2.22-1.006-2.22-2.249S18.548 3 19.776 3 22 4.007 22 5.25M22 12c0 1.242-.995 2.249-2.224 2.249s-2.22-1.007-2.22-2.249.992-2.249 2.22-2.249S22 10.758 22 12M22 18.75c0 1.243-.995 2.25-2.224 2.25s-2.22-1.007-2.22-2.25.992-2.248 2.22-2.248S22 17.508 22 18.75"/></g></svg>