<svg xmlns="http://www.w3.org/2000/svg" xml:space="preserve" viewBox="0 0 24 24"><path fill="#d8dee9" d="M8.667 3C6.826 3 5.334 4.511 5.334 6.375v5.635c0 1.864 1.492 3.375 3.333 3.375S12 13.874 12 12.01V6.375C12 4.511 10.508 3 8.667 3"/><path fill="#d8dee9" d="M2 12c0 3.348 2.398 6.112 5.556 6.645v1.23H6.445V21h4.444v-1.125H9.778v-1.23c3.157-.532 5.556-3.297 5.556-6.645h-2.222c0 2.485-1.99 4.5-4.444 4.5-2.455 0-4.444-2.01-4.444-4.5H2.002"/><title>loading</title><path d="m17.2 10.846 1.353-.352a.287.287 0 1 0-.15-.555l-.703.19c.23-.298.528-.542.893-.704a2.26 2.26 0 0 1 1.732-.04c.555.216 1.002.649 1.245 1.19.068.149.23.203.38.149.148-.068.202-.23.148-.379a2.82 2.82 0 0 0-1.556-1.502 2.86 2.86 0 0 0-2.165.04c-.46.203-.84.515-1.137.907l-.176-.663a.287.287 0 1 0-.555.149l.352 1.353c.04.19.136.27.339.217m5.29 2.868-.351-1.34s-.054-.27-.325-.202l-1.353.352a.287.287 0 1 0 .149.554l.703-.189a2.24 2.24 0 0 1-2.611.73 2.28 2.28 0 0 1-1.245-1.19c-.068-.149-.23-.203-.38-.149-.148.068-.202.23-.148.379.298.69.852 1.218 1.556 1.502.338.135.677.19 1.029.19a2.82 2.82 0 0 0 2.273-1.15l.176.662a.29.29 0 0 0 .27.217c.027 0 .055 0 .068-.014.135-.054.23-.203.19-.352" style="stroke-width:.338297;fill:#8fbcbb;fill-opacity:1"/></svg>