<svg xmlns="http://www.w3.org/2000/svg" xmlns:xlink="http://www.w3.org/1999/xlink" width="24" height="24" viewBox="0 0 24 24"><defs><clipPath id="b"><path d="M0 0h24v24H0z"/></clipPath><filter id="a" width="1" height="1" x="0" y="0"><feColorMatrix in="SourceGraphic" values="0 0 0 0 1 0 0 0 0 1 0 0 0 0 1 0 0 0 1 0"/></filter><mask id="c"><g filter="url(#a)"><path d="M0 0h24v24H0z"/></g></mask><g id="d" clip-path="url(#b)"><path d="M15.602 12.547c.023-.172.039-.352.039-.535V5.863c0-2.031-1.63-3.683-3.641-3.683-1.832 0-3.352 1.382-3.598 3.18M14.379 14.8q.076-.07.148-.14M8.367 11.965v.047c0 2.031 1.63 3.68 3.633 3.68h.086"/><path d="M13.16 16.766a4.8 4.8 0 0 1-1.168.144c-2.676 0-4.844-2.2-4.844-4.91H4.73c0 3.652 2.622 6.668 6.063 7.246v1.344H9.578v1.23h4.844v-1.23H13.21v-1.344a7.2 7.2 0 0 0 1.86-.582M15.383 15.512c-.051.05-.098.093-.149.14M18.45 15.398A7.4 7.4 0 0 0 19.27 12h-2.426c0 .54-.086 1.063-.246 1.547M16.96 17.379c.048-.047.099-.094.145-.14"/><path d="m3.04 5.05 1.733-1.734 16.282 16.282-1.735 1.734z"/></g></defs><g style="fill:#d8dee9;fill-opacity:1;opacity:.4"><use xlink:href="#d" mask="url(#c)" style="fill:#d8dee9;fill-opacity:1"/></g></svg>