<svg xmlns="http://www.w3.org/2000/svg" width="24" height="24" viewBox="0 0 24 24"><path fill="#d8dee9" d="M8.667 3c-1.84 0-3.333 1.511-3.333 3.374v5.637c0 1.862 1.493 3.374 3.333 3.374S12 13.874 12 12.011V6.374C12 4.512 10.507 3 8.667 3"/><path fill="#d8dee9" d="M2 12c0 3.349 2.399 6.113 5.557 6.647v1.228H6.444V21h4.447v-1.125H9.778v-1.228c3.158-.534 5.557-3.298 5.557-6.647h-2.223c0 2.485-1.987 4.502-4.443 4.502-2.453 0-4.443-2.02-4.443-4.502z"/><path fill="#d8dee9" d="M22 5.249c0 1.243-.995 2.249-2.223 2.249s-2.22-1.01-2.22-2.249c0-1.243.992-2.249 2.22-2.249S22 4.01 22 5.249M22 12c0 1.243-.995 2.249-2.223 2.249s-2.22-1.01-2.22-2.249c0-1.243.992-2.249 2.22-2.249S22 10.761 22 12" style="fill:#d8dee9;fill-opacity:1;opacity:.4"/><path fill="#d8dee9" d="M22 18.751C22 19.994 21.005 21 19.777 21s-2.22-1.01-2.22-2.249c0-1.243.992-2.249 2.22-2.249S22 17.512 22 18.751"/></svg>