<svg xmlns="http://www.w3.org/2000/svg" viewBox="0 0 24 24"><path fill="#d8dee9" d="M8.667 3C6.826 3 5.334 4.511 5.334 6.375v5.635c0 1.864 1.492 3.375 3.333 3.375S12 13.874 12 12.01V6.375C12 4.511 10.508 3 8.667 3"/><path fill="#d8dee9" d="M2 12c0 3.348 2.398 6.112 5.556 6.645v1.23H6.445V21h4.444v-1.125H9.778v-1.23c3.157-.532 5.556-3.297 5.556-6.645h-2.222c0 2.485-1.99 4.5-4.444 4.5-2.455 0-4.444-2.01-4.444-4.5H2.002"/><path fill="#d8dee9" fill-rule="evenodd" d="M18 7c.554 0 1 .446 1 1v7c0 .554-.446 1-1 1s-1-.446-1-1V8c0-.554.446-1 1-1M21 7c.554 0 1 .446 1 1v7c0 .554-.446 1-1 1s-1-.446-1-1V8c0-.554.446-1 1-1"/></svg>