<svg xmlns="http://www.w3.org/2000/svg" xml:space="preserve" width="128" height="115.309" viewBox="0 0 33.867 30.509"><path d="M-2280.673-9549.547c-1.659-.127-2.757-.56-3.627-1.43-.826-.824-1.23-1.794-1.409-3.374-.109-.97-.109-19.78 0-20.75.178-1.58.583-2.55 1.409-3.374.9-.899 1.932-1.292 3.766-1.435 1.288-.1 22.055-.1 23.342 0 1.863.145 2.868.527 3.777 1.435.826.825 1.23 1.795 1.409 3.375.11.97.11 19.78 0 20.75-.178 1.58-.583 2.55-1.409 3.374-.91.909-1.914 1.29-3.777 1.436-1.16.09-22.304.085-23.481-.01zm5.757-8.575c.408-.212 5.046-4.89 5.246-5.292.23-.463.358-1.177.296-1.655-.12-.917-.262-1.102-2.846-3.697-1.32-1.326-2.534-2.48-2.696-2.564-.546-.284-1.42-.159-1.878.268-.502.468-.679 1.38-.38 1.964.08.153 1.061 1.199 2.183 2.325l2.038 2.047-2.039 2.047c-1.12 1.126-2.102 2.173-2.181 2.326-.3.582-.123 1.495.378 1.963.459.428 1.332.552 1.879.268m13.513.03c1.343-.56 1.343-2.531 0-3.092-.248-.104-.761-.124-3.242-.124-2.744 0-2.967.011-3.242.152-1.295.666-1.282 2.369.023 3.056.354.186 6.018.193 6.461.01z" style="fill:#eceff4;fill-opacity:1;stroke-width:.30047" transform="translate(2285.79 9579.985)"/></svg>