<svg xmlns="http://www.w3.org/2000/svg" xmlns:xlink="http://www.w3.org/1999/xlink" xml:space="preserve" width="128.001" height="128" viewBox="0 0 33.867 33.867"><defs><linearGradient id="a" x1="30.79" x2="30.79" y1="-6.397" y2="211.48" gradientTransform="translate(-2426.836 -9154.044)scale(.14514)" gradientUnits="userSpaceOnUse"><stop offset="0" stop-color="#a3be8c"/><stop offset="1" stop-color="#8fbcbb"/></linearGradient><linearGradient xlink:href="#a" id="b" x1="30.79" x2="30.79" y1="-6.397" y2="211.48" gradientTransform="translate(-2654.82 -10259.85)scale(.14514)" gradientUnits="userSpaceOnUse"/></defs><path d="M-2657.239-10254.388v18.141a7.845 7.845 0 0 0 7.863 7.863h18.141a7.845 7.845 0 0 0 7.863-7.863v-18.141a7.845 7.845 0 0 0-7.863-7.863h-18.14a7.845 7.845 0 0 0-7.864 7.863m8.468-5.041h16.932q2.381.09 3.97 1.676 1.587 1.587 1.676 3.969v16.933q-.089 2.381-1.677 3.969-1.587 1.587-3.969 1.675h-16.932q-2.382-.089-3.97-1.675-1.586-1.588-1.676-3.969v-16.933q.088-2.382 1.676-3.969 1.589-1.587 3.97-1.676" style="fill:url(#b)" transform="translate(2657.239 10262.251)"/></svg>