<svg xmlns="http://www.w3.org/2000/svg" xml:space="preserve" width="128" height="128" viewBox="0 0 33.867 33.867"><path d="M-2768.822-10268.715q-2.857.105-4.762 2.011-1.905 1.905-2.011 4.762v20.32q.106 2.859 2.01 4.763 1.906 1.905 4.763 2.011h20.32q2.859-.105 4.763-2.011 1.905-1.904 2.01-4.763v-20.32q-.105-2.857-2.01-4.762t-4.763-2.011zm1.694 2.822h16.933q2.381.09 3.969 1.676 1.587 1.587 1.676 3.969v16.933q-.088 2.381-1.676 3.969-1.588 1.587-3.969 1.675h-16.932q-2.383-.089-3.97-1.675-1.586-1.588-1.676-3.969v-16.933q.088-2.382 1.676-3.969t3.97-1.676" style="fill:#d7dee8;fill-opacity:.4;stroke-width:.0940739" transform="translate(2775.595 10268.714)"/></svg>