<svg xmlns="http://www.w3.org/2000/svg" viewBox="0 0 24 24"><g style="fill:#d8dee9;fill-opacity:1"><path d="m-2885.86-8342.203-47.553-47.555a27 27 0 0 0-1.84-.073c-6.17-.03-9.752.644-15.043 5.935l19.352 23.826-29.028 34.23-9.677 19.352 19.353-9.676 34.694-29.028 23.363 19.352c5.384-5.385 6.879-10.792 6.379-16.363zM-2907.546-8395.812l27.222 27.223 14.921-22.3c12.86 7.666 24.63 3.908 31.221-2.684l-48.381-48.381c-6.591 6.59-10.35 18.361-2.684 31.22z" class="ColorScheme-Text" style="color:#2e3440;fill:#d8dee9;fill-opacity:1;stroke-width:9.67611" transform="translate(354.746 1001.08)scale(.11811)"/></g><path fill="currentColor" d="m-2859.235-8439.717-7.979 7.979 127.484 127.488 7.983-7.983z" class="ColorScheme-NegativeText" style="color:#bf616a;stroke-width:11.2889" transform="translate(342.647 1000.817)scale(.11811)"/></svg>