<svg xmlns="http://www.w3.org/2000/svg" xml:space="preserve" width="119.413" height="128" viewBox="0 0 31.595 33.867"><path d="m-2012.086-9582.332 14.66-8.327c-.233-.233-.513-.42-.855-.607l-10.972-6.256c-.965-.545-1.9-.84-2.833-.84s-1.868.295-2.833.84l-10.972 6.256c-.342.188-.622.374-.856.607zm-1.058 17.835v-15.968l-14.614-8.342a5.2 5.2 0 0 0-.126 1.183v12.124c0 2.257.794 3.097 2.241 3.922l12.186 6.941c.11.063.203.108.312.14zm2.116 0c.11-.03.203-.078.312-.14l12.186-6.942c1.447-.824 2.24-1.665 2.24-3.922v-12.124c0-.466-.044-.84-.122-1.182l-14.615 8.342z" style="fill:#eceff4;fill-opacity:1;stroke-width:.664039" transform="translate(2027.884 9598.363)"/></svg>