<svg viewBox="0 0 512 512"><path d="M368.073 0a6.98 6.98 0 0 0-6.777 5.576 158.67 158.67 0 0 1-43.084 78.96 158.65 158.65 0 0 1-80.117 43.335c-3.128.634-5.393 3.352-5.393 6.525a6.73 6.73 0 0 0 5.393 6.528 158.64 158.64 0 0 1 80.117 43.334 158.65 158.65 0 0 1 43.334 80.117 6.73 6.73 0 0 0 6.527 5.395 6.73 6.73 0 0 0 6.528-5.395 158.65 158.65 0 0 1 43.332-80.117 158.65 158.65 0 0 1 78.963-43.084 6.984 6.984 0 0 0 5.574-6.754c0-3.31-2.357-6.097-5.574-6.799a158.65 158.65 0 0 1-78.985-43.086 158.64 158.64 0 0 1-43.06-78.959C374.147 2.358 371.359 0 368.073 0M107.618 58.293a98.1 98.1 0 0 0-69.367 28.736 98.1 98.1 0 0 0-28.72 69.373v257.51A98.11 98.11 0 0 0 107.617 512H365.15a98.11 98.11 0 0 0 98.09-98.088V280.873L426.456 306.1v107.789a61.306 61.306 0 0 1-61.307 61.304H107.62a61.306 61.306 0 0 1-61.306-61.304V156.38a61.306 61.306 0 0 1 61.305-61.283h81.432l21.576-36.805z"/></svg>