<svg xmlns="http://www.w3.org/2000/svg" xml:space="preserve" width="127.997" height="122.445" viewBox="0 0 33.866 32.397"><path d="m-2709.99-8583.697-1.149-7.554-1.352-.114c-1.676-.14-2.494-.477-3.424-1.408-2.456-2.455-1.598-6.522 1.654-7.842.536-.218.847-.232 6.312-.3 4.406-.056 5.968-.112 6.688-.241 2.967-.532 5.303-1.48 8-3.247 1.353-.886 3.537-2.539 4.376-3.311.757-.697.983-.819 1.518-.818.484 0 .961.278 1.262.734.195.296.208.594.209 4.82v4.505l.304.01c1.024.012 2.129 1.169 2.127 2.233 0 1.22-1.036 2.408-2.095 2.408h-.336v4.315c0 4.678-.016 4.817-.606 5.281-.375.295-.951.41-1.354.27-.168-.06-1.127-.766-2.13-1.572-3.951-3.17-6.775-4.668-10.205-5.41-1.114-.24-3.811-.512-3.929-.394-.054.054 1.193 7.932 1.387 8.757.053.224.102.241.516.174.944-.155.88-.222 1.08 1.126.12.82.143 1.24.065 1.288-.063.04-.383.106-.712.147-.575.072-.595.086-.54.37.107.545.317 2.459.275 2.498-.057.052-6.175.837-6.522.837h-.271zm21.773-12.454c0-4.986-.031-9.065-.07-9.065-.038 0-.623.415-1.299.923-2.228 1.673-4.583 3.148-6.23 3.904-1.244.57-3.234 1.196-4.506 1.418-.607.106-1.167.21-1.243.231-.106.03-.138.65-.138 2.621v2.582l.912.136c3.523.523 7.265 2.337 11.413 5.534.547.421 1.032.77 1.078.773.046.011.083-4.072.083-9.058z" style="fill:#eceff4;fill-opacity:1;stroke:none;stroke-width:.110544" transform="translate(2717.33 8608.532)"/></svg>