<svg xmlns="http://www.w3.org/2000/svg" xml:space="preserve" width="128.001" height="113.785" viewBox="0 0 33.867 30.106"><path d="M-2705.101-9089.99a3.75 3.75 0 0 0-3.634 2.834c-.047 0-.082-.01-.13-.01a3.767 3.767 0 0 0-3.763 3.762q.002.426.1.824a4.7 4.7 0 0 0-2.922 4.35c0 .741.189 1.43.488 2.053-1.41.811-2.369 2.316-2.369 4.062 0 1.958 1.2 3.64 2.904 4.345q-.08.406-.082.83a4.23 4.23 0 0 0 4.234 4.233c.24 0 .476-.03.705-.071.565 1.675 2.129 2.893 3.998 2.893a4.23 4.23 0 0 0 4.234-4.234v-22.107a3.766 3.766 0 0 0-3.763-3.763zm21.637 17.874c0-1.746-.959-3.25-2.37-4.062a4.6 4.6 0 0 0 .488-2.052 4.7 4.7 0 0 0-2.922-4.351c.059-.265.1-.54.1-.823a3.766 3.766 0 0 0-3.763-3.763c-.047 0-.088.013-.13.013a3.75 3.75 0 0 0-3.633-2.834 3.763 3.763 0 0 0-3.763 3.763v22.107a4.23 4.23 0 0 0 4.233 4.234c1.87 0 3.434-1.218 3.999-2.893.229.04.464.07.705.07a4.23 4.23 0 0 0 4.151-5.062 4.7 4.7 0 0 0 2.905-4.345z" style="fill:#eceff4;fill-opacity:1;stroke-width:.0587963" transform="translate(2717.33 9089.99)"/></svg>