<svg xmlns="http://www.w3.org/2000/svg" xml:space="preserve" width="128.014" height="119.699" viewBox="0 0 33.87 31.67"><path d="M-2715.19-8817.888a6 6 0 0 0-.395-.101c-.024 0-.233-.13-.465-.284-.478-.32-.845-.806-1.084-1.437l-.159-.42-.019-10.079-.019-10.077h33.867l-.02 10.009-.018 10.01-.224.453c-.393.796-1.26 1.524-2.19 1.84l-.46.157-14.232.013c-11.987.01-14.287 0-14.583-.084zm7.756-4.782c.112-.066.267-.25.343-.408.124-.257.139-.43.135-1.65 0-1.492-.053-1.751-.37-1.986-.186-.14-.283-.147-1.8-.147-2.259 0-2.17-.087-2.172 2.16 0 2.237-.092 2.145 2.127 2.149 1.329 0 1.559-.013 1.737-.118m8.453-.016c.32-.196.371-.472.371-2.002 0-1.519-.049-1.783-.37-2.013-.214-.152-.295-.161-1.662-.183-1.6-.027-1.856.016-2.134.345l-.18.214v1.576c0 2.298-.104 2.193 2.174 2.196 1.441 0 1.596-.01 1.8-.133m8.556-.092.194-.195v-3.42l-.171-.183c-.276-.293-.55-.333-2.111-.308-2.096.034-2.049-.019-2.016 2.269.02 1.39.032 1.51.168 1.693.27.362.351.376 2.113.356l1.628-.019zm-16.991-9.399c.392-.257.46-.565.463-2.065 0-1.477-.042-1.696-.386-1.966-.185-.146-.258-.152-1.764-.152-2.308 0-2.213-.098-2.182 2.241.021 1.591.024 1.605.193 1.786.094.1.268.212.385.247.118.036.863.06 1.655.051 1.263-.01 1.465-.03 1.636-.142m8.24.071a.96.96 0 0 0 .385-.281c.136-.183.149-.306.17-1.648.027-1.613-.016-1.868-.345-2.145l-.215-.18h-1.575c-2.3 0-2.2-.1-2.2 2.199v1.575l.181.215c.1.119.281.245.403.28.337.097 2.91.085 3.195-.016zm8.44.016a.66.66 0 0 0 .403-.297c.124-.204.136-.362.136-1.787 0-2.285.098-2.188-2.195-2.188-1.506 0-1.58.011-1.764.152-.346.272-.387.487-.387 2.022 0 1.029.027 1.468.095 1.635a.87.87 0 0 0 .573.487c.272.069 2.876.05 3.138-.024zm-26.59-12.492c0-2.237.053-2.695.382-3.345.231-.456.672-.94 1.066-1.17.554-.325.905-.373 2.735-.374h1.695l.021 1.735c.021 1.662.03 1.746.181 1.991a1.045 1.045 0 0 0 1.605.186 1.2 1.2 0 0 0 .308-.518c.035-.15.065-.976.066-1.834v-1.56h16.817l.02 1.735c.022 1.662.03 1.746.181 1.991.397.639 1.389.639 1.786 0 .152-.245.16-.33.18-1.99l.021-1.736h1.696c1.2 0 1.834.031 2.17.102 1.073.227 2.119 1.023 2.58 1.963l.24.49.022 2.192.02 2.193h-33.8z" style="fill:#eceff4;fill-opacity:1;stroke-width:.264974" transform="translate(2717.334 8849.471)"/></svg>