<?xml version="1.0" encoding="UTF-8" standalone="no"?>
<svg
   width="16"
   height="16"
   version="1.1"
   viewBox="0 0 16 16"
   id="svg1"
   sodipodi:docname="capslock-on.svg"
   inkscape:version="1.4.2 (ebf0e940d0, 2025-05-08)"
   xmlns:inkscape="http://www.inkscape.org/namespaces/inkscape"
   xmlns:sodipodi="http://sodipodi.sourceforge.net/DTD/sodipodi-0.dtd"
   xmlns="http://www.w3.org/2000/svg"
   xmlns:svg="http://www.w3.org/2000/svg">
  <defs
     id="defs1" />
  <sodipodi:namedview
     id="namedview1"
     pagecolor="#505050"
     bordercolor="#eeeeee"
     borderopacity="1"
     inkscape:showpageshadow="0"
     inkscape:pageopacity="0"
     inkscape:pagecheckerboard="0"
     inkscape:deskcolor="#505050"
     inkscape:zoom="21.522563"
     inkscape:cx="12.057114"
     inkscape:cy="15.239821"
     inkscape:window-width="1184"
     inkscape:window-height="1368"
     inkscape:window-x="0"
     inkscape:window-y="0"
     inkscape:window-maximized="1"
     inkscape:current-layer="svg1" />
  <path
     d="m7.9629 0.5a1.0001 1.0001 0 0 0-0.72266 0.34961l-6 7a1.0001 1.0001 0 0 0-0.24023 0.65039v0.5a1.0001 1.0001 0 0 0 1 1v2a1.0001 1.0001 0 0 0-1 1v2a1.0001 1.0001 0 0 0 1 1h12a1.0001 1.0001 0 0 0 1-1v-2a1.0001 1.0001 0 0 0-1-1v-2a1.0001 1.0001 0 0 0 1-1v-0.5a1.0001 1.0001 0 0 0-0.24023-0.65039l-6-7a1.0001 1.0001 0 0 0-0.79688-0.34961zm0.037109 1 6 7v0.5h-1v4h1v2h-12v-2h1v-4h-1v-0.5l6-7zm-0.56055 5.5-2.1445 6h1.2051l0.38281-0.98828h2.2324l0.38477 0.98828h1.2793l-2.2637-6h-1.0762zm0.56055 1.7148 0.77539 2.2852h-1.5547l0.7793-2.2852z"
     id="path1"
     style="fill:#d8dee9;fill-opacity:1" />
</svg>
