<svg xmlns="http://www.w3.org/2000/svg" xml:space="preserve" width="127.999" height="118.121" viewBox="0 0 33.866 31.253"><path d="M-2717.321-8714.287q.081 5.21 3.744 8.953-.164.244-.245.406a21.6 21.6 0 0 1-2.93 4.314q-.894.895-.406 2.035.57 1.14 1.79 1.22 5.372-.243 10.01-2.441l1.14-.488q1.872.325 3.825.325 7.162-.162 11.964-4.232 4.802-3.987 4.965-10.092-.163-6.104-4.965-10.092-4.8-4.069-11.964-4.232-7.161.164-11.964 4.232-4.801 3.988-4.964 10.092" style="fill:#eceff4;fill-opacity:1;stroke-width:.102847" transform="translate(2717.33 8728.612)"/></svg>