<?xml version="1.0" encoding="UTF-8" standalone="no"?>
<!-- Created with Inkscape (http://www.inkscape.org/) -->

<svg
   width="512"
   height="376.78516"
   viewBox="0 0 135.46666 99.691075"
   version="1.1"
   id="svg1"
   xml:space="preserve"
   xmlns="http://www.w3.org/2000/svg"
   xmlns:svg="http://www.w3.org/2000/svg"><defs
     id="defs1" /><g
     id="layer1"
     transform="translate(2906.0091,11426.068)"><g
       style="clip-rule:evenodd;fill-rule:evenodd;image-rendering:optimizeQuality;shape-rendering:geometricPrecision;text-rendering:geometricPrecision"
       id="g39"
       transform="matrix(0.26458333,0,0,0.26458333,-2948.592,-11651.242)"><path
         fill="#4d6bfe"
         fill-rule="nonzero"
         d="m 667.57095,882.67936 c -5.42332,-2.65812 -7.75747,2.40735 -10.92796,4.97872 -1.08575,0.82956 -2.00477,1.90717 -2.91973,2.9021 -7.92691,8.4664 -17.18897,14.02797 -29.28808,13.36378 -17.68644,-0.99493 -32.79203,4.56529 -46.1409,18.09309 -2.83704,-16.68202 -12.26448,-26.64623 -26.61506,-33.0333 -7.50941,-3.3196 -15.10152,-6.64191 -20.35946,-13.86261 -3.67067,-5.14408 -4.67238,-10.87239 -6.50771,-16.51665 -1.16708,-3.40092 -2.33823,-6.8886 -6.25966,-7.47146 -4.25488,-0.66419 -5.9262,2.90346 -7.5921,5.89503 -6.67579,12.20212 -9.26207,25.64723 -9.00995,39.25771 0.58557,30.63002 13.51695,55.02885 39.21705,72.37913 2.91973,1.99257 3.66932,3.98379 2.75436,6.8886 -1.75265,5.97772 -3.83875,11.78599 -5.67408,17.76371 -1.16843,3.81841 -2.9238,4.64797 -7.0106,2.98885 -14.09981,-5.89096 -26.28432,-14.60947 -37.04827,-25.14841 -18.27336,-17.68102 -34.79273,-37.18653 -55.40296,-52.4602 a 240.75409,240.75409 0 0 0 -14.68538,-10.04283 c -21.02637,-20.41775 2.75435,-37.18652 8.26036,-39.17638 5.75676,-2.07661 2.00341,-9.21327 -16.60612,-9.13059 -18.60682,0.0827 -35.62907,6.3071 -57.32098,14.60812 -3.17185,1.24706 -6.50771,2.1593 -9.93033,2.90347 -19.69121,-3.73574 -40.13336,-4.5653 -61.49453,-2.1593 -40.21876,4.47989 -72.33982,23.48929 -95.95247,55.9438 -28.3677,39.0178 -35.04485,83.33826 -26.86717,129.57136 8.59381,48.7204 33.45757,89.0612 71.67291,120.6034 39.63319,32.6985 85.27527,48.7204 137.3383,45.6489 31.62224,-1.8245 66.83517,-6.0563 106.55104,-39.6752 10.01301,4.9787 20.52484,6.9726 37.96458,8.4664 13.43427,1.247 26.367,-0.6642 36.38001,-2.7368 15.68709,-3.3196 14.6027,-17.8463 8.92726,-20.5004 -45.97146,-21.4127 -35.87983,-12.6982 -45.0565,-19.7536 23.36188,-27.6384 58.57481,-56.3572 72.34117,-149.4049 1.08439,-7.38469 0.16402,-12.03267 0,-18.01038 -0.0827,-3.64898 0.74959,-5.0614 4.92314,-5.47754 11.51354,-1.32973 22.69363,-4.47989 32.9574,-10.12687 29.7869,-16.26859 41.80333,-42.9948 44.64037,-75.03317 0.41614,-4.89604 -0.0827,-9.96015 -5.25795,-12.53151 z M 407.99723,1171.0234 c -44.55769,-35.0232 -66.16692,-46.5638 -75.09418,-46.065 -8.34304,0.4988 -6.84251,10.0442 -5.00718,16.2686 1.91802,6.1431 4.42432,10.3749 7.92691,15.7698 2.41955,3.5704 4.08952,8.8798 -2.41819,12.8677 -14.35058,8.8784 -39.29974,-2.9889 -40.46953,-3.5718 -29.03596,-17.0981 -53.31686,-39.6738 -70.42315,-70.5492 -16.51937,-29.7177 -26.11624,-61.5867 -27.69945,-95.619 -0.41749,-8.21565 2.00341,-11.12453 10.17838,-12.61557 10.76259,-1.99393 21.85999,-2.41006 32.62394,-0.83363 45.47264,6.64191 84.18681,26.977 116.64538,59.1807 18.52414,18.3412 32.54126,40.2568 46.97859,61.6695 15.35229,22.7424 31.87301,44.4072 52.89938,62.1695 7.42673,6.2244 13.34887,10.9565 19.02431,14.4441 -17.1063,1.9072 -45.64344,2.3233 -65.16521,-13.1157 z m 21.55094,-138.9636 c 0.70621,-2.8614 3.28164,-4.9583 6.40063,-4.9583 a 6.4250251,6.4250251 0 0 1 2.25147,0.4134 c 0.91902,0.3334 1.75265,0.8322 2.4209,1.5764 1.16708,1.1644 1.83534,2.8235 1.83534,4.5653 0,3.6531 -2.91973,6.5565 -6.5904,6.5565 a 6.435869,6.435869 0 0 1 -6.42231,-5.468 6.7910075,6.7910075 0 0 1 0.10437,-2.6853 z m 63.99,36.4831 c -3.53241,1.3501 -7.04855,2.4101 -10.44677,2.5483 -6.34234,0.3308 -13.26618,-2.242 -17.01954,-5.3962 -5.83945,-4.896 -10.01165,-7.6327 -11.7643,-16.1859 -0.75094,-3.6531 -0.3348,-9.296 0.33345,-12.5329 1.50189,-6.9726 -0.16808,-11.4552 -5.08851,-15.5217 -4.00412,-3.3196 -9.0967,-4.2319 -14.68538,-4.2319 -2.0861,0 -4.00412,-0.9122 -5.42332,-1.6591 -2.33687,-1.1603 -4.25489,-4.0665 -2.41955,-7.6368 0.58557,-1.1603 3.42261,-3.9838 4.09087,-4.4799 7.59075,-4.31725 16.35399,-2.9062 24.44492,0.3307 7.50941,3.0716 13.18485,8.7145 21.36117,16.682 8.34304,9.6267 9.84493,12.2849 14.6027,19.5056 3.75606,5.6429 7.17597,11.4552 9.51283,18.0931 1.18877,3.4714 0.0962,6.425 -3.1732,8.5084 -1.32974,0.8472 -2.85873,1.4151 -4.32537,1.9763 z"
         id="path2-5"
         style="fill:#000000;stroke-width:1.35549" /></g></g><style
     type="text/css"
     id="style1">
	.st0{fill:#000000;}
</style><style
     type="text/css"
     id="style1-2">
	.st0{fill:#000000;}
</style><style
     type="text/css"
     id="style1-3">
	.st0{fill:#000000;}
</style><style
     type="text/css"
     id="style1-29">
	.st0{fill:#000000;}
</style><style
     type="text/css"
     id="style1-0">
	.st0{fill:#000000;}
</style><style
     type="text/css"
     id="style1-6">

	.st0{fill:#DE5833;}

	.st1{fill:#FFFFFF;}

	.st2{fill-rule:evenodd;clip-rule:evenodd;fill:#FED30A;}

	.st3{fill:#2D4F8D;}

	.st4{fill:#D5D7D8;}

	.st5{fill:#67BD47;}

	.st6{fill:#43A347;}

	.st7{fill:#4C4C4C;}

</style><style
     type="text/css"
     id="style1-7">
	.st0{fill:#000000;}
</style></svg>
