<svg xmlns="http://www.w3.org/2000/svg" xml:space="preserve" width="512" height="376.785" viewBox="0 0 135.467 99.691"><g style="clip-rule:evenodd;fill-rule:evenodd;image-rendering:optimizeQuality;shape-rendering:geometricPrecision;text-rendering:geometricPrecision"><path fill="#4d6bfe" fill-rule="nonzero" d="M667.57 882.68c-5.422-2.659-7.757 2.407-10.927 4.978-1.086.83-2.005 1.907-2.92 2.902-7.927 8.467-17.189 14.028-29.288 13.364-17.686-.995-32.792 4.565-46.14 18.093-2.838-16.682-12.265-26.646-26.616-33.033-7.51-3.32-15.101-6.642-20.36-13.863-3.67-5.144-4.672-10.872-6.507-16.517-1.167-3.4-2.338-6.888-6.26-7.471-4.254-.664-5.926 2.903-7.592 5.895-6.675 12.202-9.262 25.647-9.01 39.258.586 30.63 13.517 55.029 39.217 72.379 2.92 1.992 3.67 3.984 2.755 6.888-1.753 5.978-3.839 11.786-5.674 17.764-1.169 3.819-2.924 4.648-7.01 2.99-14.1-5.892-26.285-14.61-37.05-25.15-18.273-17.68-34.792-37.186-55.402-52.46a241 241 0 0 0-14.686-10.042c-21.026-20.418 2.755-37.187 8.26-39.177 5.758-2.076 2.004-9.213-16.605-9.13-18.607.082-35.63 6.307-57.321 14.608-3.172 1.247-6.508 2.16-9.93 2.903-19.692-3.736-40.134-4.565-61.495-2.16-40.219 4.48-72.34 23.49-95.953 55.945-28.367 39.018-35.044 83.338-26.867 129.571 8.594 48.72 33.458 89.061 71.673 120.603 39.633 32.699 85.275 48.72 137.338 45.65 31.623-1.825 66.836-6.057 106.551-39.676 10.013 4.979 20.525 6.973 37.965 8.467 13.434 1.247 26.367-.665 36.38-2.737 15.687-3.32 14.603-17.847 8.927-20.5-45.971-21.413-35.88-12.699-45.056-19.754 23.362-27.639 58.575-56.357 72.341-149.405 1.084-7.385.164-12.033 0-18.01-.083-3.65.75-5.062 4.923-5.478 11.514-1.33 22.694-4.48 32.958-10.127 29.786-16.268 41.803-42.995 44.64-75.033.416-4.896-.083-9.96-5.258-12.532zm-259.573 288.343c-44.557-35.023-66.167-46.563-75.094-46.065-8.343.5-6.842 10.045-5.007 16.269 1.918 6.143 4.424 10.375 7.927 15.77 2.42 3.57 4.09 8.88-2.418 12.868-14.351 8.878-39.3-2.99-40.47-3.572-29.036-17.098-53.317-39.674-70.423-70.55-16.52-29.717-26.116-61.586-27.7-95.618-.417-8.216 2.004-11.125 10.179-12.616 10.762-1.994 21.86-2.41 32.624-.834 45.472 6.642 84.187 26.977 116.645 59.181 18.524 18.341 32.541 40.257 46.979 61.67 15.352 22.742 31.873 44.407 52.9 62.169 7.426 6.224 13.348 10.957 19.023 14.444-17.106 1.907-45.643 2.323-65.165-13.116m21.551-138.963c.706-2.862 3.282-4.958 6.4-4.958a6.4 6.4 0 0 1 2.252.413c.92.333 1.753.832 2.421 1.576 1.167 1.165 1.836 2.824 1.836 4.566 0 3.653-2.92 6.556-6.59 6.556a6.436 6.436 0 0 1-6.423-5.468 6.8 6.8 0 0 1 .104-2.685m63.99 36.483c-3.532 1.35-7.048 2.41-10.447 2.548-6.342.331-13.266-2.242-17.02-5.396-5.839-4.896-10.01-7.633-11.763-16.186-.751-3.653-.335-9.296.333-12.533 1.502-6.972-.168-11.455-5.088-15.522-4.005-3.32-9.097-4.231-14.686-4.231-2.086 0-4.004-.913-5.423-1.66-2.337-1.16-4.255-4.066-2.42-7.636.586-1.16 3.423-3.984 4.091-4.48 7.59-4.317 16.354-2.906 24.445.33 7.51 3.072 13.185 8.715 21.361 16.682 8.343 9.627 9.845 12.285 14.603 19.506 3.756 5.643 7.176 11.455 9.513 18.093 1.189 3.472.096 6.425-3.173 8.509-1.33.847-2.86 1.415-4.326 1.976" style="fill:#000;stroke-width:1.35549" transform="translate(-42.583 -225.174)scale(.26458)"/></g></svg>