<?xml version="1.0" encoding="UTF-8" standalone="no"?>
<svg
   width="64"
   height="64"
   version="1.1"
   viewBox="0 0 16.933 16.933"
   id="svg22"
   sodipodi:docname="deepseek.svg"
   inkscape:version="1.4.2 (ebf0e940d0, 2025-05-08)"
   xmlns:inkscape="http://www.inkscape.org/namespaces/inkscape"
   xmlns:sodipodi="http://sodipodi.sourceforge.net/DTD/sodipodi-0.dtd"
   xmlns="http://www.w3.org/2000/svg"
   xmlns:svg="http://www.w3.org/2000/svg">
  <sodipodi:namedview
     id="namedview22"
     pagecolor="#505050"
     bordercolor="#eeeeee"
     borderopacity="1"
     inkscape:showpageshadow="0"
     inkscape:pageopacity="0"
     inkscape:pagecheckerboard="0"
     inkscape:deskcolor="#505050"
     inkscape:zoom="5.1486213"
     inkscape:cx="126.73296"
     inkscape:cy="69.727404"
     inkscape:window-width="2822"
     inkscape:window-height="1368"
     inkscape:window-x="0"
     inkscape:window-y="0"
     inkscape:window-maximized="1"
     inkscape:current-layer="svg22" />
  <defs
     id="defs8">
    <filter
       id="filter1178"
       x="-0.047999482"
       y="-0.047999482"
       width="1.095999"
       height="1.095999"
       color-interpolation-filters="sRGB">
      <feGaussianBlur
         stdDeviation="0.30691668"
         id="feGaussianBlur1" />
    </filter>
    <linearGradient
       id="linearGradient1340"
       x1="8.6644"
       x2="8.6184"
       y1="15.931"
       y2="1.0002"
       gradientUnits="userSpaceOnUse"
       gradientTransform="translate(6.7586653,-17.950434)">
      <stop
         stop-color="#88c0d0"
         offset="0"
         id="stop1" />
      <stop
         stop-color="#5e81ac"
         offset="1"
         id="stop2" />
    </linearGradient>
    <linearGradient
       id="linearGradient6211"
       x1="51.452"
       x2="51.452"
       y1="15.579"
       y2="6.0308"
       gradientTransform="matrix(0.6852242,0,0,0.71492348,-10.576763,20.935377)"
       gradientUnits="userSpaceOnUse">
      <stop
         stop-color="#d8dee9"
         offset="0"
         id="stop3" />
      <stop
         stop-color="#eceff4"
         offset="1"
         id="stop4" />
    </linearGradient>
    <filter
       id="filter6493"
       x="-0.054993693"
       y="-0.117886"
       width="1.1099874"
       height="1.235772"
       color-interpolation-filters="sRGB">
      <feGaussianBlur
         stdDeviation="0.3404797"
         id="feGaussianBlur4" />
    </filter>
    <linearGradient
       id="linearGradient6941"
       x1="56.94"
       x2="56.191"
       y1="12.51"
       y2="6.0308"
       gradientTransform="matrix(0.6852242,0,0,0.71492348,-5.354239,17.122313)"
       gradientUnits="userSpaceOnUse">
      <stop
         stop-color="#e5e9f0"
         offset="0"
         id="stop5" />
      <stop
         stop-color="#eceff4"
         offset="1"
         id="stop6" />
    </linearGradient>
    <linearGradient
       id="linearGradient7190"
       x1="55.93"
       x2="55.93"
       y1="8.9684"
       y2="15.465"
       gradientTransform="matrix(0.6852242,0,0,0.71492348,-20.811147,25.678337)"
       gradientUnits="userSpaceOnUse">
      <stop
         stop-color="#eceff4"
         offset="0"
         id="stop7" />
      <stop
         stop-color="#d8dee9"
         offset="1"
         id="stop8" />
    </linearGradient>
    <filter
       id="filter7613"
       x="-0.11797314"
       y="-0.24955152"
       width="1.2359463"
       height="1.4858997"
       color-interpolation-filters="sRGB">
      <feGaussianBlur
         stdDeviation="0.38992158"
         id="feGaussianBlur8" />
    </filter>
    <filter
       id="filter1178-3"
       x="-0.047999482"
       y="-0.047999482"
       width="1.095999"
       height="1.095999"
       color-interpolation-filters="sRGB">
      <feGaussianBlur
         stdDeviation="0.30691668"
         id="feGaussianBlur3" />
    </filter>
    <linearGradient
       id="linearGradient1340-6"
       x1="8.3549995"
       x2="8.3996"
       y1="16.007"
       y2="0.79374999"
       gradientUnits="userSpaceOnUse"
       gradientTransform="translate(14.911777,13.412014)">
      <stop
         stop-color="#d8dee9"
         offset="0"
         id="stop4-7" />
      <stop
         stop-color="#eceff4"
         offset="1"
         id="stop5-5" />
    </linearGradient>
    <filter
       id="filter1321"
       x="-0.066691976"
       y="-0.085672019"
       width="1.133384"
       height="1.171344"
       color-interpolation-filters="sRGB">
      <feGaussianBlur
         stdDeviation="0.27168811"
         id="feGaussianBlur5" />
    </filter>
    <filter
       id="filter2347-3"
       x="-0.024545776"
       y="-0.029998631"
       width="1.0490916"
       height="1.0599973"
       color-interpolation-filters="sRGB">
      <feGaussianBlur
         stdDeviation="0.14938518"
         id="feGaussianBlur1-3" />
    </filter>
    <filter
       id="filter2161-7"
       x="-0.024009103"
       y="-0.03084203"
       width="1.0480182"
       height="1.0616841"
       color-interpolation-filters="sRGB">
      <feGaussianBlur
         stdDeviation="0.146119"
         id="feGaussianBlur2" />
    </filter>
    <linearGradient
       id="linearGradient2575"
       x1="26.221001"
       x2="26.221001"
       y1="14.474"
       y2="3.3043001"
       gradientTransform="matrix(0.69494,0,0,0.69494,-9.9592,2.4134)"
       gradientUnits="userSpaceOnUse">
      <stop
         stop-color="#2e3440"
         stop-opacity=".15"
         offset="0"
         id="stop2-5" />
      <stop
         stop-color="#2e3440"
         stop-opacity="0"
         offset="1"
         id="stop3-6" />
    </linearGradient>
  </defs>
  <rect
     x="0.0045001097"
     y="-0.02546921"
     width="16.924"
     height="16.927"
     fill="none"
     opacity="0.15"
     stroke-width="1.052"
     id="rect7"
     style="stroke-linecap:round;stroke-linejoin:round" />
  <path
     id="path2"
     style="fill:#dfe4ed;fill-opacity:1;stroke-width:1.44661"
     d="m 11.801106,2.2363904 c -0.122196,-0.0048 -0.174105,0.10459 -0.225759,0.197351 -0.22075,0.403538 -0.305855,0.848347 -0.297521,1.298482 0.01938,1.012979 0.447049,1.819843 1.296986,2.393633 0.09656,0.06588 0.121457,0.13196 0.09119,0.228001 -0.05798,0.197701 -0.12694,0.38912 -0.187633,0.586821 -0.03867,0.126304 -0.09662,0.154248 -0.231738,0.09943 -0.466307,-0.19486 -0.869957,-0.483445 -1.225971,-0.832018 -0.604314,-0.584703 -1.1506233,-1.229914 -1.8322273,-1.735048 a 7.970225,7.970225 0 0 0 -0.48515,-0.331912 c -0.695361,-0.675254 0.09079,-1.22968 0.272853,-1.295492 0.190426,-0.06866 0.06672,-0.304754 -0.548698,-0.302008 -0.6153598,0.0027 -1.1784147,0.208386 -1.8957682,0.482912 -0.1049083,0.04124 -0.2157492,0.07185 -0.3289192,0.09643 -0.6512447,-0.123556 -1.3268764,-0.151302 -2.0333167,-0.07177 -1.3300995,0.148161 -2.3924035,0.776834 -3.17332121,1.85017 -0.9381383,1.290383 -1.1592545,2.755923 -0.8888291,4.284917 0.284216,1.6112406 1.10663261,2.9457486 2.37045991,3.9888876 1.3107192,1.081405 2.820271,1.610819 4.5420713,1.50929 1.0458182,-0.06035 2.2104852,-0.200108 3.5239185,-1.311939 0.331144,0.164664 0.678359,0.23092 1.255125,0.280329 0.444282,0.04124 0.8724,-0.02193 1.203544,-0.09046 0.518793,-0.109798 0.482993,-0.590283 0.295279,-0.678022 -1.520327,-0.708159 -1.187138,-0.420033 -1.490601,-0.653352 0.772616,-0.914063 1.937623,-1.864024 2.392885,-4.9412586 0.03585,-0.244234 0.0055,-0.398123 0,-0.595791 -0.0027,-0.120706 0.02495,-0.167149 0.162964,-0.180907 0.380785,-0.04399 0.750472,-0.148143 1.089919,-0.334898 0.985066,-0.538006 1.382574,-1.422299 1.476397,-2.481843 0.01374,-0.161918 -0.003,-0.32908 -0.174177,-0.414139 -0.179313,-0.08794 -0.256228,0.07943 -0.361064,0.16446 -0.03592,0.02744 -0.06693,0.06278 -0.09718,0.09568 -0.262158,0.280016 -0.567936,0.464505 -0.968067,0.442546 -0.584903,-0.03291 -1.085045,0.150643 -1.526483,0.598034 -0.09386,-0.551699 -0.40525,-0.880934 -0.879859,-1.092161 -0.248366,-0.109798 -0.499612,-0.220182 -0.673535,-0.458991 -0.121371,-0.170119 -0.154607,-0.359018 -0.215294,-0.545706 -0.0386,-0.112445 -0.07736,-0.228158 -0.20707,-0.247439 -0.0088,-0.0014 -0.01727,-0.0019 -0.02542,-0.0022 z m -9.8047752,4.454609 c 0.1807441,-0.0052 0.3617356,0.0046 0.5397268,0.03065 1.5038246,0.219661 2.7838873,0.892034 3.8573216,1.957069 0.6126158,0.606563 1.0759079,1.3311366 1.5533945,2.0392956 0.507713,0.752111 1.054605,1.468327 1.749999,2.055743 0.245588,0.205837 0.4410033,0.362361 0.6286833,0.47768 -0.5657213,0.06307 -1.5095463,0.07702 -2.1551663,-0.433574 C 6.6967237,11.659601 5.982181,11.2779 5.6869519,11.29437 5.4110366,11.3109 5.461059,11.626764 5.5217444,11.832601 c 0.063434,0.203158 0.1457911,0.343364 0.2616402,0.521785 0.080027,0.118072 0.1352438,0.293462 -0.079983,0.425351 C 5.2287924,13.073349 4.4039932,12.680879 4.3652992,12.661625 3.4050378,12.096168 2.6016745,11.349658 2.0359549,10.328544 1.4896142,9.3457584 1.1725992,8.2919244 1.1202144,7.1664374 c -0.013743,-0.271716 0.066038,-0.368568 0.3363953,-0.417878 0.177958,-0.03297 0.3589813,-0.0524 0.5397254,-0.05756 z m 7.3371349,0.496369 c 0.137284,0.0072 0.276611,0.04594 0.410401,0.09943 0.248368,0.101596 0.4360373,0.288206 0.7064293,0.551688 0.275916,0.318379 0.325559,0.40632 0.482913,0.64513 0.124221,0.186621 0.236682,0.378506 0.313969,0.598034 0.03932,0.114832 0.0035,0.212902 -0.104663,0.281823 -0.04399,0.02801 -0.09429,0.04648 -0.14278,0.06504 -0.116814,0.04464 -0.232956,0.07991 -0.345365,0.08447 -0.209739,0.011 -0.438751,-0.07436 -0.562901,-0.178662 -0.1931053,-0.161918 -0.3314953,-0.25238 -0.3894703,-0.535241 -0.02484,-0.120807 -0.01085,-0.307085 0.01128,-0.414139 0.04968,-0.230574 -0.0055,-0.37906 -0.168196,-0.513562 -0.132452,-0.109798 -0.301066,-0.139786 -0.485903,-0.139786 -0.06899,0 -0.132481,-0.02986 -0.17941,-0.05457 -0.07729,-0.03836 -0.140683,-0.134593 -0.07998,-0.25267 0.01938,-0.03836 0.113197,-0.132351 0.135301,-0.148761 0.125508,-0.07139 0.261157,-0.0954 0.398441,-0.08822 z m -0.238465,0.870888 a 0.21165743,0.21165743 0 0 1 0.07475,0.01345 c 0.03042,0.011 0.05789,0.02772 0.07998,0.05232 0.0386,0.03852 0.06056,0.09339 0.06056,0.151004 0,0.120806 -0.09692,0.216788 -0.218283,0.216788 a 0.21284801,0.21284801 0 0 1 -0.212302,-0.180907 0.22488602,0.22488602 0 0 1 0.0038,-0.08895 c 0.02335,-0.09465 0.108438,-0.163712 0.211555,-0.163712 z" />
</svg>
