<svg xmlns="http://www.w3.org/2000/svg" xml:space="preserve" width="77.211" height="128" viewBox="0 0 20.429 33.867"><path d="M-2701.038-9178.716a2.88 2.88 0 0 1-2.155-2.785c0-.3 0-.302-.234-.346-.492-.092-1.766-.558-2.544-.932-1.32-.634-2.589-1.488-3.405-2.291-1.006-.99-1.163-2.476-.381-3.616a2.9 2.9 0 0 1 1.45-1.068c.353-.107.551-.128 1.013-.107.723.033 1.155.228 1.916.865.632.528 1.617 1.142 2.045 1.274l.14.043v-5.376l-.171-.04c-2.254-.518-4.118-1.6-5.382-3.124-2.663-3.212-2.456-7.645.494-10.576 1.22-1.213 2.747-2.059 4.516-2.502l.543-.137v-.27c0-1.71 1.596-3.074 3.252-2.778a2.89 2.89 0 0 1 2.369 2.85c0 .2 0 .202.474.307 1.505.335 3.099 1.067 4.396 2.02.61.447 1.539 1.393 1.793 1.824a2.77 2.77 0 0 1-.425 3.363c-.597.607-1.234.847-2.142.807-.799-.035-1.246-.25-1.967-.948-.295-.287-.663-.606-.818-.71-.319-.213-1.15-.642-1.247-.642-.043 0-.064.912-.064 2.745v2.746l.265.067c1.256.314 2.546.865 3.468 1.478 1.06.706 2.153 1.905 2.758 3.028 1.167 2.168 1.198 4.85.082 7.076-1.131 2.254-3.392 3.962-6.112 4.62l-.444.106-.039.418c-.056.6-.192 1.004-.488 1.448a3 3 0 0 1-1.35 1.062c-.44.166-1.178.213-1.606.101zm4.019-9.177c.184-.11.462-.34.618-.512 1.081-1.19.734-2.781-.802-3.674a2 2 0 0 0-.328-.166c-.024 0-.041 1.042-.041 2.317 0 2.628-.061 2.402.553 2.035zm-6.174-13.345c0-1.27-.016-2.31-.033-2.31a3 3 0 0 0-.334.152c-.447.227-.956.724-1.199 1.171-.198.366-.213.434-.213.957 0 .507.021.603.2.968.11.223.32.523.468.667.25.242.946.706 1.061.706.028 0 .051-1.04.051-2.31z" style="fill:#eceff4;fill-opacity:1;stroke:none;stroke-width:.0624461;stroke-dasharray:none;stroke-opacity:1" transform="translate(2710.612 9212.522)"/></svg>