<svg xmlns="http://www.w3.org/2000/svg" xml:space="preserve" width="128.001" height="123.426" viewBox="0 0 33.867 32.656"><path d="M-2691.855-9269.143q1.058-1.285 0-2.57-1.286-1.059-2.57 0l-10.81 10.81-4.763-4.763q-1.285-1.058-2.57 0-1.059 1.285 0 2.57l6.047 6.048q1.285 1.059 2.57 0zm7.862 9.072q1.058-1.286 0-2.57-1.286-1.06-2.57 0l-18.673 18.671-8.996-8.996q-1.285-1.058-2.57 0-1.058 1.285 0 2.57l10.281 10.282q1.285 1.058 2.57 0z" style="fill:#eceff4;fill-opacity:1;stroke:none;stroke-width:1.34736;stroke-dasharray:none;stroke-opacity:1" transform="translate(2717.33 9272.242)"/></svg>