<svg xmlns="http://www.w3.org/2000/svg" xml:space="preserve" width="512" height="480.613" viewBox="0 0 135.467 127.162"><path d="M442.973 250.491c-25.635 18.05-196.165 53.474-141.134-74.936 3.975-11.693 6.732-29.452 6.732-42.457 0-64.839-53.389-117.403-119.24-117.403-50.361 0-93.398 30.764-110.867 74.224-34.196 6.826-42.062-6.929-48.861-22.794-7.342-17.12-26.094-12.227-29.348 9.79-2.288 15.462 10.727 57.347 44.004 70.52-9.423 4.482-17.365 10.671-24.444 18.754-9.507 10.877 2.654 29.198 16.147 24.566 12.733-4.37 32.433-6.001 45.419-6.358 5.814 13.109 13.09 24.398 19.972 33.568 7.351 9.799-3.319 16.916-25.936 53.812-30.979 50.549-35.874 117.403 2.992 165.822 46.497 57.937 139.418 58.706 242.137 58.706 141.998 0 178.706-146.076 188.466-205.456 12.517-76.147-15.199-76.147-66.039-40.358M153.119 131.945c-10.802 0-19.559-8.758-19.559-19.569 0-10.802 8.758-19.569 19.559-19.569 10.811 0 19.569 8.767 19.569 19.569 0 10.811-8.758 19.569-19.569 19.569" style="fill:#000" transform="translate(0 -4.152)scale(.26458)"/></svg>