<svg xmlns="http://www.w3.org/2000/svg" xml:space="preserve" width="113.917" height="128" viewBox="0 0 30.141 33.867"><g style="fill:#eceff4;fill-opacity:1"><path d="M-1130.435-717.057c-11.207-5.6-14.869-11.44-19.544-31.17-1.56-6.583-7.754-29.997-13.766-52.033s-11.994-44.748-13.293-50.472c-1.299-5.723-5.709-22.582-9.799-37.463-7.767-28.258-10.841-39.785-22.363-83.858-7.588-29.025-7.695-30.384-3.109-39.46 3.027-5.987 8.067-10.799 14-13.365 2.576-1.114 21.307-6.482 41.626-11.93s58.016-15.568 83.772-22.491c58.044-15.6 61.03-16.234 68.938-14.622 3.294.672 7.478 2.129 9.299 3.237 3.818 2.326 8.99 7.954 11.153 12.136 1.742 3.37 10.464 34.245 13.242 46.879 1.05 4.779 5.734 22.574 10.408 39.545 4.673 16.97 11.66 43.265 15.528 58.433 3.867 15.167 9.924 37.88 13.459 50.471 10.81 38.51 17.713 67.45 17.713 74.27 0 11.859-8.804 23.461-20.2 26.62-23.975 6.646-90.331 24.478-93.23 25.054-4.406.875-32.862 8.464-63.993 17.066-26.878 7.427-30.686 7.728-39.841 3.153" style="opacity:1;fill:#eceff4;fill-opacity:1;stroke:none;stroke-width:1.04065;stroke-dasharray:none;stroke-opacity:1" transform="translate(80.766 71.404)scale(.06645)"/><path d="M-953.756-662.317c-7.155-1.879-26.355-7.201-42.667-11.828s-33.873-9.434-39.024-10.682-20.856-5.487-34.9-9.42-26.22-7.178-27.057-7.21c-2.15-.084 24.124-7.426 46.347-12.951 10.303-2.562 24.586-6.254 31.74-8.205 49.045-13.372 60.514-16.425 74.406-19.806 8.586-2.09 18.595-5.245 22.243-7.013 8.844-4.287 17.671-13.21 22.127-22.369 3.266-6.714 3.465-7.758 3.434-18.053-.03-10.674-.29-11.854-11.232-50.992-6.16-22.035-11.85-43.108-12.642-46.829-1.34-6.283-3.884-15.796-18.229-68.162-2.979-10.875-6.46-24.37-7.736-29.99l-2.32-10.219 2.698.636c1.484.35 21.898 5.975 45.365 12.5 23.466 6.525 44.54 12.348 46.829 12.939 9.762 2.52 18.211 14.77 18.211 26.4 0 7.81-4.655 26.628-21.78 88.045-5.17 18.54-9.703 35.4-10.072 37.464-.37 2.064-5.807 22.248-12.084 44.852-6.277 22.605-12.239 44.848-13.248 49.431-3.06 13.895-12.375 46.076-14.597 50.432-7.392 14.49-20.56 17.66-45.812 11.03" style="opacity:1;fill:#eceff4;fill-opacity:1;stroke:none;stroke-width:1.04065;stroke-dasharray:none;stroke-opacity:1" transform="translate(80.766 71.404)scale(.06645)"/><path d="M-981.576-565.223c-2.422-.427-6.16-1.609-8.304-2.627-2.406-1.141-26.274-24.098-62.324-59.943-32.134-31.951-59.305-58.795-60.379-59.653-1.786-1.426-1.553-1.502 2.73-.883 3.91.565 37.396 9.72 75.967 20.768 4.865 1.394 13.04 3.5 18.168 4.682 5.127 1.181 21.517 5.61 36.422 9.842 14.906 4.231 29.978 8.428 33.495 9.325 21.299 5.433 42.037-3.214 51.393-21.428 3.001-5.843 16.858-53.738 24.79-85.69 2.274-9.157 8.326-31.635 13.449-49.95s10.164-36.813 11.203-41.106 3.11-12.408 4.604-18.033l2.716-10.228 35.343 36.075c22.958 23.432 36.233 37.775 37.881 40.927 3.267 6.247 3.474 17.136.454 23.932-1.524 3.43-25.149 27.663-98.758 101.3-53.214 53.234-98.668 97.917-101.007 99.294-5.294 3.117-12.087 4.41-17.843 3.396" style="opacity:1;fill:#eceff4;fill-opacity:1;stroke:none;stroke-width:1.04065;stroke-dasharray:none;stroke-opacity:1" transform="translate(80.766 71.404)scale(.06645)"/></g></svg>