<svg xmlns="http://www.w3.org/2000/svg" xml:space="preserve" width="128" height="61.934" viewBox="0 0 33.867 16.387"><path d="M252 128a60 60 0 0 1-102.426 42.426q-.257-.257-.498-.529l-59.86-67.59a36 36 0 1 0 0 51.387l3.085-3.484a12 12 0 0 1 17.967 15.912l-3.344 3.775q-.24.272-.498.53a60 60 0 1 1 0-84.853q.257.257.498.53l59.86 67.59a36 36 0 1 0 0-51.388l-3.085 3.484a12 12 0 0 1-17.967-15.912l3.344-3.775q.24-.272.498-.53A60 60 0 0 1 252 128" style="fill:#eceff4;fill-opacity:1" transform="translate(-.546 -9.286)scale(.13656)"/></svg>