<svg xmlns="http://www.w3.org/2000/svg" xml:space="preserve" width="128" height="48.379" viewBox="0 0 33.867 12.8"><path d="M-2695.04-8887.79c-2.09-.387-3.52-.802-6.976-2.023-7.164-2.533-8.36-2.495-12.829.4-.973.63-1.866 1.146-1.984 1.146-.375 0-.506-.963-.502-3.685 0-2.313.06-2.781.439-3.731.598-1.495 2.034-3.022 3.496-3.715 3.398-1.614 7.535-1.222 14.194 1.343 3.378 1.301 4.959 1.684 6.997 1.696 2.6.016 4.276-.7 6.896-2.944l1.04-.89.345 1.097c1.328 4.228-.318 8.983-3.673 10.604-.988.478-2.305.782-3.711.888-1.23.093-2.527.036-3.731-.186" style="fill:#eceff4;fill-opacity:1;stroke:none;stroke-width:1.50588;stroke-dasharray:none;stroke-opacity:1" transform="translate(2717.33 8900.36)"/></svg>