<svg xmlns="http://www.w3.org/2000/svg" xml:space="preserve" width="108.649" height="128" viewBox="0 0 28.747 33.867"><path d="m-2707.867-9333.172.145 4.4-.08 2.186-4.806 3.912 2.879-.677v.17c-3.977 1.54-4.964 6.977-4.968 10.667 0 1.22-.327 3.006.396 4.064l1.185-3.725h.169c-.068 3.314-.522 6.789.677 9.99h.17c0-3.504-.076-7.13 1.567-10.329.932-1.815 2.59-3.124 3.512-4.91l-4.233 1.523c2.128-3.018 5.319-3.725 8.466-5.08l-3.217-.677v-.169c2.244-.097 4.302-.758 6.435.362 2.048 1.075 3.368 3.188 5.08 4.687 1.86 1.629 4.333 2.4 6.773 2.402v.169c-2.196.094-4.425.415-6.604-.072-1.742-.39-4.034-1.594-5.754-.567-1.761 1.05-2.537 3.625-2.543 5.55-.016 4.683 4.005 8.93 8.467 9.99-1.192-1.558-3.097-2.604-3.726-4.572 3.206.741 6.231.782 9.483.169v-.169c-4.492-.568-13.81-2.68-11.176-9.144h.169v1.355c1.326-.44 2.265-1.506 3.725-1.664 3.258-.354 7.335 1.709 9.652-1.554-1.71-1.055-3.59-2.237-4.777-3.894-1.021-1.426-1.398-3.305-2.69-4.541-1.828-1.75-4.551-2.22-6.418-3.942-2.472-2.28-4.484-5.085-7.959-5.91m13.208 8.297c.238-1.492-.049-3.638-.889-4.911-.288-.438-1.292-1.636-1.46-1.595-.148.037-1.794 3.278-1.346 4.128.588 1.113 2.58 1.91 3.695 2.378m-14.901 1.354-.17.17zm-3.218 10.838v.508h-.168z" style="fill:#eceff4;fill-opacity:1;stroke:none;stroke-width:.48" transform="translate(2714.77 9333.173)"/></svg>