<?xml version="1.0" encoding="UTF-8" standalone="no"?>
<svg
   viewBox="0 0 24 24"
   version="1.1"
   id="svg3"
   sodipodi:docname="network-wifi-medium-secure.svg"
   inkscape:version="1.4.2 (ebf0e940d0, 2025-05-08)"
   xmlns:inkscape="http://www.inkscape.org/namespaces/inkscape"
   xmlns:sodipodi="http://sodipodi.sourceforge.net/DTD/sodipodi-0.dtd"
   xmlns="http://www.w3.org/2000/svg"
   xmlns:svg="http://www.w3.org/2000/svg">
  <defs
     id="defs3" />
  <sodipodi:namedview
     id="namedview3"
     pagecolor="#505050"
     bordercolor="#eeeeee"
     borderopacity="1"
     inkscape:showpageshadow="0"
     inkscape:pageopacity="0"
     inkscape:pagecheckerboard="0"
     inkscape:deskcolor="#505050"
     inkscape:zoom="49.25"
     inkscape:cx="12"
     inkscape:cy="12"
     inkscape:window-width="2200"
     inkscape:window-height="1368"
     inkscape:window-x="0"
     inkscape:window-y="0"
     inkscape:window-maximized="1"
     inkscape:current-layer="svg3" />
  <g
     transform="translate(-81 -525.36)"
     id="g1">
    <path
       d="m102 532.48c-2.601-1.979-5.69-3.121-9-3.121s-6.399 1.142-9 3.121l9 12.879z"
       fill="#d8dee9"
       opacity=".4"
       id="path1" />
  </g>
  <path
     d="m20 14c-1.108 0-2 0.911-2 2.031v0.969c-0.554 0-1 0.446-1 1v3c0 0.554 0.446 1 1 1h4c0.554 0 1-0.446 1-1v-3c0-0.554-0.446-1-1-1v-0.969c0-1.12-0.892-2.031-2-2.031m0 1c0.554 0 1 0.442 1 1v1h-2v-1c0-0.558 0.446-1 1-1z"
     fill="#d8dee9"
     id="path2"
     style="fill:#a3be8c;fill-opacity:1" />
  <path
     d="m16.5 13.561c-1.301-0.99-2.845-1.561-4.5-1.561s-3.199 0.571-4.5 1.561l4.5 6.439"
     fill="#d8dee9"
     id="path3" />
</svg>
