<svg xmlns="http://www.w3.org/2000/svg" xml:space="preserve" width="128" height="120" viewBox="0 0 33.867 31.75"><g fill="#2e3440"><path d="M1129.492-3296.807c-.995 0-1.654.658-1.654 1.653v8.268c0 .993.658 1.653 1.654 1.653h6.614v-1.653h-4.134v-1.654h-.827v-1.653h-1.653v-3.307c0-1.486 0-1.654.827-1.654h8.267c.827 0 .827.165.827 1.654v2.48c.77.151 1.392 1.028 1.654 1.754v-5.888c0-.995-.66-1.653-1.654-1.653z" color="#bebebe" style="fill:#eceff4;fill-opacity:1;stroke-width:.826771" transform="translate(-2887.26 8439.805)scale(2.56)"/><path d="M1138.998-3289.92c-.762 0-1.376.629-1.376 1.402v.805a.69.69 0 0 0-.69.689v1.93c0 .381.308.689.69.689h2.757a.69.69 0 0 0 .689-.689v-1.93a.69.69 0 0 0-.69-.689v-.804a1.39 1.39 0 0 0-1.38-1.404m0 .691c.385 0 .692.304.692.69v.826h-1.38v-.827c0-.385.307-.689.688-.689" style="fill:#a3be8c;fill-opacity:1;stroke-width:.826771" transform="translate(-2887.26 8439.805)scale(2.56)"/></g></svg>