<?xml version="1.0" encoding="UTF-8" standalone="no"?>
<svg
   viewBox="0 0 24 24"
   version="1.1"
   id="svg2"
   sodipodi:docname="network-eternet-secure.svg"
   inkscape:version="1.4.2 (ebf0e940d0, 2025-05-08)"
   xmlns:inkscape="http://www.inkscape.org/namespaces/inkscape"
   xmlns:sodipodi="http://sodipodi.sourceforge.net/DTD/sodipodi-0.dtd"
   xmlns="http://www.w3.org/2000/svg"
   xmlns:svg="http://www.w3.org/2000/svg">
  <defs
     id="defs2" />
  <sodipodi:namedview
     id="namedview2"
     pagecolor="#505050"
     bordercolor="#eeeeee"
     borderopacity="1"
     inkscape:showpageshadow="0"
     inkscape:pageopacity="0"
     inkscape:pagecheckerboard="0"
     inkscape:deskcolor="#505050"
     inkscape:zoom="24.625001"
     inkscape:cx="13.15736"
     inkscape:cy="7.9999998"
     inkscape:window-width="1703"
     inkscape:window-height="1368"
     inkscape:window-x="0"
     inkscape:window-y="0"
     inkscape:window-maximized="1"
     inkscape:current-layer="svg2" />
  <path
     d="m5 4c-1.203 0-2 0.797-2 2v12c0 1.202 0.795 2 2 2h11v-2h-8v-2h-1v-2h-2v-6c0-1.797 0-2 1-2h12c1 0 1 0.2 1 2v5h2v-7c0-1.203-0.797-2-2-2z"
     color="#bebebe"
     fill="#d8dee9"
     id="path1"
     style="fill:#a3be8c;fill-opacity:1" />
  <path
     d="m20 14c-1.108 0-2 0.911-2 2.031v0.969c-0.554 0-1 0.446-1 1v3c0 0.554 0.446 1 1 1h4c0.554 0 1-0.446 1-1v-3c0-0.554-0.446-1-1-1v-0.969c0-1.12-0.892-2.031-2-2.031zm0 1c0.554 0 1 0.442 1 1v1h-2v-1c0-0.558 0.446-1 1-1z"
     fill="#d8dee9"
     id="path2"
     style="fill:#a3be8c;fill-opacity:1" />
</svg>
