<?xml version="1.0" encoding="UTF-8" standalone="no"?>
<!-- Created with Inkscape (http://www.inkscape.org/) -->

<svg
   width="128"
   height="128"
   viewBox="0 0 33.866665 33.866667"
   version="1.1"
   id="svg1"
   xml:space="preserve"
   xmlns:xlink="http://www.w3.org/1999/xlink"
   xmlns="http://www.w3.org/2000/svg"
   xmlns:svg="http://www.w3.org/2000/svg"><defs
     id="defs1"><linearGradient
       id="swatch59"><stop
         style="stop-color:#92bcba;stop-opacity:1;"
         offset="0"
         id="stop59" /></linearGradient><linearGradient
       id="linearGradient1340-8"
       x1="8.5010996"
       x2="8.4890003"
       y1="16.007"
       y2="0.79374999"
       gradientUnits="userSpaceOnUse"
       gradientTransform="matrix(2.2456511,0,0,2.2456511,-2432.8886,-9112.3701)"><stop
         stop-color="#2e3440"
         offset="0"
         id="stop1-71" /><stop
         stop-color="#4c566a"
         offset="1"
         id="stop2-72" /></linearGradient><style
       id="style1-6">
      .cls-1 {
        fill: none;
        stroke: #20808d;
        stroke-miterlimit: 10;
      }

      .cls-2 {
        fill: #13343b;
        stroke-width: 0px;
      }
    </style><linearGradient
       xlink:href="#linearGradient1340-8"
       id="linearGradient13"
       gradientUnits="userSpaceOnUse"
       gradientTransform="matrix(2.2456511,0,0,2.2456511,-2173.2513,-9648.5233)"
       x1="8.5010996"
       y1="16.007"
       x2="8.4890003"
       y2="0.79374999" /><filter
       style="color-interpolation-filters:sRGB"
       id="filter14"
       x="-0.02879874"
       y="-0.025412747"
       width="1.0575975"
       height="1.0508255"><feGaussianBlur
         stdDeviation="0.23813438"
         id="feGaussianBlur16" /></filter><filter
       style="color-interpolation-filters:sRGB"
       id="filter16"
       x="-0.02879874"
       y="-0.025412747"
       width="1.0575975"
       height="1.0508255"><feGaussianBlur
         stdDeviation="0.23813438"
         id="feGaussianBlur17" /></filter></defs><g
     id="layer1"
     transform="translate(2221.055,9455.4236)"><g
       id="g49"
       transform="translate(-49.884297,191.01973)"><rect
         x="-2171.1709"
         y="-9646.4434"
         width="33.866665"
         height="33.866665"
         rx="6.7369533"
         ry="6.7369533"
         fill="url(#linearGradient1340)"
         stroke-width="2.7563"
         id="rect5-06-6"
         style="fill:url(#linearGradient13);stroke-linecap:round;stroke-linejoin:round" /><g
         id="g45"
         transform="translate(50.137134,-54.259127)"><g
           id="g19"><path
             id="rect14-4"
             style="opacity:0.15;fill:#4c566a;fill-opacity:1;stroke-width:0.388772;stroke-linecap:round;stroke-linejoin:round;filter:url(#filter16)"
             d="m -2204.8731,-9586.4955 -0.01,0.5664 c -0.01,0.3115 -0.014,0.9868 -0.019,1.5007 -0.01,0.5138 -0.02,1.5035 -0.033,2.1993 -0.013,0.6958 -0.024,1.3268 -0.024,1.4023 0,0.1121 0,0.1348 -0.023,0.124 -0.013,-0.01 -0.099,-0.084 -0.1929,-0.1703 -0.093,-0.086 -0.1781,-0.1645 -0.188,-0.1736 -0.2834,-0.2605 -0.7505,-0.6885 -0.7941,-0.7276 -0.066,-0.059 -0.4781,-0.4369 -0.7956,-0.729 -0.1277,-0.1175 -0.31,-0.2843 -0.4051,-0.3707 -0.1573,-0.143 -0.3754,-0.3433 -0.3961,-0.3638 0,0 -0.086,-0.079 -0.1819,-0.1654 -0.2002,-0.1812 -0.2455,-0.2224 -0.538,-0.4895 -0.1185,-0.1082 -0.2895,-0.2637 -0.38,-0.3456 -0.148,-0.1338 -0.3668,-0.3341 -0.3884,-0.3555 0,0 -0.042,-0.038 -0.083,-0.074 -0.067,-0.059 -0.1876,-0.1681 -0.5038,-0.4548 -0.055,-0.05 -0.1628,-0.1467 -0.239,-0.2149 -0.076,-0.068 -0.1469,-0.1315 -0.157,-0.1406 -0.01,-0.01 -0.081,-0.072 -0.1585,-0.1406 -0.077,-0.068 -0.1557,-0.1389 -0.1749,-0.1571 -0.053,-0.051 -0.5096,-0.452 -0.6751,-0.5938 -0.085,-0.073 -0.1538,-0.1202 -0.1621,-0.1118 -0.02,0.019 -0.057,0.484 -0.078,0.9619 -0.021,0.4909 -0.045,1.6582 -0.076,3.8356 -0.014,0.9409 -0.026,1.7121 -0.028,1.7138 0,0 -0.706,0.032 -1.8309,0.073 -0.4866,0.018 -0.8866,0.033 -0.8889,0.033 0,0 0,2.2289 0,4.9529 v 4.9527 h 1.4038 1.4039 l 0.01,2.3936 c 0,1.3469 0.016,2.5744 0.026,2.8071 0.018,0.404 0.043,0.7092 0.061,0.7384 0.011,0.018 0.057,-0.015 0.2477,-0.1793 v 0 c 0.1253,-0.1079 0.3385,-0.2953 0.4104,-0.3609 0.01,-0.01 0.1821,-0.1628 0.3822,-0.3413 0.2001,-0.1786 0.3787,-0.3385 0.3968,-0.3554 0.018,-0.017 0.1596,-0.1459 0.3142,-0.2868 0.1547,-0.1408 0.2849,-0.2598 0.2894,-0.2645 0,0 0.053,-0.049 0.1076,-0.1 0.163,-0.1492 0.4421,-0.4039 0.462,-0.4217 0.036,-0.032 0.2338,-0.2142 0.3401,-0.3132 0.059,-0.055 0.1485,-0.1374 0.1986,-0.1829 0.05,-0.046 0.1765,-0.1614 0.2809,-0.2577 0.687,-0.6326 1.1296,-1.041 1.2153,-1.1213 0.055,-0.051 0.1848,-0.1709 0.2894,-0.2663 0.1046,-0.095 0.2385,-0.2186 0.2977,-0.2738 0.059,-0.055 0.1557,-0.1446 0.2147,-0.1986 0.059,-0.054 0.1558,-0.1435 0.215,-0.1988 0.059,-0.055 0.2193,-0.2034 0.3557,-0.329 0.1365,-0.1256 0.2837,-0.2618 0.3272,-0.3026 0.043,-0.041 0.082,-0.071 0.085,-0.068 0.01,0.01 0.057,2.7584 0.067,3.8675 0,0.5321 0.013,1.1925 0.018,1.4677 l 0.01,0.5002 h 0.4926 0.4925 l 0.01,-2.4019 c 0.01,-2.4111 0.015,-2.6802 0.07,-2.9346 0.031,-0.1434 0.067,-0.196 0.1246,-0.1816 0.048,0.012 0.7182,0.5715 1.1133,0.9292 0.01,0.01 0.081,0.072 0.1587,0.1406 0.077,0.068 0.1442,0.1278 0.1488,0.1325 0,0 0.072,0.064 0.1488,0.1323 0.077,0.068 0.1443,0.1276 0.1488,0.1322 0,0 0.1459,0.1309 0.3142,0.2807 0.1682,0.1497 0.3097,0.2765 0.3142,0.2816 0,0.01 0.075,0.068 0.1571,0.14 0.082,0.072 0.2232,0.1983 0.3142,0.2812 0.091,0.083 0.2584,0.232 0.3721,0.3314 0.1137,0.099 0.2104,0.1849 0.2149,0.19 0,0 0.1162,0.1054 0.2481,0.223 0.1319,0.1176 0.2435,0.2179 0.248,0.2227 0,0 0.072,0.065 0.1488,0.1328 0.077,0.068 0.1702,0.1509 0.2067,0.1836 0.036,0.033 0.2039,0.181 0.3721,0.3295 0.1683,0.1485 0.3608,0.3189 0.4279,0.3787 0.067,0.06 0.1571,0.1385 0.2001,0.1748 0.081,0.068 0.5402,0.4659 0.5729,0.4958 0.045,0.041 0.2057,0.1752 0.3431,0.2862 0.1146,0.093 0.152,0.1151 0.1621,0.097 0.052,-0.092 0.08,-1.4854 0.08,-3.9424 v -1.9885 h 1.4056 1.4056 v -4.961 -4.9609 h -1.0731 -1.0731 l -0.01,-2.5012 c 0,-1.3756 -0.016,-2.6834 -0.026,-2.9062 -0.034,-0.7889 -0.073,-1.1741 -0.1166,-1.1741 -0.034,0 -0.4656,0.34 -1.2991,1.0243 -0.3114,0.2556 -1.42,1.1788 -1.4304,1.1911 0,0.01 -0.1459,0.1246 -0.3142,0.2649 -0.1683,0.1402 -0.3655,0.3066 -0.4382,0.3696 -0.1683,0.1458 -0.1846,0.1597 -0.3638,0.3087 -0.082,0.068 -0.1526,0.1275 -0.1571,0.1321 0,0 -0.068,0.056 -0.1406,0.1153 -0.073,0.059 -0.136,0.111 -0.1405,0.1159 0,0.01 -0.049,0.042 -0.099,0.083 -0.05,0.041 -0.099,0.082 -0.1094,0.091 -0.042,0.038 -0.2009,0.1708 -0.2962,0.2481 -0.056,0.046 -0.1462,0.1199 -0.2005,0.1654 -0.054,0.046 -0.2387,0.198 -0.4101,0.339 -0.1714,0.141 -0.3812,0.3142 -0.4661,0.385 -0.3691,0.3078 -1.1055,0.8883 -1.1205,0.8833 -0.026,-0.01 -0.042,-0.088 -0.068,-0.3423 -0.052,-0.5142 -0.061,-0.9548 -0.07,-3.1626 l -0.01,-2.2448 h -0.4923 z m -5.6364,2.282 c 0.01,0 0.023,0.013 0.04,0.029 0.016,0.016 0.1,0.092 0.1856,0.1695 0.2393,0.216 0.3376,0.3051 0.3467,0.3142 0.023,0.023 0.3806,0.3485 0.4371,0.3979 0.036,0.031 0.1139,0.1022 0.1736,0.1577 0.06,0.056 0.1495,0.1367 0.1996,0.1803 0.05,0.044 0.1616,0.1441 0.248,0.2232 0.086,0.079 0.1869,0.1691 0.2233,0.2 0.036,0.031 0.07,0.06 0.074,0.065 0,0 0.057,0.053 0.1161,0.1076 0.059,0.054 0.1805,0.1646 0.2692,0.2456 0.089,0.081 0.1755,0.1596 0.193,0.1748 0.031,0.027 0.2968,0.2732 0.5358,0.4965 0.063,0.059 0.1309,0.1224 0.1505,0.1406 0.019,0.018 0.094,0.088 0.1667,0.1563 0.1346,0.1263 0.2754,0.2578 0.4789,0.4473 0.2246,0.209 0.6282,0.5886 0.7514,0.7065 l 0.1248,0.1194 h -0.1489 c -0.082,0 -0.5617,-0.011 -1.0664,-0.023 v 0 c -0.5048,-0.011 -1.4757,-0.03 -2.1578,-0.041 -0.6821,-0.011 -1.2414,-0.021 -1.2429,-0.022 0,0 -0.034,-1.2457 -0.063,-2.5903 -0.013,-0.6139 -0.029,-1.2372 -0.035,-1.385 -0.01,-0.1477 -0.01,-0.2687 -6e-4,-0.2687 z m 12.6519,0.036 c 0,0 0.018,0.5079 0.033,1.1218 0.029,1.163 0.041,2.9798 0.019,3.0699 -0.01,0.033 -0.025,0.056 -0.049,0.062 -0.062,0.018 -1.4537,0.024 -2.3266,0.01 -0.9398,-0.015 -2.6021,-0.051 -2.6091,-0.058 0,0 0.1605,-0.1447 0.3623,-0.3165 0.2018,-0.1718 0.375,-0.3199 0.3849,-0.3291 0.01,-0.01 0.1632,-0.1393 0.3406,-0.289 0.1773,-0.1497 0.3261,-0.2763 0.3307,-0.2815 0,-0.01 0.131,-0.1131 0.2811,-0.2399 0.1501,-0.1269 0.2766,-0.2348 0.2811,-0.2398 0,-0.01 0.1311,-0.1127 0.2812,-0.2393 0.15,-0.1266 0.3027,-0.2565 0.3394,-0.2888 0.088,-0.078 0.1938,-0.168 0.6279,-0.5375 0.4027,-0.3428 0.3816,-0.3248 0.6122,-0.5225 0.7264,-0.6227 1.0863,-0.9271 1.0906,-0.9224 z m 0.2072,5.2923 h 2.0257 v 3.882 3.8819 h -0.8269 -0.8269 v -0.9528 -0.9528 l -1.79,-1.7896 c -1.9358,-1.9352 -2.4898,-2.4943 -2.9907,-3.0186 -0.5758,-0.6028 -0.7424,-0.7835 -0.8109,-0.8797 -0.03,-0.042 -0.03,-0.045 0,-0.06 0.149,-0.079 2.1421,-0.1226 5.2137,-0.1151 z m -15.4864,0 2.6706,9e-4 c 2.9302,9e-4 3.7244,0.016 4.4357,0.084 0.1734,0.017 0.1791,0.028 0.073,0.1554 -0.3377,0.4065 -0.9507,1.0337 -3.6369,3.721 l -1.8975,1.8983 v 0.9523 0.9523 h -0.8269 -0.8268 v -3.882 z m 8.1218,0.9917 c 0.01,-6e-4 0.012,0.01 0.019,0.021 0.022,0.042 0.05,0.3098 0.071,0.6744 0.011,0.1929 0.021,1.3777 0.026,3.0675 l 0.01,2.7534 -0.08,0.074 c -0.044,0.041 -0.1582,0.1448 -0.2537,0.2309 -0.096,0.086 -0.2221,0.2014 -0.2815,0.2563 -0.059,0.055 -0.1486,0.1366 -0.1984,0.1816 -0.05,0.045 -0.1352,0.1231 -0.1898,0.1736 -0.1027,0.095 -0.2317,0.2123 -0.711,0.6464 -0.1546,0.1401 -0.2848,0.2586 -0.2894,0.2635 0,0 -0.086,0.079 -0.1819,0.1659 -0.095,0.086 -0.1773,0.1608 -0.1819,0.1654 0,0 -0.094,0.086 -0.1984,0.1819 -0.1046,0.095 -0.1939,0.1775 -0.1985,0.1824 0,0 -0.1273,0.1158 -0.2728,0.2467 -0.1455,0.131 -0.35,0.3168 -0.4543,0.413 -0.1043,0.096 -0.2271,0.2083 -0.2728,0.2493 -0.046,0.041 -0.087,0.078 -0.091,0.083 0,0 -0.1757,0.1609 -0.3803,0.3469 -0.3417,0.3104 -0.4221,0.3832 -0.5442,0.4932 -0.085,0.077 -0.2167,0.197 -0.5451,0.4988 -0.094,0.086 -0.1776,0.1596 -0.1858,0.1626 -0.01,0 -0.015,-0.071 -0.015,-0.1653 0,-0.094 -0.01,-0.543 -0.016,-0.9977 -0.01,-0.4548 -0.024,-1.478 -0.033,-2.2738 -0.01,-0.7958 -0.021,-1.7314 -0.027,-2.0791 l -0.01,-0.6322 1.337,-1.343 c 1.8779,-1.8864 2.5775,-2.5808 3.1891,-3.1656 0.6008,-0.5745 0.8288,-0.7854 0.921,-0.8519 0.021,-0.015 0.033,-0.023 0.041,-0.023 z m 1.2725,0.01 c 0.018,0 0.043,0.019 0.081,0.05 0.2669,0.22 1.6894,1.5965 2.7097,2.6219 0.01,0.01 0.5769,0.5798 1.259,1.2654 0.6822,0.6855 1.283,1.2911 1.3353,1.3457 l 0.095,0.099 -0.025,2.0832 c -0.014,1.1457 -0.032,2.4515 -0.041,2.9017 -0.01,0.4502 -0.017,0.9023 -0.017,1.0046 0,0.1023 -0.01,0.1855 -0.012,0.1849 -0.01,-6e-4 -0.1538,-0.1278 -0.3266,-0.2825 -0.1728,-0.1548 -0.3581,-0.3199 -0.4117,-0.3668 -0.054,-0.047 -0.1101,-0.097 -0.1257,-0.1102 -0.015,-0.014 -0.083,-0.074 -0.1506,-0.1343 -0.067,-0.06 -0.3009,-0.2679 -0.5192,-0.4616 -0.3945,-0.35 -0.4786,-0.4247 -0.8268,-0.7348 -0.1001,-0.089 -0.301,-0.2666 -0.4465,-0.3944 -0.1455,-0.1278 -0.302,-0.2663 -0.3477,-0.3078 -0.088,-0.08 -0.286,-0.2557 -0.3551,-0.3152 -0.023,-0.02 -0.064,-0.056 -0.091,-0.08 -0.027,-0.024 -0.1128,-0.1 -0.1898,-0.1683 -0.077,-0.068 -0.1483,-0.1314 -0.1584,-0.1405 -0.01,-0.01 -0.07,-0.062 -0.1327,-0.1176 -0.5659,-0.5002 -0.9023,-0.7981 -0.9577,-0.8483 -0.036,-0.033 -0.1564,-0.1394 -0.2667,-0.2367 l -0.2006,-0.177 -0.012,-2.0387 c -0.015,-2.5187 0.01,-3.7688 0.076,-4.4321 0.016,-0.1518 0.025,-0.2103 0.057,-0.21 z" /><path
             id="rect14-9"
             style="opacity:0.4;fill:#eceff4;fill-opacity:1;stroke-width:0.388772;stroke-linecap:round;stroke-linejoin:round;filter:url(#filter14)"
             d="m -2204.8731,-9586.4955 -0.01,0.5664 c -0.01,0.3115 -0.014,0.9868 -0.019,1.5007 -0.01,0.5138 -0.02,1.5035 -0.033,2.1993 -0.013,0.6958 -0.024,1.3268 -0.024,1.4023 0,0.1121 0,0.1348 -0.023,0.124 -0.013,-0.01 -0.099,-0.084 -0.1929,-0.1703 -0.093,-0.086 -0.1781,-0.1645 -0.188,-0.1736 -0.2834,-0.2605 -0.7505,-0.6885 -0.7941,-0.7276 -0.066,-0.059 -0.4781,-0.4369 -0.7956,-0.729 -0.1277,-0.1175 -0.31,-0.2843 -0.4051,-0.3707 -0.1573,-0.143 -0.3754,-0.3433 -0.3961,-0.3638 0,0 -0.086,-0.079 -0.1819,-0.1654 -0.2002,-0.1812 -0.2455,-0.2224 -0.538,-0.4895 -0.1185,-0.1082 -0.2895,-0.2637 -0.38,-0.3456 -0.148,-0.1338 -0.3668,-0.3341 -0.3884,-0.3555 0,0 -0.042,-0.038 -0.083,-0.074 -0.067,-0.059 -0.1876,-0.1681 -0.5038,-0.4548 -0.055,-0.05 -0.1628,-0.1467 -0.239,-0.2149 -0.076,-0.068 -0.1469,-0.1315 -0.157,-0.1406 -0.01,-0.01 -0.081,-0.072 -0.1585,-0.1406 -0.077,-0.068 -0.1557,-0.1389 -0.1749,-0.1571 -0.053,-0.051 -0.5096,-0.452 -0.6751,-0.5938 -0.085,-0.073 -0.1538,-0.1202 -0.1621,-0.1118 -0.02,0.019 -0.057,0.484 -0.078,0.9619 -0.021,0.4909 -0.045,1.6582 -0.076,3.8356 -0.014,0.9409 -0.026,1.7121 -0.028,1.7138 0,0 -0.706,0.032 -1.8309,0.073 -0.4866,0.018 -0.8866,0.033 -0.8889,0.033 0,0 0,2.2289 0,4.9529 v 4.9527 h 1.4038 1.4039 l 0.01,2.3936 c 0,1.3469 0.016,2.5744 0.026,2.8071 0.018,0.404 0.043,0.7092 0.061,0.7384 0.011,0.018 0.057,-0.015 0.2477,-0.1793 v 0 c 0.1253,-0.1079 0.3385,-0.2953 0.4104,-0.3609 0.01,-0.01 0.1821,-0.1628 0.3822,-0.3413 0.2001,-0.1786 0.3787,-0.3385 0.3968,-0.3554 0.018,-0.017 0.1596,-0.1459 0.3142,-0.2868 0.1547,-0.1408 0.2849,-0.2598 0.2894,-0.2645 0,0 0.053,-0.049 0.1076,-0.1 0.163,-0.1492 0.4421,-0.4039 0.462,-0.4217 0.036,-0.032 0.2338,-0.2142 0.3401,-0.3132 0.059,-0.055 0.1485,-0.1374 0.1986,-0.1829 0.05,-0.046 0.1765,-0.1614 0.2809,-0.2577 0.687,-0.6326 1.1296,-1.041 1.2153,-1.1213 0.055,-0.051 0.1848,-0.1709 0.2894,-0.2663 0.1046,-0.095 0.2385,-0.2186 0.2977,-0.2738 0.059,-0.055 0.1557,-0.1446 0.2147,-0.1986 0.059,-0.054 0.1558,-0.1435 0.215,-0.1988 0.059,-0.055 0.2193,-0.2034 0.3557,-0.329 0.1365,-0.1256 0.2837,-0.2618 0.3272,-0.3026 0.043,-0.041 0.082,-0.071 0.085,-0.068 0.01,0.01 0.057,2.7584 0.067,3.8675 0,0.5321 0.013,1.1925 0.018,1.4677 l 0.01,0.5002 h 0.4926 0.4925 l 0.01,-2.4019 c 0.01,-2.4111 0.015,-2.6802 0.07,-2.9346 0.031,-0.1434 0.067,-0.196 0.1246,-0.1816 0.048,0.012 0.7182,0.5715 1.1133,0.9292 0.01,0.01 0.081,0.072 0.1587,0.1406 0.077,0.068 0.1442,0.1278 0.1488,0.1325 0,0 0.072,0.064 0.1488,0.1323 0.077,0.068 0.1443,0.1276 0.1488,0.1322 0,0 0.1459,0.1309 0.3142,0.2807 0.1682,0.1497 0.3097,0.2765 0.3142,0.2816 0,0.01 0.075,0.068 0.1571,0.14 0.082,0.072 0.2232,0.1983 0.3142,0.2812 0.091,0.083 0.2584,0.232 0.3721,0.3314 0.1137,0.099 0.2104,0.1849 0.2149,0.19 0,0 0.1162,0.1054 0.2481,0.223 0.1319,0.1176 0.2435,0.2179 0.248,0.2227 0,0 0.072,0.065 0.1488,0.1328 0.077,0.068 0.1702,0.1509 0.2067,0.1836 0.036,0.033 0.2039,0.181 0.3721,0.3295 0.1683,0.1485 0.3608,0.3189 0.4279,0.3787 0.067,0.06 0.1571,0.1385 0.2001,0.1748 0.081,0.068 0.5402,0.4659 0.5729,0.4958 0.045,0.041 0.2057,0.1752 0.3431,0.2862 0.1146,0.093 0.152,0.1151 0.1621,0.097 0.052,-0.092 0.08,-1.4854 0.08,-3.9424 v -1.9885 h 1.4056 1.4056 v -4.961 -4.9609 h -1.0731 -1.0731 l -0.01,-2.5012 c 0,-1.3756 -0.016,-2.6834 -0.026,-2.9062 -0.034,-0.7889 -0.073,-1.1741 -0.1166,-1.1741 -0.034,0 -0.4656,0.34 -1.2991,1.0243 -0.3114,0.2556 -1.42,1.1788 -1.4304,1.1911 0,0.01 -0.1459,0.1246 -0.3142,0.2649 -0.1683,0.1402 -0.3655,0.3066 -0.4382,0.3696 -0.1683,0.1458 -0.1846,0.1597 -0.3638,0.3087 -0.082,0.068 -0.1526,0.1275 -0.1571,0.1321 0,0 -0.068,0.056 -0.1406,0.1153 -0.073,0.059 -0.136,0.111 -0.1405,0.1159 0,0.01 -0.049,0.042 -0.099,0.083 -0.05,0.041 -0.099,0.082 -0.1094,0.091 -0.042,0.038 -0.2009,0.1708 -0.2962,0.2481 -0.056,0.046 -0.1462,0.1199 -0.2005,0.1654 -0.054,0.046 -0.2387,0.198 -0.4101,0.339 -0.1714,0.141 -0.3812,0.3142 -0.4661,0.385 -0.3691,0.3078 -1.1055,0.8883 -1.1205,0.8833 -0.026,-0.01 -0.042,-0.088 -0.068,-0.3423 -0.052,-0.5142 -0.061,-0.9548 -0.07,-3.1626 l -0.01,-2.2448 h -0.4923 z m -5.6364,2.282 c 0.01,0 0.023,0.013 0.04,0.029 0.016,0.016 0.1,0.092 0.1856,0.1695 0.2393,0.216 0.3376,0.3051 0.3467,0.3142 0.023,0.023 0.3806,0.3485 0.4371,0.3979 0.036,0.031 0.1139,0.1022 0.1736,0.1577 0.06,0.056 0.1495,0.1367 0.1996,0.1803 0.05,0.044 0.1616,0.1441 0.248,0.2232 0.086,0.079 0.1869,0.1691 0.2233,0.2 0.036,0.031 0.07,0.06 0.074,0.065 0,0 0.057,0.053 0.1161,0.1076 0.059,0.054 0.1805,0.1646 0.2692,0.2456 0.089,0.081 0.1755,0.1596 0.193,0.1748 0.031,0.027 0.2968,0.2732 0.5358,0.4965 0.063,0.059 0.1309,0.1224 0.1505,0.1406 0.019,0.018 0.094,0.088 0.1667,0.1563 0.1346,0.1263 0.2754,0.2578 0.4789,0.4473 0.2246,0.209 0.6282,0.5886 0.7514,0.7065 l 0.1248,0.1194 h -0.1489 c -0.082,0 -0.5617,-0.011 -1.0664,-0.023 v 0 c -0.5048,-0.011 -1.4757,-0.03 -2.1578,-0.041 -0.6821,-0.011 -1.2414,-0.021 -1.2429,-0.022 0,0 -0.034,-1.2457 -0.063,-2.5903 -0.013,-0.6139 -0.029,-1.2372 -0.035,-1.385 -0.01,-0.1477 -0.01,-0.2687 -6e-4,-0.2687 z m 12.6519,0.036 c 0,0 0.018,0.5079 0.033,1.1218 0.029,1.163 0.041,2.9798 0.019,3.0699 -0.01,0.033 -0.025,0.056 -0.049,0.062 -0.062,0.018 -1.4537,0.024 -2.3266,0.01 -0.9398,-0.015 -2.6021,-0.051 -2.6091,-0.058 0,0 0.1605,-0.1447 0.3623,-0.3165 0.2018,-0.1718 0.375,-0.3199 0.3849,-0.3291 0.01,-0.01 0.1632,-0.1393 0.3406,-0.289 0.1773,-0.1497 0.3261,-0.2763 0.3307,-0.2815 0,-0.01 0.131,-0.1131 0.2811,-0.2399 0.1501,-0.1269 0.2766,-0.2348 0.2811,-0.2398 0,-0.01 0.1311,-0.1127 0.2812,-0.2393 0.15,-0.1266 0.3027,-0.2565 0.3394,-0.2888 0.088,-0.078 0.1938,-0.168 0.6279,-0.5375 0.4027,-0.3428 0.3816,-0.3248 0.6122,-0.5225 0.7264,-0.6227 1.0863,-0.9271 1.0906,-0.9224 z m 0.2072,5.2923 h 2.0257 v 3.882 3.8819 h -0.8269 -0.8269 v -0.9528 -0.9528 l -1.79,-1.7896 c -1.9358,-1.9352 -2.4898,-2.4943 -2.9907,-3.0186 -0.5758,-0.6028 -0.7424,-0.7835 -0.8109,-0.8797 -0.03,-0.042 -0.03,-0.045 0,-0.06 0.149,-0.079 2.1421,-0.1226 5.2137,-0.1151 z m -15.4864,0 2.6706,9e-4 c 2.9302,9e-4 3.7244,0.016 4.4357,0.084 0.1734,0.017 0.1791,0.028 0.073,0.1554 -0.3377,0.4065 -0.9507,1.0337 -3.6369,3.721 l -1.8975,1.8983 v 0.9523 0.9523 h -0.8269 -0.8268 v -3.882 z m 8.1218,0.9917 c 0.01,-6e-4 0.012,0.01 0.019,0.021 0.022,0.042 0.05,0.3098 0.071,0.6744 0.011,0.1929 0.021,1.3777 0.026,3.0675 l 0.01,2.7534 -0.08,0.074 c -0.044,0.041 -0.1582,0.1448 -0.2537,0.2309 -0.096,0.086 -0.2221,0.2014 -0.2815,0.2563 -0.059,0.055 -0.1486,0.1366 -0.1984,0.1816 -0.05,0.045 -0.1352,0.1231 -0.1898,0.1736 -0.1027,0.095 -0.2317,0.2123 -0.711,0.6464 -0.1546,0.1401 -0.2848,0.2586 -0.2894,0.2635 0,0 -0.086,0.079 -0.1819,0.1659 -0.095,0.086 -0.1773,0.1608 -0.1819,0.1654 0,0 -0.094,0.086 -0.1984,0.1819 -0.1046,0.095 -0.1939,0.1775 -0.1985,0.1824 0,0 -0.1273,0.1158 -0.2728,0.2467 -0.1455,0.131 -0.35,0.3168 -0.4543,0.413 -0.1043,0.096 -0.2271,0.2083 -0.2728,0.2493 -0.046,0.041 -0.087,0.078 -0.091,0.083 0,0 -0.1757,0.1609 -0.3803,0.3469 -0.3417,0.3104 -0.4221,0.3832 -0.5442,0.4932 -0.085,0.077 -0.2167,0.197 -0.5451,0.4988 -0.094,0.086 -0.1776,0.1596 -0.1858,0.1626 -0.01,0 -0.015,-0.071 -0.015,-0.1653 0,-0.094 -0.01,-0.543 -0.016,-0.9977 -0.01,-0.4548 -0.024,-1.478 -0.033,-2.2738 -0.01,-0.7958 -0.021,-1.7314 -0.027,-2.0791 l -0.01,-0.6322 1.337,-1.343 c 1.8779,-1.8864 2.5775,-2.5808 3.1891,-3.1656 0.6008,-0.5745 0.8288,-0.7854 0.921,-0.8519 0.021,-0.015 0.033,-0.023 0.041,-0.023 z m 1.2725,0.01 c 0.018,0 0.043,0.019 0.081,0.05 0.2669,0.22 1.6894,1.5965 2.7097,2.6219 0.01,0.01 0.5769,0.5798 1.259,1.2654 0.6822,0.6855 1.283,1.2911 1.3353,1.3457 l 0.095,0.099 -0.025,2.0832 c -0.014,1.1457 -0.032,2.4515 -0.041,2.9017 -0.01,0.4502 -0.017,0.9023 -0.017,1.0046 0,0.1023 -0.01,0.1855 -0.012,0.1849 -0.01,-6e-4 -0.1538,-0.1278 -0.3266,-0.2825 -0.1728,-0.1548 -0.3581,-0.3199 -0.4117,-0.3668 -0.054,-0.047 -0.1101,-0.097 -0.1257,-0.1102 -0.015,-0.014 -0.083,-0.074 -0.1506,-0.1343 -0.067,-0.06 -0.3009,-0.2679 -0.5192,-0.4616 -0.3945,-0.35 -0.4786,-0.4247 -0.8268,-0.7348 -0.1001,-0.089 -0.301,-0.2666 -0.4465,-0.3944 -0.1455,-0.1278 -0.302,-0.2663 -0.3477,-0.3078 -0.088,-0.08 -0.286,-0.2557 -0.3551,-0.3152 -0.023,-0.02 -0.064,-0.056 -0.091,-0.08 -0.027,-0.024 -0.1128,-0.1 -0.1898,-0.1683 -0.077,-0.068 -0.1483,-0.1314 -0.1584,-0.1405 -0.01,-0.01 -0.07,-0.062 -0.1327,-0.1176 -0.5659,-0.5002 -0.9023,-0.7981 -0.9577,-0.8483 -0.036,-0.033 -0.1564,-0.1394 -0.2667,-0.2367 l -0.2006,-0.177 -0.012,-2.0387 c -0.015,-2.5187 0.01,-3.7688 0.076,-4.4321 0.016,-0.1518 0.025,-0.2103 0.057,-0.21 z" /></g><path
           id="rect14"
           style="opacity:1;fill:#eceff4;fill-opacity:1;stroke-width:0.388772;stroke-linecap:round;stroke-linejoin:round"
           d="m -2204.8731,-9586.4955 -0.01,0.5664 c -0.01,0.3115 -0.014,0.9868 -0.019,1.5007 -0.01,0.5138 -0.02,1.5035 -0.033,2.1993 -0.013,0.6958 -0.024,1.3268 -0.024,1.4023 0,0.1121 0,0.1348 -0.023,0.124 -0.013,-0.01 -0.099,-0.084 -0.1929,-0.1703 -0.093,-0.086 -0.1781,-0.1645 -0.188,-0.1736 -0.2834,-0.2605 -0.7505,-0.6885 -0.7941,-0.7276 -0.066,-0.059 -0.4781,-0.4369 -0.7956,-0.729 -0.1277,-0.1175 -0.31,-0.2843 -0.4051,-0.3707 -0.1573,-0.143 -0.3754,-0.3433 -0.3961,-0.3638 0,0 -0.086,-0.079 -0.1819,-0.1654 -0.2002,-0.1812 -0.2455,-0.2224 -0.538,-0.4895 -0.1185,-0.1082 -0.2895,-0.2637 -0.38,-0.3456 -0.148,-0.1338 -0.3668,-0.3341 -0.3884,-0.3555 0,0 -0.042,-0.038 -0.083,-0.074 -0.067,-0.059 -0.1876,-0.1681 -0.5038,-0.4548 -0.055,-0.05 -0.1628,-0.1467 -0.239,-0.2149 -0.076,-0.068 -0.1469,-0.1315 -0.157,-0.1406 -0.01,-0.01 -0.081,-0.072 -0.1585,-0.1406 -0.077,-0.068 -0.1557,-0.1389 -0.1749,-0.1571 -0.053,-0.051 -0.5096,-0.452 -0.6751,-0.5938 -0.085,-0.073 -0.1538,-0.1202 -0.1621,-0.1118 -0.02,0.019 -0.057,0.484 -0.078,0.9619 -0.021,0.4909 -0.045,1.6582 -0.076,3.8356 -0.014,0.9409 -0.026,1.7121 -0.028,1.7138 0,0 -0.706,0.032 -1.8309,0.073 -0.4866,0.018 -0.8866,0.033 -0.8889,0.033 0,0 0,2.2289 0,4.9529 v 4.9527 h 1.4038 1.4039 l 0.01,2.3936 c 0,1.3469 0.016,2.5744 0.026,2.8071 0.018,0.404 0.043,0.7092 0.061,0.7384 0.011,0.018 0.057,-0.015 0.2477,-0.1793 v 0 c 0.1253,-0.1079 0.3385,-0.2953 0.4104,-0.3609 0.01,-0.01 0.1821,-0.1628 0.3822,-0.3413 0.2001,-0.1786 0.3787,-0.3385 0.3968,-0.3554 0.018,-0.017 0.1596,-0.1459 0.3142,-0.2868 0.1547,-0.1408 0.2849,-0.2598 0.2894,-0.2645 0,0 0.053,-0.049 0.1076,-0.1 0.163,-0.1492 0.4421,-0.4039 0.462,-0.4217 0.036,-0.032 0.2338,-0.2142 0.3401,-0.3132 0.059,-0.055 0.1485,-0.1374 0.1986,-0.1829 0.05,-0.046 0.1765,-0.1614 0.2809,-0.2577 0.687,-0.6326 1.1296,-1.041 1.2153,-1.1213 0.055,-0.051 0.1848,-0.1709 0.2894,-0.2663 0.1046,-0.095 0.2385,-0.2186 0.2977,-0.2738 0.059,-0.055 0.1557,-0.1446 0.2147,-0.1986 0.059,-0.054 0.1558,-0.1435 0.215,-0.1988 0.059,-0.055 0.2193,-0.2034 0.3557,-0.329 0.1365,-0.1256 0.2837,-0.2618 0.3272,-0.3026 0.043,-0.041 0.082,-0.071 0.085,-0.068 0.01,0.01 0.057,2.7584 0.067,3.8675 0,0.5321 0.013,1.1925 0.018,1.4677 l 0.01,0.5002 h 0.4926 0.4925 l 0.01,-2.4019 c 0.01,-2.4111 0.015,-2.6802 0.07,-2.9346 0.031,-0.1434 0.067,-0.196 0.1246,-0.1816 0.048,0.012 0.7182,0.5715 1.1133,0.9292 0.01,0.01 0.081,0.072 0.1587,0.1406 0.077,0.068 0.1442,0.1278 0.1488,0.1325 0,0 0.072,0.064 0.1488,0.1323 0.077,0.068 0.1443,0.1276 0.1488,0.1322 0,0 0.1459,0.1309 0.3142,0.2807 0.1682,0.1497 0.3097,0.2765 0.3142,0.2816 0,0.01 0.075,0.068 0.1571,0.14 0.082,0.072 0.2232,0.1983 0.3142,0.2812 0.091,0.083 0.2584,0.232 0.3721,0.3314 0.1137,0.099 0.2104,0.1849 0.2149,0.19 0,0 0.1162,0.1054 0.2481,0.223 0.1319,0.1176 0.2435,0.2179 0.248,0.2227 0,0 0.072,0.065 0.1488,0.1328 0.077,0.068 0.1702,0.1509 0.2067,0.1836 0.036,0.033 0.2039,0.181 0.3721,0.3295 0.1683,0.1485 0.3608,0.3189 0.4279,0.3787 0.067,0.06 0.1571,0.1385 0.2001,0.1748 0.081,0.068 0.5402,0.4659 0.5729,0.4958 0.045,0.041 0.2057,0.1752 0.3431,0.2862 0.1146,0.093 0.152,0.1151 0.1621,0.097 0.052,-0.092 0.08,-1.4854 0.08,-3.9424 v -1.9885 h 1.4056 1.4056 v -4.961 -4.9609 h -1.0731 -1.0731 l -0.01,-2.5012 c 0,-1.3756 -0.016,-2.6834 -0.026,-2.9062 -0.034,-0.7889 -0.073,-1.1741 -0.1166,-1.1741 -0.034,0 -0.4656,0.34 -1.2991,1.0243 -0.3114,0.2556 -1.42,1.1788 -1.4304,1.1911 0,0.01 -0.1459,0.1246 -0.3142,0.2649 -0.1683,0.1402 -0.3655,0.3066 -0.4382,0.3696 -0.1683,0.1458 -0.1846,0.1597 -0.3638,0.3087 -0.082,0.068 -0.1526,0.1275 -0.1571,0.1321 0,0 -0.068,0.056 -0.1406,0.1153 -0.073,0.059 -0.136,0.111 -0.1405,0.1159 0,0.01 -0.049,0.042 -0.099,0.083 -0.05,0.041 -0.099,0.082 -0.1094,0.091 -0.042,0.038 -0.2009,0.1708 -0.2962,0.2481 -0.056,0.046 -0.1462,0.1199 -0.2005,0.1654 -0.054,0.046 -0.2387,0.198 -0.4101,0.339 -0.1714,0.141 -0.3812,0.3142 -0.4661,0.385 -0.3691,0.3078 -1.1055,0.8883 -1.1205,0.8833 -0.026,-0.01 -0.042,-0.088 -0.068,-0.3423 -0.052,-0.5142 -0.061,-0.9548 -0.07,-3.1626 l -0.01,-2.2448 h -0.4923 z m -5.6364,2.282 c 0.01,0 0.023,0.013 0.04,0.029 0.016,0.016 0.1,0.092 0.1856,0.1695 0.2393,0.216 0.3376,0.3051 0.3467,0.3142 0.023,0.023 0.3806,0.3485 0.4371,0.3979 0.036,0.031 0.1139,0.1022 0.1736,0.1577 0.06,0.056 0.1495,0.1367 0.1996,0.1803 0.05,0.044 0.1616,0.1441 0.248,0.2232 0.086,0.079 0.1869,0.1691 0.2233,0.2 0.036,0.031 0.07,0.06 0.074,0.065 0,0 0.057,0.053 0.1161,0.1076 0.059,0.054 0.1805,0.1646 0.2692,0.2456 0.089,0.081 0.1755,0.1596 0.193,0.1748 0.031,0.027 0.2968,0.2732 0.5358,0.4965 0.063,0.059 0.1309,0.1224 0.1505,0.1406 0.019,0.018 0.094,0.088 0.1667,0.1563 0.1346,0.1263 0.2754,0.2578 0.4789,0.4473 0.2246,0.209 0.6282,0.5886 0.7514,0.7065 l 0.1248,0.1194 h -0.1489 c -0.082,0 -0.5617,-0.011 -1.0664,-0.023 v 0 c -0.5048,-0.011 -1.4757,-0.03 -2.1578,-0.041 -0.6821,-0.011 -1.2414,-0.021 -1.2429,-0.022 0,0 -0.034,-1.2457 -0.063,-2.5903 -0.013,-0.6139 -0.029,-1.2372 -0.035,-1.385 -0.01,-0.1477 -0.01,-0.2687 -6e-4,-0.2687 z m 12.6519,0.036 c 0,0 0.018,0.5079 0.033,1.1218 0.029,1.163 0.041,2.9798 0.019,3.0699 -0.01,0.033 -0.025,0.056 -0.049,0.062 -0.062,0.018 -1.4537,0.024 -2.3266,0.01 -0.9398,-0.015 -2.6021,-0.051 -2.6091,-0.058 0,0 0.1605,-0.1447 0.3623,-0.3165 0.2018,-0.1718 0.375,-0.3199 0.3849,-0.3291 0.01,-0.01 0.1632,-0.1393 0.3406,-0.289 0.1773,-0.1497 0.3261,-0.2763 0.3307,-0.2815 0,-0.01 0.131,-0.1131 0.2811,-0.2399 0.1501,-0.1269 0.2766,-0.2348 0.2811,-0.2398 0,-0.01 0.1311,-0.1127 0.2812,-0.2393 0.15,-0.1266 0.3027,-0.2565 0.3394,-0.2888 0.088,-0.078 0.1938,-0.168 0.6279,-0.5375 0.4027,-0.3428 0.3816,-0.3248 0.6122,-0.5225 0.7264,-0.6227 1.0863,-0.9271 1.0906,-0.9224 z m 0.2072,5.2923 h 2.0257 v 3.882 3.8819 h -0.8269 -0.8269 v -0.9528 -0.9528 l -1.79,-1.7896 c -1.9358,-1.9352 -2.4898,-2.4943 -2.9907,-3.0186 -0.5758,-0.6028 -0.7424,-0.7835 -0.8109,-0.8797 -0.03,-0.042 -0.03,-0.045 0,-0.06 0.149,-0.079 2.1421,-0.1226 5.2137,-0.1151 z m -15.4864,0 2.6706,9e-4 c 2.9302,9e-4 3.7244,0.016 4.4357,0.084 0.1734,0.017 0.1791,0.028 0.073,0.1554 -0.3377,0.4065 -0.9507,1.0337 -3.6369,3.721 l -1.8975,1.8983 v 0.9523 0.9523 h -0.8269 -0.8268 v -3.882 z m 8.1218,0.9917 c 0.01,-6e-4 0.012,0.01 0.019,0.021 0.022,0.042 0.05,0.3098 0.071,0.6744 0.011,0.1929 0.021,1.3777 0.026,3.0675 l 0.01,2.7534 -0.08,0.074 c -0.044,0.041 -0.1582,0.1448 -0.2537,0.2309 -0.096,0.086 -0.2221,0.2014 -0.2815,0.2563 -0.059,0.055 -0.1486,0.1366 -0.1984,0.1816 -0.05,0.045 -0.1352,0.1231 -0.1898,0.1736 -0.1027,0.095 -0.2317,0.2123 -0.711,0.6464 -0.1546,0.1401 -0.2848,0.2586 -0.2894,0.2635 0,0 -0.086,0.079 -0.1819,0.1659 -0.095,0.086 -0.1773,0.1608 -0.1819,0.1654 0,0 -0.094,0.086 -0.1984,0.1819 -0.1046,0.095 -0.1939,0.1775 -0.1985,0.1824 0,0 -0.1273,0.1158 -0.2728,0.2467 -0.1455,0.131 -0.35,0.3168 -0.4543,0.413 -0.1043,0.096 -0.2271,0.2083 -0.2728,0.2493 -0.046,0.041 -0.087,0.078 -0.091,0.083 0,0 -0.1757,0.1609 -0.3803,0.3469 -0.3417,0.3104 -0.4221,0.3832 -0.5442,0.4932 -0.085,0.077 -0.2167,0.197 -0.5451,0.4988 -0.094,0.086 -0.1776,0.1596 -0.1858,0.1626 -0.01,0 -0.015,-0.071 -0.015,-0.1653 0,-0.094 -0.01,-0.543 -0.016,-0.9977 -0.01,-0.4548 -0.024,-1.478 -0.033,-2.2738 -0.01,-0.7958 -0.021,-1.7314 -0.027,-2.0791 l -0.01,-0.6322 1.337,-1.343 c 1.8779,-1.8864 2.5775,-2.5808 3.1891,-3.1656 0.6008,-0.5745 0.8288,-0.7854 0.921,-0.8519 0.021,-0.015 0.033,-0.023 0.041,-0.023 z m 1.2725,0.01 c 0.018,0 0.043,0.019 0.081,0.05 0.2669,0.22 1.6894,1.5965 2.7097,2.6219 0.01,0.01 0.5769,0.5798 1.259,1.2654 0.6822,0.6855 1.283,1.2911 1.3353,1.3457 l 0.095,0.099 -0.025,2.0832 c -0.014,1.1457 -0.032,2.4515 -0.041,2.9017 -0.01,0.4502 -0.017,0.9023 -0.017,1.0046 0,0.1023 -0.01,0.1855 -0.012,0.1849 -0.01,-6e-4 -0.1538,-0.1278 -0.3266,-0.2825 -0.1728,-0.1548 -0.3581,-0.3199 -0.4117,-0.3668 -0.054,-0.047 -0.1101,-0.097 -0.1257,-0.1102 -0.015,-0.014 -0.083,-0.074 -0.1506,-0.1343 -0.067,-0.06 -0.3009,-0.2679 -0.5192,-0.4616 -0.3945,-0.35 -0.4786,-0.4247 -0.8268,-0.7348 -0.1001,-0.089 -0.301,-0.2666 -0.4465,-0.3944 -0.1455,-0.1278 -0.302,-0.2663 -0.3477,-0.3078 -0.088,-0.08 -0.286,-0.2557 -0.3551,-0.3152 -0.023,-0.02 -0.064,-0.056 -0.091,-0.08 -0.027,-0.024 -0.1128,-0.1 -0.1898,-0.1683 -0.077,-0.068 -0.1483,-0.1314 -0.1584,-0.1405 -0.01,-0.01 -0.07,-0.062 -0.1327,-0.1176 -0.5659,-0.5002 -0.9023,-0.7981 -0.9577,-0.8483 -0.036,-0.033 -0.1564,-0.1394 -0.2667,-0.2367 l -0.2006,-0.177 -0.012,-2.0387 c -0.015,-2.5187 0.01,-3.7688 0.076,-4.4321 0.016,-0.1518 0.025,-0.2103 0.057,-0.21 z" /></g></g></g><style
     type="text/css"
     id="style1">
	.st0{fill:#000000;}
</style><style
     type="text/css"
     id="style1-2">
	.st0{fill:#000000;}
</style><style
     type="text/css"
     id="style1-3">
	.st0{fill:#000000;}
</style><style
     type="text/css"
     id="style1-29">
	.st0{fill:#000000;}
</style><style
     type="text/css"
     id="style1-0">
	.st0{fill:#000000;}
</style><style
     type="text/css"
     id="style6">.st0 { fill:#323232; }</style><style
     type="text/css"
     id="style6-2">.st0{fill:#F05133;}</style></svg>
