<?xml version="1.0" encoding="UTF-8" standalone="no"?>
<svg
   width="64"
   height="64"
   version="1.1"
   viewBox="0 0 16.933 16.933"
   id="svg22"
   sodipodi:docname="lutris (Copy).svg"
   inkscape:version="1.4.2 (ebf0e940d0, 2025-05-08)"
   xmlns:inkscape="http://www.inkscape.org/namespaces/inkscape"
   xmlns:sodipodi="http://sodipodi.sourceforge.net/DTD/sodipodi-0.dtd"
   xmlns:xlink="http://www.w3.org/1999/xlink"
   xmlns="http://www.w3.org/2000/svg"
   xmlns:svg="http://www.w3.org/2000/svg">
  <sodipodi:namedview
     id="namedview22"
     pagecolor="#505050"
     bordercolor="#eeeeee"
     borderopacity="1"
     inkscape:showpageshadow="0"
     inkscape:pageopacity="0"
     inkscape:pagecheckerboard="0"
     inkscape:deskcolor="#505050"
     inkscape:zoom="2.6903203"
     inkscape:cx="-82.703906"
     inkscape:cy="38.285404"
     inkscape:window-width="2261"
     inkscape:window-height="678"
     inkscape:window-x="0"
     inkscape:window-y="0"
     inkscape:window-maximized="1"
     inkscape:current-layer="svg22" />
  <defs
     id="defs8">
    <filter
       id="filter1178"
       x="-0.047999482"
       y="-0.047999482"
       width="1.095999"
       height="1.095999"
       color-interpolation-filters="sRGB">
      <feGaussianBlur
         stdDeviation="0.30691668"
         id="feGaussianBlur1" />
    </filter>
    <radialGradient
       id="radialGradient4544-0"
       cx="365.9"
       cy="-121.31"
       r="77.057"
       gradientTransform="matrix(.077665 .00088297 -.00097274 .08728 -1.0887 20.511)"
       gradientUnits="userSpaceOnUse">
      <stop
         stop-color="#ebcb8b"
         offset="0"
         id="stop1" />
      <stop
         stop-color="#d08770"
         offset="1"
         id="stop2" />
    </radialGradient>
    <linearGradient
       id="linearGradient4550-5"
       x1="369.24"
       x2="369.24"
       y1="-117.55"
       y2="-183.12"
       gradientTransform="matrix(.061261 0 0 .061888 4.9946 17.908)"
       gradientUnits="userSpaceOnUse">
      <stop
         stop-color="#d8dee9"
         offset="0"
         id="stop3" />
      <stop
         stop-color="#eceff4"
         offset="1"
         id="stop4" />
    </linearGradient>
    <linearGradient
       id="linearGradient1586"
       x1="32.784"
       x2="32.784"
       y1="5.832"
       y2="7.8753"
       gradientUnits="userSpaceOnUse">
      <stop
         stop-color="#4c566a"
         offset="0"
         id="stop5" />
      <stop
         stop-color="#2e3440"
         offset="1"
         id="stop6" />
    </linearGradient>
    <filter
       id="filter3411"
       x="-0.027880582"
       y="-0.027887651"
       width="1.0557612"
       height="1.0557753"
       color-interpolation-filters="sRGB">
      <feGaussianBlur
         stdDeviation="0.14926252"
         id="feGaussianBlur6" />
    </filter>
    <linearGradient
       id="linearGradient5403"
       x1="-3.1372"
       x2="16.007"
       y1="8.4095"
       y2="8.4095"
       gradientUnits="userSpaceOnUse">
      <stop
         stop-color="#d08770"
         offset="0"
         id="stop7" />
      <stop
         stop-color="#ebcb8b"
         offset="1"
         id="stop8" />
    </linearGradient>
    <filter
       id="filter1178-2-9"
       x="-0.047999482"
       y="-0.047999482"
       width="1.095999"
       height="1.095999"
       color-interpolation-filters="sRGB">
      <feGaussianBlur
         stdDeviation="0.30691668"
         id="feGaussianBlur1-7-7" />
    </filter>
    <linearGradient
       inkscape:collect="always"
       xlink:href="#linearGradient1340-3"
       id="linearGradient43"
       x1="-38.633511"
       y1="464.13348"
       x2="-38.633511"
       y2="317.9754"
       gradientUnits="userSpaceOnUse"
       gradientTransform="translate(-2111.0887,-10433.447)" />
    <linearGradient
       id="linearGradient1340-3"
       x1="15.983954"
       x2="0.77064294"
       y1="8.4003706"
       y2="8.4003706"
       gradientUnits="userSpaceOnUse"
       gradientTransform="matrix(9.6915364,0,0,9.6915364,-120.68731,309.00066)">
      <stop
         stop-color="#d8dee9"
         offset="0"
         id="stop1-0-6"
         style="stop-color:#bf616a;stop-opacity:1;" />
      <stop
         stop-color="#d8dee9"
         offset="0.5"
         id="stop44"
         style="stop-color:#ebcb8b;stop-opacity:1;" />
      <stop
         stop-color="#d8dee9"
         offset="1"
         id="stop43"
         style="stop-color:#8fbcbb;stop-opacity:1;" />
    </linearGradient>
    <linearGradient
       inkscape:collect="always"
       xlink:href="#linearGradient2546"
       id="linearGradient41"
       gradientUnits="userSpaceOnUse"
       gradientTransform="matrix(8.5922254,0,0,8.5922254,-2222.4682,-10115.138)"
       x1="7.9709001"
       y1="15.584"
       x2="7.9826999"
       y2="1.1618" />
    <linearGradient
       id="linearGradient2546"
       x1="7.9709001"
       x2="7.9826999"
       y1="15.584"
       y2="1.1618"
       gradientTransform="matrix(0.88657,0,0,0.88657,0.96041,0.96041)"
       gradientUnits="userSpaceOnUse">
      <stop
         stop-color="#2e3440"
         offset="0"
         id="stop5-0" />
      <stop
         stop-color="#4c566a"
         offset="1"
         id="stop6-6" />
    </linearGradient>
    <radialGradient
       inkscape:collect="always"
       xlink:href="#linearGradient1638"
       id="radialGradient1680"
       gradientUnits="userSpaceOnUse"
       gradientTransform="matrix(1.058469,0.08930151,-0.16507404,1.9565823,2.7884105,-28.123773)"
       cx="32.135498"
       cy="28.274265"
       fx="32.135498"
       fy="28.274265"
       r="7.0000019" />
    <linearGradient
       inkscape:collect="always"
       id="linearGradient1638">
      <stop
         style="stop-color:#eceff4;stop-opacity:1;"
         offset="0"
         id="stop1634" />
      <stop
         style="stop-color:#8fbcbb;stop-opacity:1;"
         offset="1"
         id="stop1636" />
    </linearGradient>
    <radialGradient
       inkscape:collect="always"
       xlink:href="#linearGradient2515"
       id="radialGradient2517"
       cx="34.077766"
       cy="33.654915"
       fx="34.077766"
       fy="33.654915"
       r="8.0000048"
       gradientTransform="matrix(1.9033696,0.76036676,-0.40632236,1.0171167,-17.110072,-25.819532)"
       gradientUnits="userSpaceOnUse" />
    <linearGradient
       inkscape:collect="always"
       id="linearGradient2515">
      <stop
         style="stop-color:#eceff4;stop-opacity:1;"
         offset="0"
         id="stop2511" />
      <stop
         style="stop-color:#bf616a;stop-opacity:1;"
         offset="1"
         id="stop2513" />
    </linearGradient>
    <radialGradient
       inkscape:collect="always"
       xlink:href="#linearGradient2850"
       id="radialGradient2852"
       cx="29.661343"
       cy="35.66066"
       fx="29.661343"
       fy="35.66066"
       r="8.0000048"
       gradientTransform="matrix(-1.7236439,1.148614,-0.5221049,-0.78348595,99.579489,27.599128)"
       gradientUnits="userSpaceOnUse" />
    <linearGradient
       inkscape:collect="always"
       id="linearGradient2850">
      <stop
         style="stop-color:#eceff4;stop-opacity:1;"
         offset="0"
         id="stop2846" />
      <stop
         style="stop-color:#ebcb8b;stop-opacity:1;"
         offset="1"
         id="stop2848" />
    </linearGradient>
  </defs>
  <g
     id="g44"
     transform="matrix(0.10318386,0,0,0.10318386,230.27552,1044.6479)">
    <rect
       transform="matrix(9.6079954,0,0,9.6915364,-2231.0686,-10124.428)"
       x="0.79374999"
       y="0.90544999"
       width="15.346"
       height="15.346"
       rx="3.0525999"
       ry="3.0525999"
       fill="#000000"
       filter="url(#filter1178)"
       opacity="0.15"
       stroke-width="1.2489"
       style="mix-blend-mode:normal;stroke-linecap:round;stroke-linejoin:round;filter:url(#filter1178-2-9)"
       id="rect10-9-1" />
    <rect
       x="-2222.8013"
       y="-10115.472"
       width="146.15807"
       height="146.15807"
       rx="29.07461"
       ry="29.07461"
       fill="url(#linearGradient1340)"
       stroke-width="11.8954"
       id="rect11-20-5"
       style="fill:url(#linearGradient43);stroke-linecap:round;stroke-linejoin:round" />
    <rect
       x="-2231.6582"
       y="-10124.388"
       width="164.01956"
       height="164.04863"
       fill="none"
       opacity="0.15"
       stroke-width="10.1955"
       id="rect12-5"
       style="stroke-linecap:round;stroke-linejoin:round" />
    <rect
       x="-2214.5115"
       y="-10107.182"
       width="129.57584"
       height="129.57584"
       rx="25.776579"
       ry="25.776579"
       fill="url(#linearGradient2546)"
       stroke-width="10.9611"
       id="rect14-7"
       style="fill:url(#linearGradient41);stroke-linecap:round;stroke-linejoin:round" />
    <g
       id="g6228"
       transform="matrix(2.5723372,0,0,2.5723372,-2232.0384,-10118.278)">
      <path
         style="mix-blend-mode:lighten;fill:url(#radialGradient1680);fill-opacity:1;fill-rule:nonzero"
         d="m 25.002653,20.382103 c -0.0196,0.514484 0.0718,1.076908 0.223374,1.639464 0.28878,1.070354 0.76738,2.051108 1.331754,2.977508 1.28567,2.106696 2.906202,3.910326 4.664468,5.584894 0.144,0.13766 0.315414,0.253896 0.498968,0.342532 0.18382,0.0956 0.367372,0.0956 0.557324,0.0136 0.18356,-0.08194 0.347788,-0.19858 0.485652,-0.350044 0.610196,-0.63085 1.213344,-1.262652 1.790902,-1.914668 0.813336,-0.9264 1.587896,-1.879432 2.28987,-2.901844 0.63683,-0.926264 1.20721,-1.900738 1.62667,-2.957296 0.419462,-1.050136 0.623384,-2.133326 0.485652,-3.272238 -0.22964,-1.879324 -0.99689,-3.471671 -2.368332,-4.720254 -1.621578,-1.473935 -3.510396,-2.064083 -5.636032,-1.735343 -3.45726,0.53579 -5.963586,3.719255 -5.95027,7.293465 z"
         id="path37-1" />
      <path
         style="display:inline;fill:url(#radialGradient2517);fill-opacity:1"
         d="m 42.894854,45.998033 c -0.435154,0.0132 -0.92375,-0.04062 -1.412214,-0.14436 -1.445174,-0.316356 -2.672642,-0.973434 -3.615956,-2.138388 -0.573684,-0.710394 -1.055976,-1.480258 -1.471696,-2.289948 -0.488728,-0.954048 -0.897096,-1.94805 -1.253202,-2.954234 -0.435154,-1.21709 -0.804654,-2.46077 -1.089068,-3.717812 -0.15796,-0.704236 0.0196,-1.145432 0.798484,-1.388038 0.989404,-0.309152 1.98616,-0.585556 3.00222,-0.80969 1.682184,-0.368624 3.377764,-0.605072 5.107218,-0.54678 0.488596,0.0196 0.976142,0.07204 1.458436,0.15758 1.398952,0.243786 2.58637,0.888682 3.55621,1.908228 1.656576,1.737144 2.31548,3.8099 1.90698,6.172554 -0.587076,3.376042 -3.582994,5.77747 -6.987412,5.750878 z"
         id="path39" />
      <path
         style="display:inline;fill:url(#radialGradient2852);fill-opacity:1"
         d="m 21.105156,45.998033 c 0.435154,0.0132 0.92375,-0.04062 1.412216,-0.14436 1.445174,-0.316356 2.67264,-0.973434 3.615954,-2.138388 0.573684,-0.710394 1.055978,-1.480258 1.471698,-2.289948 0.488728,-0.954048 0.897094,-1.94805 1.253202,-2.954234 0.435154,-1.21709 0.804652,-2.46077 1.089066,-3.717812 0.15796,-0.704236 -0.0196,-1.145432 -0.798484,-1.388038 -0.989404,-0.309152 -1.986162,-0.585556 -3.002218,-0.80969 -1.682186,-0.368624 -3.377764,-0.605072 -5.107218,-0.54678 -0.488596,0.0196 -0.976144,0.07204 -1.458436,0.15758 -1.398954,0.243786 -2.586371,0.888682 -3.55621,1.908228 -1.656578,1.737144 -2.315481,3.8099 -1.906982,6.172554 0.587077,3.376042 3.582994,5.77747 6.987412,5.750878 z"
         id="path33"
         sodipodi:nodetypes="cccccccccccccc" />
    </g>
  </g>
</svg>
