<svg xmlns="http://www.w3.org/2000/svg" xml:space="preserve" width="128" height="102.828" viewBox="0 0 33.867 27.207"><g fill="#2e3440" style="fill:#eceff4;fill-opacity:1"><path d="m8.364 4.997-.736.753a2.43 2.43 0 0 1 0 3.372l.736.753c1.436-1.519 1.436-3.36 0-4.878" style="fill:#eceff4;fill-opacity:1" transform="translate(-2.42 -4.84)scale(2.41907)"/><path d="M9.468 4.622c1.492 1.523 1.492 4.479 0 6l1.104 1.124c2.137-2.179 2.137-6.07 0-8.25z" style="fill:#eceff4;fill-opacity:1" transform="translate(-2.42 -4.84)scale(2.41907)"/><path d="M11.308 3.124c2.624 2.53 2.584 6.469 0 8.999l1.104 1.124c3.431-3.372 3.47-7.875 0-11.247z" opacity=".4" style="fill:#eceff4;fill-opacity:1" transform="translate(-2.42 -4.84)scale(2.41907)"/><path d="M6 3 4 5v5l2 2V9l1.5-1.497-1.5-1.5ZM1.75 5c-.391 0-.75.416-.75.836v3.327c0 .483.327.836.75.836H4v-5z" style="fill:#eceff4;fill-opacity:1" transform="translate(-2.42 -4.84)scale(2.41907)"/></g></svg>