<?xml version="1.0" encoding="UTF-8" standalone="no"?>
<svg
   viewBox="0 0 24 24"
   version="1.1"
   id="svg5"
   sodipodi:docname="sink-medium.svg"
   inkscape:version="1.4.2 (ebf0e940d0, 2025-05-08)"
   xmlns:inkscape="http://www.inkscape.org/namespaces/inkscape"
   xmlns:sodipodi="http://sodipodi.sourceforge.net/DTD/sodipodi-0.dtd"
   xmlns="http://www.w3.org/2000/svg"
   xmlns:svg="http://www.w3.org/2000/svg">
  <defs
     id="defs5" />
  <sodipodi:namedview
     id="namedview5"
     pagecolor="#505050"
     bordercolor="#eeeeee"
     borderopacity="1"
     inkscape:showpageshadow="0"
     inkscape:pageopacity="0"
     inkscape:pagecheckerboard="0"
     inkscape:deskcolor="#505050"
     inkscape:zoom="38.833333"
     inkscape:cx="12.012876"
     inkscape:cy="18.180258"
     inkscape:window-width="2211"
     inkscape:window-height="1368"
     inkscape:window-x="0"
     inkscape:window-y="0"
     inkscape:window-maximized="1"
     inkscape:current-layer="svg5" />
  <path
     d="m12.992 8.5-0.999 1c1.233 1.276 1.233 3.224 0 4.5l0.999 1c1.952-2.02 1.952-4.479 0-6.5z"
     fill="#d8dee9"
     id="path1" />
  <path
     d="m14.491 8c2.025 2.027 2.025 5.973 0 8l1.499 1.5c2.902-2.905 2.902-8.095 0-11z"
     fill="#d8dee9"
     id="path2" />
  <path
     d="m16.988 6c3.561 3.372 3.508 8.628 0 12l1.499 1.5c4.658-4.5 4.71-10.5 0-15z"
     fill="#d8dee9"
     id="path3"
     style="fill:#d7dee8;fill-opacity:0.40000001" />
  <g
     transform="translate(1,1)"
     fill="#d8dee9"
     id="g5">
    <path
       d="m8 5-3 3v6l3 3v-4l2-2-2-2z"
       id="path4" />
    <path
       d="m2 8c-0.523 0-0.999 0.498-0.999 1v4c0 0.58 0.433 1 0.999 1h3.996v-6z"
       id="path5" />
  </g>
</svg>
