<svg xmlns="http://www.w3.org/2000/svg" xml:space="preserve" width="128" height="88.617" viewBox="0 0 33.867 23.447"><g fill="#2e3440" style="fill:#eceff4;fill-opacity:1"><path d="M6 3 4 5v5l2 2V9l1.5-1.497-1.5-1.5ZM1.75 5c-.391 0-.75.416-.75.836v3.327c0 .483.327.836.75.836H4v-5z" style="fill:#eceff4;fill-opacity:1" transform="translate(-2.605 -7.815)scale(2.60513)"/><path d="M8.895 4.5 8 5.395 10.105 7.5 8 9.605l.895.895L11 8.395l2.105 2.105.895-.895L11.895 7.5 14 5.395l-.895-.895L11 6.605Z" opacity=".4" style="fill:#eceff4;fill-opacity:1" transform="translate(-2.605 -7.815)scale(2.60513)"/></g></svg>