<svg xmlns="http://www.w3.org/2000/svg" xml:space="preserve" width="91.429" height="128" viewBox="0 0 24.191 33.867"><g fill="currentColor" style="fill:#eceff4;fill-opacity:1" transform="translate(-7.257 -2.421)scale(2.41905)"><rect width="6" height="10" x="5" y="1.001" class="ColorScheme-Text" ry="3" style="color:#2e3440;fill:#eceff4;fill-opacity:1"/><path d="M3.5 6.001c-.277 0-.5.223-.5.5v1.5c0 2.6 1.967 4.725 4.5 4.975V14h-2a.499.499 0 1 0 0 1h5a.499.499 0 1 0 0-1h-2v-1.025A4.99 4.99 0 0 0 13 8v-1.5a.499.499 0 1 0-1 0v1.5c0 2.216-1.784 4-4 4s-4-1.784-4-4v-1.5c0-.277-.223-.5-.5-.5" class="ColorScheme-Text" style="color:#2e3440;fill:#eceff4;fill-opacity:1"/></g></svg>