<?xml version="1.0" encoding="UTF-8" standalone="no"?>
<svg
   width="24"
   height="24"
   version="1.1"
   viewBox="0 0 24 24"
   id="svg9"
   sodipodi:docname="source-muted.svg"
   inkscape:version="1.4.2 (ebf0e940d0, 2025-05-08)"
   xmlns:inkscape="http://www.inkscape.org/namespaces/inkscape"
   xmlns:sodipodi="http://sodipodi.sourceforge.net/DTD/sodipodi-0.dtd"
   xmlns:xlink="http://www.w3.org/1999/xlink"
   xmlns="http://www.w3.org/2000/svg"
   xmlns:svg="http://www.w3.org/2000/svg">
  <sodipodi:namedview
     id="namedview9"
     pagecolor="#505050"
     bordercolor="#eeeeee"
     borderopacity="1"
     inkscape:showpageshadow="0"
     inkscape:pageopacity="0"
     inkscape:pagecheckerboard="0"
     inkscape:deskcolor="#505050"
     inkscape:zoom="15.88044"
     inkscape:cx="-2.0150575"
     inkscape:cy="11.46064"
     inkscape:window-width="1309"
     inkscape:window-height="1368"
     inkscape:window-x="0"
     inkscape:window-y="0"
     inkscape:window-maximized="1"
     inkscape:current-layer="svg9" />
  <defs
     id="defs9">
    <filter
       id="alpha"
       x="0"
       y="0"
       width="1"
       height="1">
      <feColorMatrix
         in="SourceGraphic"
         values="0 0 0 0 1 0 0 0 0 1 0 0 0 0 1 0 0 0 1 0"
         id="feColorMatrix1" />
    </filter>
    <mask
       id="mask0">
      <g
         filter="url(#alpha)"
         id="g1">
        <rect
           width="24"
           height="24"
           id="rect1" />
      </g>
    </mask>
    <clipPath
       id="clip1">
      <rect
         width="24"
         height="24"
         id="rect2" />
    </clipPath>
    <g
       id="surface5"
       clip-path="url(#clip1)">
      <path
         d="m15.601562 12.546875c0.023438-0.171875 0.039063-0.351563 0.039063-0.535156v-6.148438c0-2.03125-1.628906-3.683593-3.640625-3.683593-1.832031 0-3.351562 1.382812-3.597656 3.179687"
         id="path2" />
      <path
         d="m14.378906 14.800781c0.050782-0.046875 0.101563-0.09375 0.148438-0.140625"
         id="path3" />
      <path
         d="m8.367188 11.964844v0.046875c0 2.03125 1.628906 3.679687 3.632812 3.679687h0.085938"
         id="path4" />
      <path
         d="m13.160156 16.765625c-0.371094 0.09375-0.765625 0.144531-1.167968 0.144531-2.675782 0-4.84375-2.199218-4.84375-4.910156h-2.417969c0 3.652344 2.621093 6.667969 6.0625 7.246094v1.34375h-1.214844v1.230468h4.84375v-1.230468h-1.210937v-1.34375c0.652343-0.109375 1.277343-0.308594 1.859374-0.582032"
         id="path5" />
      <path
         d="m15.382812 15.511719c-0.050781 0.050781-0.097656 0.09375-0.148437 0.140625"
         id="path6" />
      <path
         d="m18.449219 15.398438c0.523437-1.015626 0.820312-2.171876 0.820312-3.398438h-2.425781c0 0.539062-0.085938 1.0625-0.246094 1.546875"
         id="path7" />
      <path
         d="m16.960938 17.378906c0.046874-0.046875 0.097656-0.09375 0.144531-0.140625"
         id="path8" />
      <path
         d="m3.039062 5.050781 1.734376-1.734375 16.28125 16.28125-1.734376 1.734375z"
         id="path9" />
    </g>
  </defs>
  <g
     id="surface1"
     style="fill:#d8dee9;fill-opacity:1;opacity:0.4">
    <use
       mask="url(#mask0)"
       xlink:href="#surface5"
       id="use9"
       style="fill:#d8dee9;fill-opacity:1" />
  </g>
</svg>
