<svg xmlns="http://www.w3.org/2000/svg" xml:space="preserve" width="117.417" height="128" viewBox="0 0 31.067 33.867"><g fill="#2e3440" opacity=".4" style="fill:#eceff4;fill-opacity:1"><path d="M10.401 8.366a2.5 2.5 0 0 0 .026-.358V3.91c0-1.355-1.086-2.457-2.426-2.457-1.223 0-2.237.923-2.4 2.119M9.585 9.866q.052-.044.1-.092M5.579 7.977v.031c0 1.355 1.086 2.453 2.422 2.453h.057M5.579 5.666v.191" style="fill:#eceff4;fill-opacity:1" transform="translate(-5.242 -3.759)scale(2.58648)"/><path d="M8.775 11.177q-.376.095-.78.096c-1.785 0-3.23-1.465-3.23-3.273H3.154c0 2.434 1.746 4.445 4.04 4.832v.895h-.809v.82h3.23v-.82h-.809v-.895a4.8 4.8 0 0 0 1.24-.388M10.254 10.342l-.098.093M12.3 10.266A4.9 4.9 0 0 0 12.846 8h-1.617c0 .36-.058.707-.164 1.031M11.403 11.492zM11.307 11.586q.05-.046.096-.093" style="fill:#eceff4;fill-opacity:1" transform="translate(-5.242 -3.759)scale(2.58648)"/><path d="M2.027 3.368 3.183 2.21l10.855 10.855-1.156 1.157z" color="#000" style="fill:#eceff4;fill-opacity:1;-inkscape-stroke:none" transform="translate(-5.242 -3.759)scale(2.58648)"/></g></svg>