<?xml version="1.0" encoding="UTF-8" standalone="no"?>
<svg
   width="24"
   height="24"
   version="1.1"
   viewBox="0 0 24 24"
   id="svg6"
   sodipodi:docname="source-medium.svg"
   inkscape:version="1.4.2 (ebf0e940d0, 2025-05-08)"
   xmlns:inkscape="http://www.inkscape.org/namespaces/inkscape"
   xmlns:sodipodi="http://sodipodi.sourceforge.net/DTD/sodipodi-0.dtd"
   xmlns="http://www.w3.org/2000/svg"
   xmlns:svg="http://www.w3.org/2000/svg">
  <sodipodi:namedview
     id="namedview6"
     pagecolor="#505050"
     bordercolor="#eeeeee"
     borderopacity="1"
     inkscape:showpageshadow="0"
     inkscape:pageopacity="0"
     inkscape:pagecheckerboard="0"
     inkscape:deskcolor="#505050"
     inkscape:zoom="13.729657"
     inkscape:cx="9.7963117"
     inkscape:cy="7.3563382"
     inkscape:window-width="1309"
     inkscape:window-height="1368"
     inkscape:window-x="0"
     inkscape:window-y="0"
     inkscape:window-maximized="1"
     inkscape:current-layer="svg6" />
  <defs
     id="defs2">
    <filter
       id="alpha"
       x="0"
       y="0"
       width="1"
       height="1">
      <feColorMatrix
         in="SourceGraphic"
         values="0 0 0 0 1 0 0 0 0 1 0 0 0 0 1 0 0 0 1 0"
         id="feColorMatrix1" />
    </filter>
    <mask
       id="mask0">
      <g
         filter="url(#alpha)"
         id="g1">
        <rect
           width="24"
           height="24"
           style="fill-opacity:.4;fill:rgb(0%,0%,0%)"
           id="rect1" />
      </g>
    </mask>
    <clipPath
       id="clip1">
      <rect
         width="24"
         height="24"
         id="rect2" />
    </clipPath>
    <g
       id="surface5"
       clip-path="url(#clip1)">
      <path
         d="m22.910156 4.636719c0 1.355469-1.085937 2.453125-2.425781 2.453125-1.335937 0-2.425781-1.09375-2.425781-2.453125 0-1.355469 1.089844-2.457031 2.425781-2.457031 1.34375 0 2.425781 1.101562 2.425781 2.457031z"
         style="fill:rgb(18.039216%,20.392157%,25.098041%)"
         id="path2" />
    </g>
  </defs>
  <path
     d="M 8.667,3 C 6.827,3 5.334,4.511 5.334,6.374 v 5.637 c 0,1.862 1.493,3.374 3.333,3.374 1.84,0 3.333,-1.511 3.333,-3.374 V 6.374 C 12,4.512 10.507,3 8.667,3"
     fill="#d8dee9"
     id="path1" />
  <path
     d="m 2,12 c 0,3.349 2.399,6.113 5.557,6.647 v 1.228 H 6.444 V 21 h 4.447 V 19.875 H 9.778 V 18.647 C 12.936,18.113 15.335,15.349 15.335,12 h -2.223 c 0,2.485 -1.987,4.502 -4.443,4.502 -2.453,0 -4.443,-2.02 -4.443,-4.502 z"
     fill="#d8dee9"
     id="path2-5" />
  <path
     d="m 22,5.249 c 0,1.243 -0.995,2.249 -2.223,2.249 -1.228,0 -2.22,-1.01 -2.22,-2.249 C 17.557,4.006 18.549,3 19.777,3 21.005,3 22,4.01 22,5.249"
     fill="#d8dee9"
     id="path3-6"
     style="opacity:0.4;fill:#d8dee9;fill-opacity:1" />
  <path
     d="m 22,12 c 0,1.243 -0.995,2.249 -2.223,2.249 -1.228,0 -2.22,-1.01 -2.22,-2.249 0,-1.243 0.992,-2.249 2.22,-2.249 1.228,0 2.223,1.01 2.223,2.249"
     fill="#d8dee9"
     id="path4-3"
     style="opacity:1;fill:#d8dee9;fill-opacity:1" />
  <path
     d="M 22,18.751 C 22,19.994 21.005,21 19.777,21 c -1.228,0 -2.22,-1.01 -2.22,-2.249 0,-1.243 0.992,-2.249 2.22,-2.249 1.228,0 2.223,1.01 2.223,2.249 z"
     fill="#d8dee9"
     id="path5-5" />
</svg>
