<?xml version="1.0" encoding="UTF-8" standalone="no"?>
<svg
   viewBox="0 0 24 24"
   version="1.1"
   id="svg4"
   sodipodi:docname="source-paused (Copy).svg"
   xml:space="preserve"
   inkscape:version="1.4.2 (ebf0e940d0, 2025-05-08)"
   xmlns:inkscape="http://www.inkscape.org/namespaces/inkscape"
   xmlns:sodipodi="http://sodipodi.sourceforge.net/DTD/sodipodi-0.dtd"
   xmlns="http://www.w3.org/2000/svg"
   xmlns:svg="http://www.w3.org/2000/svg"
   xmlns:rdf="http://www.w3.org/1999/02/22-rdf-syntax-ns#"
   xmlns:cc="http://creativecommons.org/ns#"
   xmlns:dc="http://purl.org/dc/elements/1.1/"><defs
     id="defs4"><style
       id="current-color-scheme"
       type="text/css">
   .ColorScheme-Text { color:#d8dee9; } .ColorScheme-Highlight { color:#88c0d0; } .ColorScheme-NeutralText { color:#d08770; } .ColorScheme-PositiveText { color:#a3be8c; } .ColorScheme-NegativeText { color:#bf616a; }
  </style></defs><sodipodi:namedview
     id="namedview4"
     pagecolor="#505050"
     bordercolor="#eeeeee"
     borderopacity="1"
     inkscape:showpageshadow="0"
     inkscape:pageopacity="0"
     inkscape:pagecheckerboard="0"
     inkscape:deskcolor="#505050"
     inkscape:zoom="38.833333"
     inkscape:cx="2.5364807"
     inkscape:cy="11.793991"
     inkscape:window-width="3418"
     inkscape:window-height="1368"
     inkscape:window-x="0"
     inkscape:window-y="0"
     inkscape:window-maximized="1"
     inkscape:current-layer="svg4" /><path
     d="m8.667 3c-1.841 0-3.333 1.511-3.333 3.375v5.635c0 1.864 1.492 3.375 3.333 3.375s3.333-1.511 3.333-3.375v-5.635c0-1.864-1.492-3.375-3.333-3.375"
     fill="#d8dee9"
     id="path1" /><path
     d="m2 12c0 3.348 2.398 6.112 5.556 6.645v1.23h-1.111v1.125h4.444v-1.125h-1.111v-1.23c3.157-0.532 5.556-3.297 5.556-6.645h-2.222c0 2.485-1.99 4.5-4.444 4.5-2.455 0-4.444-2.01-4.444-4.5h-2.222"
     fill="#d8dee9"
     id="path2" /><title
     id="title1">loading</title><path
     d="m 17.199554,10.845639 1.353188,-0.351829 c 0.14885,-0.0406 0.243573,-0.189446 0.202978,-0.351829 -0.0406,-0.1488501 -0.189446,-0.2435741 -0.351829,-0.2029781 l -0.703658,0.1894461 c 0.230042,-0.2977011 0.527744,-0.5412751 0.893104,-0.7036571 0.554807,-0.243574 1.163742,-0.257106 1.732081,-0.0406 0.554807,0.21651 1.001358,0.6495301 1.244932,1.1908051 0.06766,0.148851 0.230042,0.202978 0.378893,0.148851 0.14885,-0.06766 0.202978,-0.230042 0.14885,-0.378893 -0.297701,-0.6901251 -0.852508,-1.2178691 -1.556165,-1.5020381 -0.703658,-0.270638 -1.474975,-0.257106 -2.165101,0.0406 -0.460084,0.202978 -0.838976,0.514211 -1.136677,0.906635 l -0.175915,-0.663062 c -0.04059,-0.14885 -0.189446,-0.243573 -0.351829,-0.202978 -0.14885,0.0406 -0.243573,0.189447 -0.202978,0.351829 l 0.351829,1.3531881 c 0.0406,0.189446 0.135319,0.270637 0.338297,0.21651 z m 5.290964,2.868758 -0.351829,-1.339656 c 0,0 -0.05413,-0.270638 -0.324765,-0.202978 v 0 l -1.353188,0.351829 c -0.14885,0.04059 -0.243573,0.189446 -0.202978,0.351828 0.0406,0.148851 0.189446,0.243574 0.351829,0.202979 l 0.703658,-0.189447 c -0.595403,0.784849 -1.650889,1.109614 -2.611653,0.730722 -0.554807,-0.21651 -1.001359,-0.649531 -1.244932,-1.190806 -0.06766,-0.14885 -0.230042,-0.202978 -0.378893,-0.14885 -0.148851,0.06766 -0.202978,0.230042 -0.148851,0.378892 0.297702,0.690126 0.852509,1.217869 1.556166,1.502039 0.338297,0.135318 0.676594,0.189446 1.028423,0.189446 0.893104,0 1.73208,-0.419488 2.273355,-1.15021 l 0.175915,0.663062 c 0.02706,0.121787 0.14885,0.21651 0.270637,0.21651 0.02706,0 0.05413,0 0.06766,-0.01353 0.135318,-0.05413 0.230042,-0.202979 0.189446,-0.35183 z"
     id="path1-6"
     style="stroke-width:0.338297;fill:#8fbcbb;fill-opacity:1" /><metadata
     id="metadata4"><rdf:RDF><cc:Work
         rdf:about=""><dc:title>loading</dc:title></cc:Work></rdf:RDF></metadata></svg>
