<svg xmlns="http://www.w3.org/2000/svg" xml:space="preserve" width="128.001" height="101.387" viewBox="0 0 33.867 26.825"><path d="m-2684.91-8786.72-16.335.833c-.89.045-1.754.36-2.464.897l-13.05 9.861c-1.101.832-.504 2.472.874 2.402l2.848-.146c-.31.9-.346 1.873-.043 2.813-.401.475-.568 1.13-.34 1.756.207.568.68.937 1.222 1.086l.858 6.54a.897.897 0 0 0 1.195.726l2.956-1.076a.897.897 0 0 0 .449-1.325l-3.547-5.56c.32-.463.445-1.05.238-1.618-.221-.609-.748-.995-1.34-1.115a2.64 2.64 0 0 1 .386-2.33l11.453-.585a4.5 4.5 0 0 0 2.464-.896l13.05-9.862c1.102-.833.505-2.472-.874-2.402m-11.094 13.694a6.28 6.28 0 0 1-3.455 1.257l-8.492.433 1.428 6.248c.678 1.862 5.755 1.723 11.34-.31s9.564-5.19 8.886-7.051l-2.922-5.705z" style="fill:#eceff4;fill-opacity:1;stroke-width:.0560507" transform="translate(2717.33 8786.722)"/></svg>