<?xml version="1.0" encoding="UTF-8" standalone="no"?>
<!-- Created with Inkscape (http://www.inkscape.org/) -->

<svg
   width="63.965824"
   height="64.085938"
   viewBox="0 0 16.92429 16.956071"
   version="1.1"
   id="svg1"
   xml:space="preserve"
   sodipodi:docname="zeditor.svg"
   inkscape:version="1.4.2 (ebf0e940d0, 2025-05-08)"
   xmlns:inkscape="http://www.inkscape.org/namespaces/inkscape"
   xmlns:sodipodi="http://sodipodi.sourceforge.net/DTD/sodipodi-0.dtd"
   xmlns:xlink="http://www.w3.org/1999/xlink"
   xmlns="http://www.w3.org/2000/svg"
   xmlns:svg="http://www.w3.org/2000/svg"><sodipodi:namedview
     id="namedview1"
     pagecolor="#505050"
     bordercolor="#eeeeee"
     borderopacity="1"
     inkscape:showpageshadow="0"
     inkscape:pageopacity="0"
     inkscape:pagecheckerboard="0"
     inkscape:deskcolor="#505050"
     inkscape:zoom="7.2851403"
     inkscape:cx="25.46279"
     inkscape:cy="41.316981"
     inkscape:window-width="2514"
     inkscape:window-height="1368"
     inkscape:window-x="0"
     inkscape:window-y="0"
     inkscape:window-maximized="1"
     inkscape:current-layer="svg1" /><defs
     id="defs1"><linearGradient
       id="linearGradient1"
       inkscape:collect="always"><stop
         style="stop-color:#d8dee9;stop-opacity:1;"
         offset="0"
         id="stop1" /><stop
         style="stop-color:#d8dee9;stop-opacity:0;"
         offset="1"
         id="stop2" /></linearGradient><linearGradient
       id="swatch59"><stop
         style="stop-color:#92bcba;stop-opacity:1;"
         offset="0"
         id="stop59" /></linearGradient><filter
       id="filter1178-36"
       x="-0.047999482"
       y="-0.047999482"
       width="1.095999"
       height="1.095999"
       color-interpolation-filters="sRGB"><feGaussianBlur
         stdDeviation="0.30691668"
         id="feGaussianBlur20" /></filter><linearGradient
       inkscape:collect="always"
       xlink:href="#linearGradient1"
       id="linearGradient2"
       x1="4.5029321"
       y1="24.94804"
       x2="10.578302"
       y2="31.936954"
       gradientUnits="userSpaceOnUse"
       gradientTransform="translate(0.92152834,-19.964464)" /><filter
       inkscape:collect="always"
       style="color-interpolation-filters:sRGB"
       id="filter2"
       x="-0.026999418"
       y="-0.027000584"
       width="1.0539988"
       height="1.0540012"><feGaussianBlur
         inkscape:collect="always"
         stdDeviation="0.10417725"
         id="feGaussianBlur2" /></filter><filter
       inkscape:collect="always"
       style="color-interpolation-filters:sRGB"
       id="filter3"
       x="-0.026999417"
       y="-0.027000581"
       width="1.0539988"
       height="1.0540012"><feGaussianBlur
         inkscape:collect="always"
         stdDeviation="0.10417725"
         id="feGaussianBlur3" /></filter></defs><rect
     transform="matrix(0.99139953,0,0,1.0000197,0.06821315,-0.10058388)"
     x="0.79374999"
     y="0.90544999"
     width="15.346"
     height="15.346"
     rx="3.0525999"
     ry="3.0525999"
     filter="url(#filter1178-36)"
     opacity="0.15"
     stroke-linecap="round"
     stroke-linejoin="round"
     stroke-width="1.2489"
     style="mix-blend-mode:normal"
     id="rect20-0" /><rect
     x="-2.153535e-05"
     y="0.014368333"
     width="16.924334"
     height="16.927334"
     fill="none"
     opacity="0.15"
     stroke-linecap="round"
     stroke-linejoin="round"
     stroke-width="1.05202"
     id="rect22" /><rect
     x="0.92149633"
     y="0.93738633"
     width="15.081298"
     height="15.081298"
     rx="3.0000591"
     ry="3.0000591"
     fill="url(#linearGradient1340-5)"
     stroke-linecap="round"
     stroke-linejoin="round"
     stroke-width="1.22742"
     id="rect21"
     style="fill:#3b4252;fill-opacity:1" /><path
     fill-rule="evenodd"
     clip-rule="evenodd"
     d="m 4.7001453,4.4270351 c -0.1599,0 -0.2894,0.129 -0.2894,0.289 v 6.3659999 h -0.5788 V 4.7160351 c 0,-0.48 0.3887,-0.868 0.8682,-0.868 h 7.7534997 c 0.3867,0 0.5804,0.467 0.307,0.741 l -4.7754997,4.775 h 1.3452 v -0.597 h 0.5788 v 0.742 c 0,0.24 -0.1944,0.434 -0.4341,0.434 h -2.0687 l -0.9947,0.9949999 H 10.921945 V 7.3200351 h 0.5788 v 3.6179999 c 0,0.319 -0.2591,0.578 -0.5788,0.578 H 5.8328453 l -1.0129,1.014 h 7.4042997 c 0.1598,0 0.2893,-0.13 0.2893,-0.29 V 5.8740351 h 0.5788 v 6.3659999 c 0,0.48 -0.3887,0.868 -0.8681,0.868 H 4.4706453 c -0.3867,0 -0.5804,-0.467 -0.3069,-0.741 l 4.7573,-4.7569999 h -1.3271 v 0.579 h -0.5788 v -0.724 c 0,-0.24 0.1944,-0.434 0.4341,-0.434 h 2.0506 l 1.0128997,-1.013 H 6.0023453 v 3.617 h -0.5788 v -3.617 c 0,-0.319 0.2592,-0.579 0.5788,-0.579 h 5.0890997 l 1.0129,-1.012 z"
     fill="#000000"
     id="path1-12-2"
     style="opacity:0.38;fill:url(#linearGradient2);fill-opacity:1;stroke-width:0.102893;filter:url(#filter2)" /><style
     type="text/css"
     id="style1">
	.st0{fill:#000000;}
</style><style
     type="text/css"
     id="style1-2">
	.st0{fill:#000000;}
</style><style
     type="text/css"
     id="style1-3">
	.st0{fill:#000000;}
</style><style
     type="text/css"
     id="style1-29">
	.st0{fill:#000000;}
</style><style
     type="text/css"
     id="style1-0">
	.st0{fill:#000000;}
</style><g
     id="g3"
     transform="translate(25.84239,-9.3811605)"><path
       fill-rule="evenodd"
       clip-rule="evenodd"
       d="m -21.142245,13.808195 c -0.1599,0 -0.2894,0.129 -0.2894,0.289 v 6.366 h -0.5788 v -6.366 c 0,-0.48 0.3887,-0.868 0.8682,-0.868 h 7.7535 c 0.3867,0 0.5804,0.467 0.307,0.741 l -4.7755,4.775 h 1.3452 v -0.597 h 0.5788 v 0.742 c 0,0.24 -0.1944,0.434 -0.4341,0.434 h -2.0687 l -0.9947,0.995 h 4.5103 v -3.618 h 0.5788 v 3.618 c 0,0.319 -0.2591,0.578 -0.5788,0.578 h -5.0891 l -1.0129,1.014 h 7.4043 c 0.1598,0 0.2893,-0.13 0.2893,-0.29 v -6.366 h 0.5788 v 6.366 c 0,0.48 -0.3887,0.868 -0.8681,0.868 h -7.7536 c -0.3867,0 -0.5804,-0.467 -0.3069,-0.741 l 4.7573,-4.757 h -1.3271 v 0.579 h -0.5788 v -0.724 c 0,-0.24 0.1944,-0.434 0.4341,-0.434 h 2.0506 l 1.0129,-1.013 h -4.5104 v 3.617 h -0.5788 v -3.617 c 0,-0.319 0.2592,-0.579 0.5788,-0.579 h 5.0891 l 1.0129,-1.012 z"
       fill="#000000"
       id="path1-12"
       style="fill:#d8dee9;fill-opacity:1;stroke-width:0.102893" /><path
       fill-rule="evenodd"
       clip-rule="evenodd"
       d="m -21.142245,13.808195 c -0.1599,0 -0.2894,0.129 -0.2894,0.289 v 6.366001 h -0.5788 v -6.366001 c 0,-0.48 0.3887,-0.868 0.8682,-0.868 h 7.7535 c 0.3867,0 0.5804,0.467 0.307,0.741 l -4.7755,4.775 h 1.3452 v -0.597 h 0.5788 v 0.742 c 0,0.240001 -0.1944,0.434001 -0.4341,0.434001 h -2.0687 l -0.9947,0.995 h 4.5103 v -3.618001 h 0.5788 v 3.618001 c 0,0.319 -0.2591,0.578 -0.5788,0.578 h -5.0891 l -1.0129,1.014 h 7.4043 c 0.1598,0 0.2893,-0.13 0.2893,-0.29 v -6.366001 h 0.5788 v 6.366001 c 0,0.48 -0.3887,0.868 -0.8681,0.868 h -7.7536 c -0.3867,0 -0.5804,-0.467 -0.3069,-0.741 l 4.7573,-4.757001 h -1.3271 v 0.579 h -0.5788 v -0.724 c 0,-0.24 0.1944,-0.434 0.4341,-0.434 h 2.0506 l 1.0129,-1.013 h -4.5104 v 3.617 h -0.5788 v -3.617 c 0,-0.319 0.2592,-0.579 0.5788,-0.579 h 5.0891 l 1.0129,-1.012 z"
       fill="#000000"
       id="path1-12-7"
       style="opacity:0.100805;fill:#3b4252;fill-opacity:1;stroke-width:0.102893;filter:url(#filter3)" /></g></svg>
