<?xml version="1.0" encoding="UTF-8" standalone="no"?>
<!-- Created with Inkscape (http://www.inkscape.org/) -->

<svg
   width="64"
   height="64"
   viewBox="0 0 16.933332 16.933333"
   version="1.1"
   id="svg1"
   xml:space="preserve"
   sodipodi:docname="ai-studio.svg"
   inkscape:version="1.4.2 (ebf0e940d0, 2025-05-08)"
   xmlns:inkscape="http://www.inkscape.org/namespaces/inkscape"
   xmlns:sodipodi="http://sodipodi.sourceforge.net/DTD/sodipodi-0.dtd"
   xmlns="http://www.w3.org/2000/svg"
   xmlns:svg="http://www.w3.org/2000/svg"><sodipodi:namedview
     id="namedview1"
     pagecolor="#505050"
     bordercolor="#eeeeee"
     borderopacity="1"
     inkscape:showpageshadow="0"
     inkscape:pageopacity="0"
     inkscape:pagecheckerboard="0"
     inkscape:deskcolor="#505050"
     inkscape:zoom="5.151372"
     inkscape:cx="36.009824"
     inkscape:cy="45.424791"
     inkscape:window-width="1703"
     inkscape:window-height="1368"
     inkscape:window-x="0"
     inkscape:window-y="0"
     inkscape:window-maximized="1"
     inkscape:current-layer="svg1" /><defs
     id="defs1"><linearGradient
       id="swatch59"><stop
         style="stop-color:#92bcba;stop-opacity:1;"
         offset="0"
         id="stop59" /></linearGradient><filter
       id="filter1178-36"
       x="-0.047999483"
       y="-0.047999483"
       width="1.095999"
       height="1.095999"
       color-interpolation-filters="sRGB"><feGaussianBlur
         stdDeviation="0.30691668"
         id="feGaussianBlur20" /></filter><filter
       id="filter2347-3"
       x="-0.024545776"
       y="-0.02999863"
       width="1.0490916"
       height="1.0599973"
       color-interpolation-filters="sRGB"><feGaussianBlur
         stdDeviation="0.14938518"
         id="feGaussianBlur1" /></filter><filter
       id="filter2161-7"
       x="-0.024009103"
       y="-0.03084203"
       width="1.0480182"
       height="1.0616841"
       color-interpolation-filters="sRGB"><feGaussianBlur
         stdDeviation="0.146119"
         id="feGaussianBlur2" /></filter><linearGradient
       id="linearGradient2575"
       x1="26.221001"
       x2="26.221001"
       y1="14.474"
       y2="3.3043001"
       gradientTransform="matrix(0.69494,0,0,0.69494,-9.9592,2.4134)"
       gradientUnits="userSpaceOnUse"><stop
         stop-color="#2e3440"
         stop-opacity=".15"
         offset="0"
         id="stop2" /><stop
         stop-color="#2e3440"
         stop-opacity="0"
         offset="1"
         id="stop3" /></linearGradient><filter
       id="filter1178"
       x="-0.047999483"
       y="-0.047999483"
       width="1.095999"
       height="1.095999"
       color-interpolation-filters="sRGB"><feGaussianBlur
         stdDeviation="0.30691668"
         id="feGaussianBlur3" /></filter><linearGradient
       id="linearGradient1340"
       x1="8.3549995"
       x2="8.3996"
       y1="16.007"
       y2="0.79374999"
       gradientUnits="userSpaceOnUse"><stop
         stop-color="#d8dee9"
         offset="0"
         id="stop4" /><stop
         stop-color="#eceff4"
         offset="1"
         id="stop5" /></linearGradient><filter
       id="filter1321"
       x="-0.066691972"
       y="-0.085672021"
       width="1.133384"
       height="1.171344"
       color-interpolation-filters="sRGB"><feGaussianBlur
         stdDeviation="0.27168811"
         id="feGaussianBlur5" /></filter><linearGradient
       gradientUnits="userSpaceOnUse"
       id="lobe-icons-gemini-fill-0"
       x1="7"
       x2="11"
       y1="15.5"
       y2="12"><stop
         stop-color="#08B962"
         id="stop4-2"
         offset="0"
         style="stop-color:#a3be8c;stop-opacity:1;" /><stop
         offset="1"
         stop-color="#08B962"
         stop-opacity="0"
         id="stop5-7" /></linearGradient><linearGradient
       gradientUnits="userSpaceOnUse"
       id="lobe-icons-gemini-fill-1"
       x1="8"
       x2="11.5"
       y1="5.5"
       y2="11"><stop
         stop-color="#F94543"
         id="stop6-0"
         offset="0"
         style="stop-color:#bf616a;stop-opacity:1;" /><stop
         offset="1"
         stop-color="#F94543"
         stop-opacity="0"
         id="stop7-9" /></linearGradient><linearGradient
       gradientUnits="userSpaceOnUse"
       id="lobe-icons-gemini-fill-2"
       x1="3.5"
       x2="17.5"
       y1="13.5"
       y2="12"><stop
         stop-color="#FABC12"
         id="stop8-3"
         offset="0"
         style="stop-color:#ebcb8b;stop-opacity:1;" /><stop
         offset=".46"
         stop-color="#FABC12"
         stop-opacity="0"
         id="stop9-6" /></linearGradient><filter
       id="filter1178-36-7"
       x="-0.047999483"
       y="-0.047999483"
       width="1.095999"
       height="1.095999"
       color-interpolation-filters="sRGB"><feGaussianBlur
         stdDeviation="0.30691668"
         id="feGaussianBlur20-3" /></filter><linearGradient
       gradientUnits="userSpaceOnUse"
       id="lobe-icons-gemini-fill-0-4"
       x1="7"
       x2="11"
       y1="15.5"
       y2="12"><stop
         stop-color="#08B962"
         id="stop4-2-7"
         offset="0"
         style="stop-color:#a3be8c;stop-opacity:1;" /><stop
         offset="1"
         stop-color="#08B962"
         stop-opacity="0"
         id="stop5-7-8" /></linearGradient><linearGradient
       gradientUnits="userSpaceOnUse"
       id="lobe-icons-gemini-fill-1-4"
       x1="8"
       x2="11.5"
       y1="5.5"
       y2="11"><stop
         stop-color="#F94543"
         id="stop6-0-5"
         offset="0"
         style="stop-color:#bf616a;stop-opacity:1;" /><stop
         offset="1"
         stop-color="#F94543"
         stop-opacity="0"
         id="stop7-9-0" /></linearGradient><linearGradient
       gradientUnits="userSpaceOnUse"
       id="lobe-icons-gemini-fill-2-3"
       x1="3.5"
       x2="17.5"
       y1="13.5"
       y2="12"><stop
         stop-color="#FABC12"
         id="stop8-3-6"
         offset="0"
         style="stop-color:#ebcb8b;stop-opacity:1;" /><stop
         offset=".46"
         stop-color="#FABC12"
         stop-opacity="0"
         id="stop9-6-1" /></linearGradient><filter
       id="filter1178-7"
       x="-0.047999483"
       y="-0.047999483"
       width="1.095999"
       height="1.095999"
       color-interpolation-filters="sRGB"><feGaussianBlur
         stdDeviation="0.30691668"
         id="feGaussianBlur3-3" /></filter></defs><rect
     x="0.00014570312"
     y="-0.0007734375"
     width="16.924334"
     height="16.927334"
     fill="none"
     opacity="0.15"
     stroke-linecap="round"
     stroke-linejoin="round"
     stroke-width="1.05202"
     id="rect22" /><style
     type="text/css"
     id="style1">
	.st0{fill:#000000;}
</style><style
     type="text/css"
     id="style1-2">
	.st0{fill:#000000;}
</style><style
     type="text/css"
     id="style1-3">
	.st0{fill:#000000;}
</style><style
     type="text/css"
     id="style1-29">
	.st0{fill:#000000;}
</style><style
     type="text/css"
     id="style1-0">
	.st0{fill:#000000;}
</style><style
     type="text/css"
     id="style1-6">
	.st0{fill:#000000;}
</style><style
     type="text/css"
     id="style1-2-1">
	.st0{fill:#000000;}
</style><style
     type="text/css"
     id="style1-3-2">
	.st0{fill:#000000;}
</style><style
     type="text/css"
     id="style1-29-9">
	.st0{fill:#000000;}
</style><style
     type="text/css"
     id="style1-0-3">
	.st0{fill:#000000;}
</style><g
     id="g1"
     transform="matrix(1.0406163,0,0,1.0406163,-0.97393523,-1.8938882)"><g
       id="g41-5-6"
       transform="matrix(0.38854886,0,0,0.38854886,7.9313424,1.4302902)"
       style="line-height:1;opacity:1;mix-blend-mode:normal;fill:#d8dee9;fill-opacity:1"><path
         d="m 20.616,10.835 a 14.147,14.147 0 0 1 -4.45,-3.001 14.111,14.111 0 0 1 -3.678,-6.452 0.503,0.503 0 0 0 -0.975,0 14.134,14.134 0 0 1 -3.679,6.452 14.155,14.155 0 0 1 -4.45,3.001 c -0.65,0.28 -1.318,0.505 -2.002,0.678 a 0.502,0.502 0 0 0 0,0.975 c 0.684,0.172 1.35,0.397 2.002,0.677 a 14.147,14.147 0 0 1 4.45,3.001 14.112,14.112 0 0 1 3.679,6.453 0.502,0.502 0 0 0 0.975,0 c 0.172,-0.685 0.397,-1.351 0.677,-2.003 a 14.145,14.145 0 0 1 3.001,-4.45 14.113,14.113 0 0 1 6.453,-3.678 0.503,0.503 0 0 0 0,-0.975 13.245,13.245 0 0 1 -2.003,-0.678 z"
         fill="#3186ff"
         id="path1-36753-9-1"
         style="fill:#d8dee9;fill-opacity:1" /><path
         d="m 20.616,10.835 a 14.147,14.147 0 0 1 -4.45,-3.001 14.111,14.111 0 0 1 -3.678,-6.452 0.503,0.503 0 0 0 -0.975,0 14.134,14.134 0 0 1 -3.679,6.452 14.155,14.155 0 0 1 -4.45,3.001 c -0.65,0.28 -1.318,0.505 -2.002,0.678 a 0.502,0.502 0 0 0 0,0.975 c 0.684,0.172 1.35,0.397 2.002,0.677 a 14.147,14.147 0 0 1 4.45,3.001 14.112,14.112 0 0 1 3.679,6.453 0.502,0.502 0 0 0 0.975,0 c 0.172,-0.685 0.397,-1.351 0.677,-2.003 a 14.145,14.145 0 0 1 3.001,-4.45 14.113,14.113 0 0 1 6.453,-3.678 0.503,0.503 0 0 0 0,-0.975 13.245,13.245 0 0 1 -2.003,-0.678 z"
         fill="url(#lobe-icons-gemini-fill-0)"
         id="path2-5-2-0"
         style="fill:#d8dee9;fill-opacity:1" /><path
         d="m 20.616,10.835 a 14.147,14.147 0 0 1 -4.45,-3.001 14.111,14.111 0 0 1 -3.678,-6.452 0.503,0.503 0 0 0 -0.975,0 14.134,14.134 0 0 1 -3.679,6.452 14.155,14.155 0 0 1 -4.45,3.001 c -0.65,0.28 -1.318,0.505 -2.002,0.678 a 0.502,0.502 0 0 0 0,0.975 c 0.684,0.172 1.35,0.397 2.002,0.677 a 14.147,14.147 0 0 1 4.45,3.001 14.112,14.112 0 0 1 3.679,6.453 0.502,0.502 0 0 0 0.975,0 c 0.172,-0.685 0.397,-1.351 0.677,-2.003 a 14.145,14.145 0 0 1 3.001,-4.45 14.113,14.113 0 0 1 6.453,-3.678 0.503,0.503 0 0 0 0,-0.975 13.245,13.245 0 0 1 -2.003,-0.678 z"
         fill="url(#lobe-icons-gemini-fill-1)"
         id="path3-62-2-6"
         style="fill:#d8dee9;fill-opacity:1" /><path
         d="m 20.615999,10.834999 a 14.147,14.147 0 0 1 -4.45,-3.0009987 14.111,14.111 0 0 1 -3.678,-6.452 0.503,0.503 0 0 0 -0.975,0 14.134,14.134 0 0 1 -3.678999,6.452 14.155,14.155 0 0 1 -4.45,3.0009987 c -0.65,0.28 -1.318,0.505 -2.002,0.678 a 0.502,0.502 0 0 0 0,0.975001 c 0.684,0.172 1.35,0.397 2.002,0.677 a 14.147,14.147 0 0 1 4.45,3.001 14.112,14.112 0 0 1 3.678999,6.453 0.502,0.502 0 0 0 0.975,0 c 0.172,-0.685 0.397,-1.351 0.677,-2.003 a 14.145,14.145 0 0 1 3.001,-4.45 14.113,14.113 0 0 1 6.453,-3.678 0.503,0.503 0 0 0 0,-0.975001 13.245,13.245 0 0 1 -2.003,-0.678 z"
         fill="url(#lobe-icons-gemini-fill-2)"
         id="path4-91-8-3"
         style="fill:#d8dee9;fill-opacity:1" /></g><path
       d="M 4.3838025,3.7217888 C 3.5597111,3.7218168 2.7693848,4.049216 2.1866925,4.6319627 1.604086,5.2147846 1.2768672,6.0051757 1.2770248,6.8292583 v 8.1562947 c 3.765e-4,1.715664 1.3910806,3.106402 3.1067444,3.106822 h 8.1570238 c 1.715713,-3.52e-4 3.106492,-1.391109 3.10687,-3.106822 v -4.213831 l -1.165085,0.799025 v 3.414088 c -3.5e-5,1.072406 -0.869411,1.94174 -1.941817,1.941724 H 4.3838638 c -1.0723954,0 -1.9417538,-0.869328 -1.9417871,-1.941724 V 6.8285753 C 2.4424777,5.7564513 3.31171,4.8875342 4.383834,4.8875167 H 6.9630842 L 7.6464764,3.7217538 Z"
       id="path1-6-9"
       style="fill:#d8dee9;fill-opacity:1;stroke-width:0.0316736"
       sodipodi:nodetypes="cccccccccccscccccc" /></g></svg>
