<?xml version="1.0" encoding="UTF-8" standalone="no"?>
<svg
   width="16"
   height="16"
   version="1.1"
   id="svg3"
   sodipodi:docname="capslock-off.svg"
   inkscape:version="1.4.2 (ebf0e940d0, 2025-05-08)"
   xmlns:inkscape="http://www.inkscape.org/namespaces/inkscape"
   xmlns:sodipodi="http://sodipodi.sourceforge.net/DTD/sodipodi-0.dtd"
   xmlns="http://www.w3.org/2000/svg"
   xmlns:svg="http://www.w3.org/2000/svg">
  <defs
     id="defs3" />
  <sodipodi:namedview
     id="namedview3"
     pagecolor="#505050"
     bordercolor="#eeeeee"
     borderopacity="1"
     inkscape:showpageshadow="0"
     inkscape:pageopacity="0"
     inkscape:pagecheckerboard="0"
     inkscape:deskcolor="#505050"
     inkscape:zoom="29.125"
     inkscape:cx="5.6309013"
     inkscape:cy="5.4592275"
     inkscape:window-width="1081"
     inkscape:window-height="1368"
     inkscape:window-x="0"
     inkscape:window-y="0"
     inkscape:window-maximized="1"
     inkscape:current-layer="svg3" />
  <path
     d="m12 0c-2.216 0-4 1.784-4 4v2h1v-2c0-1.662 1.338-3 3-3s3 1.338 3 3v2h1v-2c0-2.216-1.784-4-4-4z"
     id="path1"
     style="fill:#d8dee9;fill-opacity:1" />
  <path
     d="m2 6c-1.108 0-2 0.892-2 2v5c0 1.108 0.892 2 2 2h8c1.108 0 2-0.892 2-2v-5c0-1.108-0.892-2-2-2zm0 1h8c0.554 0 1 0.446 1 1v5c0 0.554-0.446 1-1 1h-8c-0.554 0-1-0.446-1-1v-5c0-0.554 0.446-1 1-1z"
     id="path2"
     style="fill:#d8dee9;fill-opacity:1" />
  <g
     transform="translate(0 -.1162)"
     aria-label="A"
     id="g3"
     style="fill:#d8dee9;fill-opacity:1">
    <path
       d="m5.9304 8.7826-0.91762 2.4883h1.8386zm-0.38178-0.66644h0.76691l1.9056 5h-0.70328l-0.45546-1.2827h-2.2539l-0.45546 1.2827h-0.71333z"
       id="path3"
       style="fill:#d8dee9;fill-opacity:1" />
  </g>
</svg>
