<?xml version="1.0" encoding="UTF-8"?>
<svg width="64" height="64" version="1.1" viewBox="0 0 16.933 16.933" xmlns="http://www.w3.org/2000/svg">
  <path d="m 13.758,3.175 c -1.0583,-0.48683 -2.1961,-0.84667 -3.3867,-1.0583 -0.01587,0 -0.03175,0.00794 -0.04233,0.02381 -0.14817,0.27781 -0.30956,0.64029 -0.42333,0.92604 -1.2806,-0.19315 -2.5506,-0.19315 -3.8047,0 -0.11377,-0.29369 -0.28046,-0.64823 -0.42863,-0.92604 -0.01058,-0.01323 -0.02646,-0.02117 -0.04233,-0.02381 -1.1906,0.21167 -2.3283,0.57152 -3.3867,1.0583 -0.00794,0.00529 -0.01587,0.01323 -0.02117,0.02381 -2.1696,3.2385 -2.7648,6.3971 -2.4738,9.5185 0.00265,0.01852 0.01323,0.03704 0.02646,0.04762 1.4288,1.0477 2.8152,1.6827 4.1751,2.1049 0.01587,0.00529 0.03175,0 0.04233,-0.01058 0.23283,-0.31749 0.44185,-0.65088 0.62442,-1.0001 0.01058,-0.01852 0.00265,-0.04233 -0.01587,-0.04762 -0.45508,-0.17198 -0.88635,-0.381 -1.3017,-0.62177 -0.02117,-0.01323 -0.02381,-0.04498 -0.00529,-0.06085 0.08731,-0.06615 0.17462,-0.13494 0.25665,-0.20373 0.01058,-0.00794 0.02381,-0.01058 0.03704,-0.00529 2.7305,1.2435 5.6885,1.2435 8.3873,0 0.01323,-0.00794 0.02646,-0.00529 0.03704,0.00265 0.08202,0.06879 0.16933,0.13758 0.25665,0.20638 0.01852,0.01323 0.01587,0.04762 -0.00265,0.06085 -0.41275,0.24342 -0.84667,0.44979 -1.3044,0.61913 -0.01852,0.00529 -0.02381,0.03175 -0.01323,0.04762 0.18521,0.34925 0.39423,0.68263 0.62177,1.0001 0.01058,0.01323 0.02646,0.01852 0.04233,0.01323 1.3652,-0.42333 2.7516,-1.0583 4.1804,-2.1075 0.01323,-0.01058 0.02117,-0.02646 0.02381,-0.04498 0.34925,-3.6142 -0.58473,-6.7521 -2.4765,-9.5344 -0.00529,-0.01058 -0.01323,-0.01852 -0.02117,-0.02381 z m -8.5725,7.6465 c -0.82285,0 -1.4999,-0.75406 -1.4999,-1.6827 0,-0.92869 0.66146,-1.6827 1.4999,-1.6827 0.84667,0 1.5161,0.76198 1.4999,1.6827 0,0.92869 -0.66146,1.6827 -1.4999,1.6827 z m 5.5562,0 c -0.82285,0 -1.4999,-0.75406 -1.4999,-1.6827 0,-0.92869 0.66146,-1.6827 1.4999,-1.6827 0.84667,0 1.5161,0.76198 1.4999,1.6827 0,0.92869 -0.65352,1.6827 -1.4999,1.6827 z" fill="#5865f2"/>
</svg>
