<?xml version="1.0" encoding="UTF-8"?>
<svg width="64" height="64" version="1.1" viewBox="0 0 16.933 16.933" xmlns="http://www.w3.org/2000/svg">
  <rect x="2.381" y="0.26458" width="12.17" height="16.404" rx="0.52916" ry="0.52916" fill="#e5e9f0" stroke="#d8dee9" stroke-width="0.26458"/>
  <path d="m 8.4667,5.8208 c -0.3175,0 -0.5953,0.03704 -0.8334,0.11112 -0.2381,0.07408 -0.4233,0.15875 -0.5556,0.254 l 0.1905,0.5291 c 0.3704,-0.2117 0.7937,-0.3175 1.2701,-0.3175 0.1587,0 0.3175,0.01323 0.4762,0.03968 0.1587,0.02646 0.2963,0.07937 0.4233,0.15875 0.127,0.07937 0.2328,0.18521 0.3175,0.31749 0.0847,0.12229 0.127,0.28046 0.127,0.47625 0,0.21167 -0.0529,0.41275 -0.1587,0.60325 -0.0847,0.16933 -0.1905,0.33867 -0.3175,0.508 -0.127,0.15875 -0.2646,0.31749 -0.4127,0.47625 -0.1481,0.14816 -0.2857,0.30691 -0.4127,0.47625 -0.127,0.16933 -0.2328,0.35983 -0.3175,0.5715 -0.0847,0.20108 -0.127,0.43391 -0.127,0.69849 0,0.08467 0.0053,0.16933 0.0159,0.254 0.0106,0.08467 0.0265,0.16933 0.0476,0.254 h 0.5291 c -0.0106,-0.04233 -0.0159,-0.08467 -0.0159,-0.127 v -0.1905 c 0,-0.23283 0.0529,-0.44449 0.1587,-0.635 0.1058,-0.19049 0.2328,-0.36512 0.381,-0.52387 0.1481,-0.16933 0.3069,-0.33866 0.4762,-0.508 0.1693,-0.16933 0.3281,-0.34925 0.4868,-0.53975 0.1587,-0.19049 0.2963,-0.40216 0.4127,-0.635 0.1164,-0.23283 0.1746,-0.49741 0.1746,-0.79374 0,-0.18521 -0.0423,-0.37042 -0.127,-0.55563 -0.0847,-0.1852 -0.2117,-0.34925 -0.381,-0.49212 -0.1693,-0.15346 -0.381,-0.27575 -0.635,-0.36512 -0.254,-0.09525 -0.5503,-0.14287 -0.889,-0.14287 z m -0.127,6.4823 c -0.1693,0 -0.3069,0.05291 -0.4127,0.15875 -0.1058,0.11641 -0.1587,0.254 -0.1587,0.41275 0,0.15875 0.0529,0.29633 0.1587,0.41275 0.1058,0.11641 0.2434,0.17462 0.4127,0.17462 0.1693,0 0.3069,-0.05821 0.4127,-0.17462 0.1058,-0.11641 0.1587,-0.254 0.1587,-0.41275 0,-0.15875 -0.0529,-0.29633 -0.1587,-0.41275 -0.1058,-0.10583 -0.2434,-0.15875 -0.4127,-0.15875 z" fill="#4c566a"/>
</svg>
