<?xml version="1.0" encoding="UTF-8" standalone="no"?>
<svg
   viewBox="0 0 24 24"
   version="1.1"
   id="svg1"
   sodipodi:docname="notification (Copy).svg"
   inkscape:version="1.4.2 (ebf0e940d0, 2025-05-08)"
   xmlns:inkscape="http://www.inkscape.org/namespaces/inkscape"
   xmlns:sodipodi="http://sodipodi.sourceforge.net/DTD/sodipodi-0.dtd"
   xmlns="http://www.w3.org/2000/svg"
   xmlns:svg="http://www.w3.org/2000/svg">
  <defs
     id="defs1" />
  <sodipodi:namedview
     id="namedview1"
     pagecolor="#505050"
     bordercolor="#eeeeee"
     borderopacity="1"
     inkscape:showpageshadow="0"
     inkscape:pageopacity="0"
     inkscape:pagecheckerboard="0"
     inkscape:deskcolor="#505050"
     inkscape:zoom="6.8648283"
     inkscape:cx="-63.366479"
     inkscape:cy="-4.8071122"
     inkscape:window-width="2156"
     inkscape:window-height="1368"
     inkscape:window-x="0"
     inkscape:window-y="0"
     inkscape:window-maximized="1"
     inkscape:current-layer="svg1" />
  <g
     id="g48"
     transform="matrix(0.11811019,0,0,0.11811019,342.64713,1000.8166)">
    <g
       id="g47"
       transform="translate(102.43518,2.2374873)"
       style="fill:#d8dee9;fill-opacity:1">
      <path
         id="path1-62-3"
         style="color:#2e3440;fill:#d8dee9;fill-opacity:1;stroke-width:9.67611"
         class="ColorScheme-Text"
         d="m -2885.86,-8342.2028 -47.5532,-47.5548 c -0.6136,-0.045 -1.227,-0.07 -1.8396,-0.073 -6.1701,-0.031 -9.7518,0.6439 -15.0436,5.9345 l 19.3523,23.8264 -29.0282,34.23 -9.6764,19.3518 19.3523,-9.6759 34.6946,-29.0282 23.3624,19.3523 c 5.3848,-5.385 6.8791,-10.7922 6.3794,-16.3633 z" />
      <path
         id="path47"
         style="color:#2e3440;fill:#d8dee9;fill-opacity:1;stroke-width:9.67611"
         class="ColorScheme-Text"
         d="m -2907.5465,-8395.812 27.2221,27.2227 14.9216,-22.3 c 12.8594,7.6661 24.6296,3.9079 31.2208,-2.6841 l -48.381,-48.381 c -6.5912,6.5912 -10.3497,18.3614 -2.6836,31.2209 z" />
    </g>
    <path
       class="ColorScheme-NegativeText"
       d="m -2859.2348,-8439.7169 -7.9787,7.9787 127.4837,127.488 7.983,-7.983 z"
       fill="currentColor"
       id="path2-12"
       style="color:#bf616a;stroke-width:11.2889" />
  </g>
</svg>
